<?xml version="1.0" encoding="UTF-8" standalone="no"?>
<!DOCTYPE svg PUBLIC "-//W3C//DTD SVG 1.1//EN"
 "http://www.w3.org/Graphics/SVG/1.1/DTD/svg11.dtd">
<!-- Generated by graphviz version 2.30.1 (20130311.0712)
 -->
<!-- Title: controllers_diagram Pages: 1 -->
<svg width="743pt" height="742pt"
 viewBox="0.00 0.00 743.38 742.17" xmlns="http://www.w3.org/2000/svg" xmlns:xlink="http://www.w3.org/1999/xlink">
<g id="graph0" class="graph" transform="scale(1 1) rotate(0) translate(4 738.174)">
<title>controllers_diagram</title>
<polygon fill="white" stroke="white" points="-4,5 -4,-738.174 740.375,-738.174 740.375,5 -4,5"/>
<!-- _diagram_info -->
<g id="node1" class="node"><title>_diagram_info</title>
<text text-anchor="start" x="536" y="-165" font-family="Times,serif" font-size="13.00">Controllers diagram</text>
<text text-anchor="start" x="536" y="-149.4" font-family="Times,serif" font-size="13.00">Date: Mar 11 2013 &#45; 08:28</text>
<text text-anchor="start" x="536" y="-133.8" font-family="Times,serif" font-size="13.00">Migration version: 20130307104456</text>
<text text-anchor="start" x="536" y="-118.2" font-family="Times,serif" font-size="13.00">Generated by RailRoady 1.1.0</text>
<text text-anchor="start" x="536" y="-102.6" font-family="Times,serif" font-size="13.00">http://railroady.prestonlee.com</text>
</g>
<!-- ApplicationController -->
<g id="node2" class="node"><title>ApplicationController</title>
<path fill="none" stroke="black" d="M145.97,-300.976C145.97,-300.976 324.605,-300.976 324.605,-300.976 330.605,-300.976 336.605,-306.976 336.605,-312.976 336.605,-312.976 336.605,-420.976 336.605,-420.976 336.605,-426.976 330.605,-432.976 324.605,-432.976 324.605,-432.976 145.97,-432.976 145.97,-432.976 139.97,-432.976 133.97,-426.976 133.97,-420.976 133.97,-420.976 133.97,-312.976 133.97,-312.976 133.97,-306.976 139.97,-300.976 145.97,-300.976"/>
<text text-anchor="middle" x="235.287" y="-414.976" font-family="Times,serif" font-size="14.00">ApplicationController</text>
<polyline fill="none" stroke="black" points="133.97,-408.176 336.605,-408.176 "/>
<text text-anchor="start" x="141.97" y="-390.176" font-family="Times,serif" font-size="14.00">_callback_before_11</text>
<text text-anchor="start" x="141.97" y="-373.376" font-family="Times,serif" font-size="14.00">_one_time_conditions_valid_10?</text>
<text text-anchor="start" x="141.97" y="-356.576" font-family="Times,serif" font-size="14.00">_one_time_conditions_valid_12?</text>
<polyline fill="none" stroke="black" points="133.97,-349.776 336.605,-349.776 "/>
<polyline fill="none" stroke="black" points="133.97,-325.776 336.605,-325.776 "/>
<text text-anchor="start" x="141.97" y="-307.776" font-family="Times,serif" font-size="14.00">_layout</text>
</g>
<!-- ArticlesController -->
<g id="node3" class="node"><title>ArticlesController</title>
<path fill="none" stroke="black" d="M365.159,-91.2481C365.159,-91.2481 459.021,-91.2481 459.021,-91.2481 465.021,-91.2481 471.021,-97.2481 471.021,-103.248 471.021,-103.248 471.021,-278.448 471.021,-278.448 471.021,-284.448 465.021,-290.448 459.021,-290.448 459.021,-290.448 365.159,-290.448 365.159,-290.448 359.159,-290.448 353.159,-284.448 353.159,-278.448 353.159,-278.448 353.159,-103.248 353.159,-103.248 353.159,-97.2481 359.159,-91.2481 365.159,-91.2481"/>
<text text-anchor="middle" x="412.09" y="-272.448" font-family="Times,serif" font-size="14.00">ArticlesController</text>
<polyline fill="none" stroke="black" points="353.159,-265.648 471.021,-265.648 "/>
<text text-anchor="start" x="361.159" y="-247.648" font-family="Times,serif" font-size="14.00">create</text>
<text text-anchor="start" x="361.159" y="-230.848" font-family="Times,serif" font-size="14.00">destroy</text>
<text text-anchor="start" x="361.159" y="-214.048" font-family="Times,serif" font-size="14.00">edit</text>
<text text-anchor="start" x="361.159" y="-197.248" font-family="Times,serif" font-size="14.00">index</text>
<text text-anchor="start" x="361.159" y="-180.448" font-family="Times,serif" font-size="14.00">new</text>
<text text-anchor="start" x="361.159" y="-163.648" font-family="Times,serif" font-size="14.00">show</text>
<text text-anchor="start" x="361.159" y="-146.848" font-family="Times,serif" font-size="14.00">update</text>
<polyline fill="none" stroke="black" points="353.159,-140.048 471.021,-140.048 "/>
<polyline fill="none" stroke="black" points="353.159,-116.048 471.021,-116.048 "/>
<text text-anchor="start" x="361.159" y="-98.0481" font-family="Times,serif" font-size="14.00">_layout</text>
</g>
<!-- ApplicationController&#45;&gt;ArticlesController -->
<g id="edge1" class="edge"><title>ApplicationController&#45;&gt;ArticlesController</title>
<path fill="none" stroke="black" d="M301.625,-300.891C318.478,-284.102 336.475,-266.174 352.944,-249.768"/>
</g>
<!-- ConceptsController -->
<g id="node4" class="node"><title>ConceptsController</title>
<path fill="none" stroke="black" d="M179.858,-0.5C179.858,-0.5 281.506,-0.5 281.506,-0.5 287.506,-0.5 293.506,-6.5 293.506,-12.5 293.506,-12.5 293.506,-187.7 293.506,-187.7 293.506,-193.7 287.506,-199.7 281.506,-199.7 281.506,-199.7 179.858,-199.7 179.858,-199.7 173.858,-199.7 167.858,-193.7 167.858,-187.7 167.858,-187.7 167.858,-12.5 167.858,-12.5 167.858,-6.5 173.858,-0.5 179.858,-0.5"/>
<text text-anchor="middle" x="230.682" y="-181.7" font-family="Times,serif" font-size="14.00">ConceptsController</text>
<polyline fill="none" stroke="black" points="167.858,-174.9 293.506,-174.9 "/>
<text text-anchor="start" x="175.858" y="-156.9" font-family="Times,serif" font-size="14.00">create</text>
<text text-anchor="start" x="175.858" y="-140.1" font-family="Times,serif" font-size="14.00">destroy</text>
<text text-anchor="start" x="175.858" y="-123.3" font-family="Times,serif" font-size="14.00">edit</text>
<text text-anchor="start" x="175.858" y="-106.5" font-family="Times,serif" font-size="14.00">index</text>
<text text-anchor="start" x="175.858" y="-89.7" font-family="Times,serif" font-size="14.00">new</text>
<text text-anchor="start" x="175.858" y="-72.9" font-family="Times,serif" font-size="14.00">show</text>
<text text-anchor="start" x="175.858" y="-56.1" font-family="Times,serif" font-size="14.00">update</text>
<polyline fill="none" stroke="black" points="167.858,-49.3 293.506,-49.3 "/>
<polyline fill="none" stroke="black" points="167.858,-25.3 293.506,-25.3 "/>
<text text-anchor="start" x="175.858" y="-7.3" font-family="Times,serif" font-size="14.00">_layout</text>
</g>
<!-- ApplicationController&#45;&gt;ConceptsController -->
<g id="edge2" class="edge"><title>ApplicationController&#45;&gt;ConceptsController</title>
<path fill="none" stroke="black" d="M234.143,-300.663C233.618,-270.252 232.985,-233.551 232.404,-199.902"/>
</g>
<!-- SearchController -->
<g id="node5" class="node"><title>SearchController</title>
<path fill="none" stroke="black" d="M19.0249,-495.876C19.0249,-495.876 106.66,-495.876 106.66,-495.876 112.66,-495.876 118.66,-501.876 118.66,-507.876 118.66,-507.876 118.66,-582.276 118.66,-582.276 118.66,-588.276 112.66,-594.276 106.66,-594.276 106.66,-594.276 19.0249,-594.276 19.0249,-594.276 13.0249,-594.276 7.02485,-588.276 7.02485,-582.276 7.02485,-582.276 7.02485,-507.876 7.02485,-507.876 7.02485,-501.876 13.0249,-495.876 19.0249,-495.876"/>
<text text-anchor="middle" x="62.8422" y="-576.276" font-family="Times,serif" font-size="14.00">SearchController</text>
<polyline fill="none" stroke="black" points="7.02485,-569.476 118.66,-569.476 "/>
<text text-anchor="start" x="15.0249" y="-551.476" font-family="Times,serif" font-size="14.00">index</text>
<polyline fill="none" stroke="black" points="7.02485,-544.676 118.66,-544.676 "/>
<polyline fill="none" stroke="black" points="7.02485,-520.676 118.66,-520.676 "/>
<text text-anchor="start" x="15.0249" y="-502.676" font-family="Times,serif" font-size="14.00">_layout</text>
</g>
<!-- ApplicationController&#45;&gt;SearchController -->
<g id="edge3" class="edge"><title>ApplicationController&#45;&gt;SearchController</title>
<path fill="none" stroke="black" d="M171.32,-433.041C151.191,-453.83 129.325,-476.413 110.534,-495.821"/>
</g>
<!-- SitesController -->
<g id="node6" class="node"><title>SitesController</title>
<path fill="none" stroke="black" d="M377.45,-432.446C377.45,-432.446 454.222,-432.446 454.222,-432.446 460.222,-432.446 466.222,-438.446 466.222,-444.446 466.222,-444.446 466.222,-619.646 466.222,-619.646 466.222,-625.646 460.222,-631.646 454.222,-631.646 454.222,-631.646 377.45,-631.646 377.45,-631.646 371.45,-631.646 365.45,-625.646 365.45,-619.646 365.45,-619.646 365.45,-444.446 365.45,-444.446 365.45,-438.446 371.45,-432.446 377.45,-432.446"/>
<text text-anchor="middle" x="415.836" y="-613.646" font-family="Times,serif" font-size="14.00">SitesController</text>
<polyline fill="none" stroke="black" points="365.45,-606.846 466.222,-606.846 "/>
<text text-anchor="start" x="373.45" y="-588.846" font-family="Times,serif" font-size="14.00">create</text>
<text text-anchor="start" x="373.45" y="-572.046" font-family="Times,serif" font-size="14.00">destroy</text>
<text text-anchor="start" x="373.45" y="-555.246" font-family="Times,serif" font-size="14.00">edit</text>
<text text-anchor="start" x="373.45" y="-538.446" font-family="Times,serif" font-size="14.00">index</text>
<text text-anchor="start" x="373.45" y="-521.646" font-family="Times,serif" font-size="14.00">new</text>
<text text-anchor="start" x="373.45" y="-504.846" font-family="Times,serif" font-size="14.00">show</text>
<text text-anchor="start" x="373.45" y="-488.046" font-family="Times,serif" font-size="14.00">update</text>
<polyline fill="none" stroke="black" points="365.45,-481.246 466.222,-481.246 "/>
<polyline fill="none" stroke="black" points="365.45,-457.246 466.222,-457.246 "/>
<text text-anchor="start" x="373.45" y="-439.246" font-family="Times,serif" font-size="14.00">_layout</text>
</g>
<!-- ApplicationController&#45;&gt;SitesController -->
<g id="edge4" class="edge"><title>ApplicationController&#45;&gt;SitesController</title>
<path fill="none" stroke="black" d="M307.683,-433.165C327.01,-450.835 347.475,-469.546 365.342,-485.882"/>
</g>
<!-- SpeciesController -->
<g id="node7" class="node"><title>SpeciesController</title>
<path fill="none" stroke="black" d="M202.152,-534.474C202.152,-534.474 294.462,-534.474 294.462,-534.474 300.462,-534.474 306.462,-540.474 306.462,-546.474 306.462,-546.474 306.462,-721.674 306.462,-721.674 306.462,-727.674 300.462,-733.674 294.462,-733.674 294.462,-733.674 202.152,-733.674 202.152,-733.674 196.152,-733.674 190.152,-727.674 190.152,-721.674 190.152,-721.674 190.152,-546.474 190.152,-546.474 190.152,-540.474 196.152,-534.474 202.152,-534.474"/>
<text text-anchor="middle" x="248.307" y="-715.674" font-family="Times,serif" font-size="14.00">SpeciesController</text>
<polyline fill="none" stroke="black" points="190.152,-708.874 306.462,-708.874 "/>
<text text-anchor="start" x="198.152" y="-690.874" font-family="Times,serif" font-size="14.00">create</text>
<text text-anchor="start" x="198.152" y="-674.074" font-family="Times,serif" font-size="14.00">destroy</text>
<text text-anchor="start" x="198.152" y="-657.274" font-family="Times,serif" font-size="14.00">edit</text>
<text text-anchor="start" x="198.152" y="-640.474" font-family="Times,serif" font-size="14.00">index</text>
<text text-anchor="start" x="198.152" y="-623.674" font-family="Times,serif" font-size="14.00">new</text>
<text text-anchor="start" x="198.152" y="-606.874" font-family="Times,serif" font-size="14.00">show</text>
<text text-anchor="start" x="198.152" y="-590.074" font-family="Times,serif" font-size="14.00">update</text>
<polyline fill="none" stroke="black" points="190.152,-583.274 306.462,-583.274 "/>
<polyline fill="none" stroke="black" points="190.152,-559.274 306.462,-559.274 "/>
<text text-anchor="start" x="198.152" y="-541.274" font-family="Times,serif" font-size="14.00">_layout</text>
</g>
<!-- ApplicationController&#45;&gt;SpeciesController -->
<g id="edge5" class="edge"><title>ApplicationController&#45;&gt;SpeciesController</title>
<path fill="none" stroke="black" d="M238.506,-433C239.997,-463.588 241.8,-500.589 243.452,-534.468"/>
</g>
<!-- ThemesController -->
<g id="node8" class="node"><title>ThemesController</title>
<path fill="none" stroke="black" d="M12,-99.1615C12,-99.1615 105.862,-99.1615 105.862,-99.1615 111.862,-99.1615 117.862,-105.161 117.862,-111.161 117.862,-111.161 117.862,-286.361 117.862,-286.361 117.862,-292.361 111.862,-298.361 105.862,-298.361 105.862,-298.361 12,-298.361 12,-298.361 6,-298.361 2.84217e-14,-292.361 2.84217e-14,-286.361 2.84217e-14,-286.361 2.84217e-14,-111.161 2.84217e-14,-111.161 2.84217e-14,-105.161 6,-99.1615 12,-99.1615"/>
<text text-anchor="middle" x="58.9312" y="-280.361" font-family="Times,serif" font-size="14.00">ThemesController</text>
<polyline fill="none" stroke="black" points="2.84217e-14,-273.561 117.862,-273.561 "/>
<text text-anchor="start" x="8" y="-255.561" font-family="Times,serif" font-size="14.00">create</text>
<text text-anchor="start" x="8" y="-238.761" font-family="Times,serif" font-size="14.00">destroy</text>
<text text-anchor="start" x="8" y="-221.961" font-family="Times,serif" font-size="14.00">edit</text>
<text text-anchor="start" x="8" y="-205.161" font-family="Times,serif" font-size="14.00">index</text>
<text text-anchor="start" x="8" y="-188.361" font-family="Times,serif" font-size="14.00">new</text>
<text text-anchor="start" x="8" y="-171.561" font-family="Times,serif" font-size="14.00">show</text>
<text text-anchor="start" x="8" y="-154.761" font-family="Times,serif" font-size="14.00">update</text>
<polyline fill="none" stroke="black" points="2.84217e-14,-147.961 117.862,-147.961 "/>
<polyline fill="none" stroke="black" points="2.84217e-14,-123.961 117.862,-123.961 "/>
<text text-anchor="start" x="8" y="-105.961" font-family="Times,serif" font-size="14.00">_layout</text>
</g>
<!-- ApplicationController&#45;&gt;ThemesController -->
<g id="edge6" class="edge"><title>ApplicationController&#45;&gt;ThemesController</title>
<path fill="none" stroke="black" d="M165.84,-300.734C150.032,-285.656 133.382,-269.775 118.052,-255.153"/>
</g>
</g>
</svg>
