<?xml version="1.0" encoding="UTF-8" standalone="no"?>
<!DOCTYPE svg PUBLIC "-//W3C//DTD SVG 1.1//EN"
 "http://www.w3.org/Graphics/SVG/1.1/DTD/svg11.dtd">
<!-- Generated by graphviz version 2.30.1 (20130311.0712)
 -->
<!-- Title: controllers_diagram Pages: 1 -->
<svg width="1138pt" height="958pt"
 viewBox="0.00 0.00 1138.38 958.19" xmlns="http://www.w3.org/2000/svg" xmlns:xlink="http://www.w3.org/1999/xlink">
<g id="graph0" class="graph" transform="scale(1 1) rotate(0) translate(4 954.189)">
<title>controllers_diagram</title>
<polygon fill="white" stroke="white" points="-4,5 -4,-954.189 1135.38,-954.189 1135.38,5 -4,5"/>
<!-- _diagram_info -->
<g id="node1" class="node"><title>_diagram_info</title>
<text text-anchor="start" x="931" y="-69" font-family="Times,serif" font-size="13.00">Controllers diagram</text>
<text text-anchor="start" x="931" y="-53.4" font-family="Times,serif" font-size="13.00">Date: Apr 29 2013 &#45; 08:39</text>
<text text-anchor="start" x="931" y="-37.8" font-family="Times,serif" font-size="13.00">Migration version: 20130424142215</text>
<text text-anchor="start" x="931" y="-22.2" font-family="Times,serif" font-size="13.00">Generated by RailRoady 1.1.0</text>
<text text-anchor="start" x="931" y="-6.6" font-family="Times,serif" font-size="13.00">http://railroady.prestonlee.com</text>
</g>
<!-- ActionsController -->
<g id="node2" class="node"><title>ActionsController</title>
<path fill="none" stroke="black" d="M12,-376.384C12,-376.384 105.097,-376.384 105.097,-376.384 111.097,-376.384 117.097,-382.384 117.097,-388.384 117.097,-388.384 117.097,-563.584 117.097,-563.584 117.097,-569.584 111.097,-575.584 105.097,-575.584 105.097,-575.584 12,-575.584 12,-575.584 6,-575.584 0,-569.584 0,-563.584 0,-563.584 0,-388.384 0,-388.384 0,-382.384 6,-376.384 12,-376.384"/>
<text text-anchor="middle" x="58.5483" y="-557.584" font-family="Times,serif" font-size="14.00">ActionsController</text>
<polyline fill="none" stroke="black" points="0,-550.784 117.097,-550.784 "/>
<text text-anchor="start" x="8" y="-532.784" font-family="Times,serif" font-size="14.00">create</text>
<text text-anchor="start" x="8" y="-515.984" font-family="Times,serif" font-size="14.00">destroy</text>
<text text-anchor="start" x="8" y="-499.184" font-family="Times,serif" font-size="14.00">edit</text>
<text text-anchor="start" x="8" y="-482.384" font-family="Times,serif" font-size="14.00">index</text>
<text text-anchor="start" x="8" y="-465.584" font-family="Times,serif" font-size="14.00">new</text>
<text text-anchor="start" x="8" y="-448.784" font-family="Times,serif" font-size="14.00">show</text>
<text text-anchor="start" x="8" y="-431.984" font-family="Times,serif" font-size="14.00">update</text>
<polyline fill="none" stroke="black" points="0,-425.184 117.097,-425.184 "/>
<polyline fill="none" stroke="black" points="0,-401.184 117.097,-401.184 "/>
<text text-anchor="start" x="8" y="-383.184" font-family="Times,serif" font-size="14.00">_layout</text>
</g>
<!-- Api::V1::EcosystemAssessmentsController -->
<g id="node3" class="node"><title>Api::V1::EcosystemAssessmentsController</title>
<path fill="none" stroke="black" d="M601.778,-498.211C601.778,-498.211 837.206,-498.211 837.206,-498.211 843.206,-498.211 849.206,-504.211 849.206,-510.211 849.206,-510.211 849.206,-651.811 849.206,-651.811 849.206,-657.811 843.206,-663.811 837.206,-663.811 837.206,-663.811 601.778,-663.811 601.778,-663.811 595.778,-663.811 589.778,-657.811 589.778,-651.811 589.778,-651.811 589.778,-510.211 589.778,-510.211 589.778,-504.211 595.778,-498.211 601.778,-498.211"/>
<text text-anchor="middle" x="719.492" y="-645.811" font-family="Times,serif" font-size="14.00">Api::V1::EcosystemAssessmentsController</text>
<polyline fill="none" stroke="black" points="589.778,-639.011 849.206,-639.011 "/>
<text text-anchor="start" x="597.778" y="-621.011" font-family="Times,serif" font-size="14.00">create</text>
<text text-anchor="start" x="597.778" y="-604.211" font-family="Times,serif" font-size="14.00">destroy</text>
<text text-anchor="start" x="597.778" y="-587.411" font-family="Times,serif" font-size="14.00">index</text>
<text text-anchor="start" x="597.778" y="-570.611" font-family="Times,serif" font-size="14.00">show</text>
<text text-anchor="start" x="597.778" y="-553.811" font-family="Times,serif" font-size="14.00">update</text>
<polyline fill="none" stroke="black" points="589.778,-547.011 849.206,-547.011 "/>
<polyline fill="none" stroke="black" points="589.778,-523.011 849.206,-523.011 "/>
<text text-anchor="start" x="597.778" y="-505.011" font-family="Times,serif" font-size="14.00">_layout</text>
</g>
<!-- ApplicationController -->
<g id="node4" class="node"><title>ApplicationController</title>
<path fill="none" stroke="black" d="M341.159,-401.87C341.159,-401.87 519.793,-401.87 519.793,-401.87 525.793,-401.87 531.793,-407.87 531.793,-413.87 531.793,-413.87 531.793,-521.87 531.793,-521.87 531.793,-527.87 525.793,-533.87 519.793,-533.87 519.793,-533.87 341.159,-533.87 341.159,-533.87 335.159,-533.87 329.159,-527.87 329.159,-521.87 329.159,-521.87 329.159,-413.87 329.159,-413.87 329.159,-407.87 335.159,-401.87 341.159,-401.87"/>
<text text-anchor="middle" x="430.476" y="-515.87" font-family="Times,serif" font-size="14.00">ApplicationController</text>
<polyline fill="none" stroke="black" points="329.159,-509.07 531.793,-509.07 "/>
<text text-anchor="start" x="337.159" y="-491.07" font-family="Times,serif" font-size="14.00">_callback_before_55</text>
<text text-anchor="start" x="337.159" y="-474.27" font-family="Times,serif" font-size="14.00">_one_time_conditions_valid_54?</text>
<text text-anchor="start" x="337.159" y="-457.47" font-family="Times,serif" font-size="14.00">_one_time_conditions_valid_56?</text>
<polyline fill="none" stroke="black" points="329.159,-450.67 531.793,-450.67 "/>
<polyline fill="none" stroke="black" points="329.159,-426.67 531.793,-426.67 "/>
<text text-anchor="start" x="337.159" y="-408.67" font-family="Times,serif" font-size="14.00">_layout</text>
</g>
<!-- ApplicationController&#45;&gt;ActionsController -->
<g id="edge1" class="edge"><title>ApplicationController&#45;&gt;ActionsController</title>
<path fill="none" stroke="black" d="M328.845,-470.087C260.88,-471.57 173.848,-473.469 117.174,-474.705"/>
</g>
<!-- ApplicationController&#45;&gt;Api::V1::EcosystemAssessmentsController -->
<g id="edge2" class="edge"><title>ApplicationController&#45;&gt;Api::V1::EcosystemAssessmentsController</title>
<path fill="none" stroke="black" d="M531.966,-507.6C550.589,-514.891 570.261,-522.592 589.582,-530.155"/>
</g>
<!-- ArticlesController -->
<g id="node5" class="node"><title>ArticlesController</title>
<path fill="none" stroke="black" d="M68.6574,-716.889C68.6574,-716.889 162.52,-716.889 162.52,-716.889 168.52,-716.889 174.52,-722.889 174.52,-728.889 174.52,-728.889 174.52,-937.689 174.52,-937.689 174.52,-943.689 168.52,-949.689 162.52,-949.689 162.52,-949.689 68.6574,-949.689 68.6574,-949.689 62.6574,-949.689 56.6574,-943.689 56.6574,-937.689 56.6574,-937.689 56.6574,-728.889 56.6574,-728.889 56.6574,-722.889 62.6574,-716.889 68.6574,-716.889"/>
<text text-anchor="middle" x="115.589" y="-931.689" font-family="Times,serif" font-size="14.00">ArticlesController</text>
<polyline fill="none" stroke="black" points="56.6574,-924.889 174.52,-924.889 "/>
<text text-anchor="start" x="64.6574" y="-906.889" font-family="Times,serif" font-size="14.00">concepts</text>
<text text-anchor="start" x="64.6574" y="-890.089" font-family="Times,serif" font-size="14.00">create</text>
<text text-anchor="start" x="64.6574" y="-873.289" font-family="Times,serif" font-size="14.00">destroy</text>
<text text-anchor="start" x="64.6574" y="-856.489" font-family="Times,serif" font-size="14.00">edit</text>
<text text-anchor="start" x="64.6574" y="-839.689" font-family="Times,serif" font-size="14.00">index</text>
<text text-anchor="start" x="64.6574" y="-822.889" font-family="Times,serif" font-size="14.00">new</text>
<text text-anchor="start" x="64.6574" y="-806.089" font-family="Times,serif" font-size="14.00">show</text>
<text text-anchor="start" x="64.6574" y="-789.289" font-family="Times,serif" font-size="14.00">update</text>
<polyline fill="none" stroke="black" points="56.6574,-782.489 174.52,-782.489 "/>
<polyline fill="none" stroke="black" points="56.6574,-758.489 174.52,-758.489 "/>
<text text-anchor="start" x="64.6574" y="-740.489" font-family="Times,serif" font-size="14.00">_layout</text>
<text text-anchor="start" x="64.6574" y="-723.689" font-family="Times,serif" font-size="14.00">get_concepts</text>
</g>
<!-- ApplicationController&#45;&gt;ArticlesController -->
<g id="edge3" class="edge"><title>ApplicationController&#45;&gt;ArticlesController</title>
<path fill="none" stroke="black" d="M382.526,-534.11C352.625,-574.392 312.712,-626.353 274.647,-670.229 243.03,-706.673 205.424,-745.414 174.718,-775.986"/>
</g>
<!-- ConceptsController -->
<g id="node6" class="node"><title>ConceptsController</title>
<path fill="none" stroke="black" d="M678.242,-731.05C678.242,-731.05 779.891,-731.05 779.891,-731.05 785.891,-731.05 791.891,-737.05 791.891,-743.05 791.891,-743.05 791.891,-918.25 791.891,-918.25 791.891,-924.25 785.891,-930.25 779.891,-930.25 779.891,-930.25 678.242,-930.25 678.242,-930.25 672.242,-930.25 666.242,-924.25 666.242,-918.25 666.242,-918.25 666.242,-743.05 666.242,-743.05 666.242,-737.05 672.242,-731.05 678.242,-731.05"/>
<text text-anchor="middle" x="729.067" y="-912.25" font-family="Times,serif" font-size="14.00">ConceptsController</text>
<polyline fill="none" stroke="black" points="666.242,-905.45 791.891,-905.45 "/>
<text text-anchor="start" x="674.242" y="-887.45" font-family="Times,serif" font-size="14.00">create</text>
<text text-anchor="start" x="674.242" y="-870.65" font-family="Times,serif" font-size="14.00">destroy</text>
<text text-anchor="start" x="674.242" y="-853.85" font-family="Times,serif" font-size="14.00">edit</text>
<text text-anchor="start" x="674.242" y="-837.05" font-family="Times,serif" font-size="14.00">index</text>
<text text-anchor="start" x="674.242" y="-820.25" font-family="Times,serif" font-size="14.00">new</text>
<text text-anchor="start" x="674.242" y="-803.45" font-family="Times,serif" font-size="14.00">show</text>
<text text-anchor="start" x="674.242" y="-786.65" font-family="Times,serif" font-size="14.00">update</text>
<polyline fill="none" stroke="black" points="666.242,-779.85 791.891,-779.85 "/>
<polyline fill="none" stroke="black" points="666.242,-755.85 791.891,-755.85 "/>
<text text-anchor="start" x="674.242" y="-737.85" font-family="Times,serif" font-size="14.00">_layout</text>
</g>
<!-- ApplicationController&#45;&gt;ConceptsController -->
<g id="edge4" class="edge"><title>ApplicationController&#45;&gt;ConceptsController</title>
<path fill="none" stroke="black" d="M480.959,-534.022C511.123,-573.103 550.479,-623.328 586.578,-667.011 612.134,-697.936 641.087,-731.452 666.188,-760.05"/>
</g>
<!-- DocumentsController -->
<g id="node7" class="node"><title>DocumentsController</title>
<path fill="none" stroke="black" d="M376.167,-698.003C376.167,-698.003 489.477,-698.003 489.477,-698.003 495.477,-698.003 501.477,-704.003 501.477,-710.003 501.477,-710.003 501.477,-885.203 501.477,-885.203 501.477,-891.203 495.477,-897.203 489.477,-897.203 489.477,-897.203 376.167,-897.203 376.167,-897.203 370.167,-897.203 364.167,-891.203 364.167,-885.203 364.167,-885.203 364.167,-710.003 364.167,-710.003 364.167,-704.003 370.167,-698.003 376.167,-698.003"/>
<text text-anchor="middle" x="432.822" y="-879.203" font-family="Times,serif" font-size="14.00">DocumentsController</text>
<polyline fill="none" stroke="black" points="364.167,-872.403 501.477,-872.403 "/>
<text text-anchor="start" x="372.167" y="-854.403" font-family="Times,serif" font-size="14.00">create</text>
<text text-anchor="start" x="372.167" y="-837.603" font-family="Times,serif" font-size="14.00">destroy</text>
<text text-anchor="start" x="372.167" y="-820.803" font-family="Times,serif" font-size="14.00">edit</text>
<text text-anchor="start" x="372.167" y="-804.003" font-family="Times,serif" font-size="14.00">index</text>
<text text-anchor="start" x="372.167" y="-787.203" font-family="Times,serif" font-size="14.00">new</text>
<text text-anchor="start" x="372.167" y="-770.403" font-family="Times,serif" font-size="14.00">show</text>
<text text-anchor="start" x="372.167" y="-753.603" font-family="Times,serif" font-size="14.00">update</text>
<polyline fill="none" stroke="black" points="364.167,-746.803 501.477,-746.803 "/>
<polyline fill="none" stroke="black" points="364.167,-722.803 501.477,-722.803 "/>
<text text-anchor="start" x="372.167" y="-704.803" font-family="Times,serif" font-size="14.00">_layout</text>
</g>
<!-- ApplicationController&#45;&gt;DocumentsController -->
<g id="edge5" class="edge"><title>ApplicationController&#45;&gt;DocumentsController</title>
<path fill="none" stroke="black" d="M430.948,-534.2C431.282,-581.121 431.735,-644.862 432.113,-697.887"/>
</g>
<!-- EcosystemAssessmentsController -->
<g id="node8" class="node"><title>EcosystemAssessmentsController</title>
<path fill="none" stroke="black" d="M30.5439,-0.5C30.5439,-0.5 212.303,-0.5 212.303,-0.5 218.303,-0.5 224.303,-6.5 224.303,-12.5 224.303,-12.5 224.303,-187.7 224.303,-187.7 224.303,-193.7 218.303,-199.7 212.303,-199.7 212.303,-199.7 30.5439,-199.7 30.5439,-199.7 24.5439,-199.7 18.5439,-193.7 18.5439,-187.7 18.5439,-187.7 18.5439,-12.5 18.5439,-12.5 18.5439,-6.5 24.5439,-0.5 30.5439,-0.5"/>
<text text-anchor="middle" x="121.423" y="-181.7" font-family="Times,serif" font-size="14.00">EcosystemAssessmentsController</text>
<polyline fill="none" stroke="black" points="18.5439,-174.9 224.303,-174.9 "/>
<text text-anchor="start" x="26.5439" y="-156.9" font-family="Times,serif" font-size="14.00">create</text>
<text text-anchor="start" x="26.5439" y="-140.1" font-family="Times,serif" font-size="14.00">destroy</text>
<text text-anchor="start" x="26.5439" y="-123.3" font-family="Times,serif" font-size="14.00">edit</text>
<text text-anchor="start" x="26.5439" y="-106.5" font-family="Times,serif" font-size="14.00">index</text>
<text text-anchor="start" x="26.5439" y="-89.7" font-family="Times,serif" font-size="14.00">new</text>
<text text-anchor="start" x="26.5439" y="-72.9" font-family="Times,serif" font-size="14.00">show</text>
<text text-anchor="start" x="26.5439" y="-56.1" font-family="Times,serif" font-size="14.00">update</text>
<polyline fill="none" stroke="black" points="18.5439,-49.3 224.303,-49.3 "/>
<polyline fill="none" stroke="black" points="18.5439,-25.3 224.303,-25.3 "/>
<text text-anchor="start" x="26.5439" y="-7.3" font-family="Times,serif" font-size="14.00">_layout</text>
</g>
<!-- ApplicationController&#45;&gt;EcosystemAssessmentsController -->
<g id="edge6" class="edge"><title>ApplicationController&#45;&gt;EcosystemAssessmentsController</title>
<path fill="none" stroke="black" d="M386.958,-401.836C350.463,-348.26 295.665,-271.856 240.94,-210.664 235.664,-204.765 230.112,-198.833 224.408,-192.947"/>
</g>
<!-- SearchController -->
<g id="node9" class="node"><title>SearchController</title>
<path fill="none" stroke="black" d="M679.358,-314.939C679.358,-314.939 766.993,-314.939 766.993,-314.939 772.993,-314.939 778.993,-320.939 778.993,-326.939 778.993,-326.939 778.993,-401.339 778.993,-401.339 778.993,-407.339 772.993,-413.339 766.993,-413.339 766.993,-413.339 679.358,-413.339 679.358,-413.339 673.358,-413.339 667.358,-407.339 667.358,-401.339 667.358,-401.339 667.358,-326.939 667.358,-326.939 667.358,-320.939 673.358,-314.939 679.358,-314.939"/>
<text text-anchor="middle" x="723.175" y="-395.339" font-family="Times,serif" font-size="14.00">SearchController</text>
<polyline fill="none" stroke="black" points="667.358,-388.539 778.993,-388.539 "/>
<text text-anchor="start" x="675.358" y="-370.539" font-family="Times,serif" font-size="14.00">index</text>
<polyline fill="none" stroke="black" points="667.358,-363.739 778.993,-363.739 "/>
<polyline fill="none" stroke="black" points="667.358,-339.739 778.993,-339.739 "/>
<text text-anchor="start" x="675.358" y="-321.739" font-family="Times,serif" font-size="14.00">_layout</text>
</g>
<!-- ApplicationController&#45;&gt;SearchController -->
<g id="edge7" class="edge"><title>ApplicationController&#45;&gt;SearchController</title>
<path fill="none" stroke="black" d="M532.027,-431.881C577.268,-415.848 628.83,-397.574 666.992,-384.05"/>
</g>
<!-- SitesController -->
<g id="node10" class="node"><title>SitesController</title>
<path fill="none" stroke="black" d="M148.967,-213.864C148.967,-213.864 225.74,-213.864 225.74,-213.864 231.74,-213.864 237.74,-219.864 237.74,-225.864 237.74,-225.864 237.74,-401.064 237.74,-401.064 237.74,-407.064 231.74,-413.064 225.74,-413.064 225.74,-413.064 148.967,-413.064 148.967,-413.064 142.967,-413.064 136.967,-407.064 136.967,-401.064 136.967,-401.064 136.967,-225.864 136.967,-225.864 136.967,-219.864 142.967,-213.864 148.967,-213.864"/>
<text text-anchor="middle" x="187.354" y="-395.064" font-family="Times,serif" font-size="14.00">SitesController</text>
<polyline fill="none" stroke="black" points="136.967,-388.264 237.74,-388.264 "/>
<text text-anchor="start" x="144.967" y="-370.264" font-family="Times,serif" font-size="14.00">create</text>
<text text-anchor="start" x="144.967" y="-353.464" font-family="Times,serif" font-size="14.00">destroy</text>
<text text-anchor="start" x="144.967" y="-336.664" font-family="Times,serif" font-size="14.00">edit</text>
<text text-anchor="start" x="144.967" y="-319.864" font-family="Times,serif" font-size="14.00">index</text>
<text text-anchor="start" x="144.967" y="-303.064" font-family="Times,serif" font-size="14.00">new</text>
<text text-anchor="start" x="144.967" y="-286.264" font-family="Times,serif" font-size="14.00">show</text>
<text text-anchor="start" x="144.967" y="-269.464" font-family="Times,serif" font-size="14.00">update</text>
<polyline fill="none" stroke="black" points="136.967,-262.664 237.74,-262.664 "/>
<polyline fill="none" stroke="black" points="136.967,-238.664 237.74,-238.664 "/>
<text text-anchor="start" x="144.967" y="-220.664" font-family="Times,serif" font-size="14.00">_layout</text>
</g>
<!-- ApplicationController&#45;&gt;SitesController -->
<g id="edge8" class="edge"><title>ApplicationController&#45;&gt;SitesController</title>
<path fill="none" stroke="black" d="M329.131,-403.506C297.6,-383.481 264.202,-362.27 237.746,-345.468"/>
</g>
<!-- SpeciesController -->
<g id="node11" class="node"><title>SpeciesController</title>
<path fill="none" stroke="black" d="M389.403,-47.4665C389.403,-47.4665 481.713,-47.4665 481.713,-47.4665 487.713,-47.4665 493.713,-53.4665 493.713,-59.4665 493.713,-59.4665 493.713,-234.667 493.713,-234.667 493.713,-240.667 487.713,-246.667 481.713,-246.667 481.713,-246.667 389.403,-246.667 389.403,-246.667 383.403,-246.667 377.403,-240.667 377.403,-234.667 377.403,-234.667 377.403,-59.4665 377.403,-59.4665 377.403,-53.4665 383.403,-47.4665 389.403,-47.4665"/>
<text text-anchor="middle" x="435.558" y="-228.667" font-family="Times,serif" font-size="14.00">SpeciesController</text>
<polyline fill="none" stroke="black" points="377.403,-221.867 493.713,-221.867 "/>
<text text-anchor="start" x="385.403" y="-203.867" font-family="Times,serif" font-size="14.00">create</text>
<text text-anchor="start" x="385.403" y="-187.067" font-family="Times,serif" font-size="14.00">destroy</text>
<text text-anchor="start" x="385.403" y="-170.267" font-family="Times,serif" font-size="14.00">edit</text>
<text text-anchor="start" x="385.403" y="-153.467" font-family="Times,serif" font-size="14.00">index</text>
<text text-anchor="start" x="385.403" y="-136.667" font-family="Times,serif" font-size="14.00">new</text>
<text text-anchor="start" x="385.403" y="-119.867" font-family="Times,serif" font-size="14.00">show</text>
<text text-anchor="start" x="385.403" y="-103.067" font-family="Times,serif" font-size="14.00">update</text>
<polyline fill="none" stroke="black" points="377.403,-96.2665 493.713,-96.2665 "/>
<polyline fill="none" stroke="black" points="377.403,-72.2665 493.713,-72.2665 "/>
<text text-anchor="start" x="385.403" y="-54.2665" font-family="Times,serif" font-size="14.00">_layout</text>
</g>
<!-- ApplicationController&#45;&gt;SpeciesController -->
<g id="edge9" class="edge"><title>ApplicationController&#45;&gt;SpeciesController</title>
<path fill="none" stroke="black" d="M431.523,-401.788C432.23,-357.126 433.177,-297.331 433.976,-246.9"/>
</g>
<!-- TargetsController -->
<g id="node12" class="node"><title>TargetsController</title>
<path fill="none" stroke="black" d="M684.276,-12.499C684.276,-12.499 774.576,-12.499 774.576,-12.499 780.576,-12.499 786.576,-18.499 786.576,-24.499 786.576,-24.499 786.576,-199.699 786.576,-199.699 786.576,-205.699 780.576,-211.699 774.576,-211.699 774.576,-211.699 684.276,-211.699 684.276,-211.699 678.276,-211.699 672.276,-205.699 672.276,-199.699 672.276,-199.699 672.276,-24.499 672.276,-24.499 672.276,-18.499 678.276,-12.499 684.276,-12.499"/>
<text text-anchor="middle" x="729.426" y="-193.699" font-family="Times,serif" font-size="14.00">TargetsController</text>
<polyline fill="none" stroke="black" points="672.276,-186.899 786.576,-186.899 "/>
<text text-anchor="start" x="680.276" y="-168.899" font-family="Times,serif" font-size="14.00">create</text>
<text text-anchor="start" x="680.276" y="-152.099" font-family="Times,serif" font-size="14.00">destroy</text>
<text text-anchor="start" x="680.276" y="-135.299" font-family="Times,serif" font-size="14.00">edit</text>
<text text-anchor="start" x="680.276" y="-118.499" font-family="Times,serif" font-size="14.00">index</text>
<text text-anchor="start" x="680.276" y="-101.699" font-family="Times,serif" font-size="14.00">new</text>
<text text-anchor="start" x="680.276" y="-84.899" font-family="Times,serif" font-size="14.00">show</text>
<text text-anchor="start" x="680.276" y="-68.099" font-family="Times,serif" font-size="14.00">update</text>
<polyline fill="none" stroke="black" points="672.276,-61.299 786.576,-61.299 "/>
<polyline fill="none" stroke="black" points="672.276,-37.299 786.576,-37.299 "/>
<text text-anchor="start" x="680.276" y="-19.299" font-family="Times,serif" font-size="14.00">_layout</text>
</g>
<!-- ApplicationController&#45;&gt;TargetsController -->
<g id="edge10" class="edge"><title>ApplicationController&#45;&gt;TargetsController</title>
<path fill="none" stroke="black" d="M486.005,-401.786C539.026,-338.688 618.568,-244.028 672.158,-180.251"/>
</g>
<!-- ThemesController -->
<g id="node13" class="node"><title>ThemesController</title>
<path fill="none" stroke="black" d="M165.585,-568.629C165.585,-568.629 259.447,-568.629 259.447,-568.629 265.447,-568.629 271.447,-574.629 271.447,-580.629 271.447,-580.629 271.447,-655.029 271.447,-655.029 271.447,-661.029 265.447,-667.029 259.447,-667.029 259.447,-667.029 165.585,-667.029 165.585,-667.029 159.585,-667.029 153.585,-661.029 153.585,-655.029 153.585,-655.029 153.585,-580.629 153.585,-580.629 153.585,-574.629 159.585,-568.629 165.585,-568.629"/>
<text text-anchor="middle" x="212.516" y="-649.029" font-family="Times,serif" font-size="14.00">ThemesController</text>
<polyline fill="none" stroke="black" points="153.585,-642.229 271.447,-642.229 "/>
<text text-anchor="start" x="161.585" y="-624.229" font-family="Times,serif" font-size="14.00">index</text>
<polyline fill="none" stroke="black" points="153.585,-617.429 271.447,-617.429 "/>
<polyline fill="none" stroke="black" points="153.585,-593.429 271.447,-593.429 "/>
<text text-anchor="start" x="161.585" y="-575.429" font-family="Times,serif" font-size="14.00">_layout</text>
</g>
<!-- ApplicationController&#45;&gt;ThemesController -->
<g id="edge11" class="edge"><title>ApplicationController&#45;&gt;ThemesController</title>
<path fill="none" stroke="black" d="M334.241,-534.081C312.915,-548.753 290.93,-563.879 271.611,-577.171"/>
</g>
</g>
</svg>
