<?xml version="1.0" encoding="UTF-8" standalone="no"?>
<!DOCTYPE svg PUBLIC "-//W3C//DTD SVG 1.1//EN"
 "http://www.w3.org/Graphics/SVG/1.1/DTD/svg11.dtd">
<!-- Generated by graphviz version 2.30.1 (20130311.0712)
 -->
<!-- Title: controllers_diagram Pages: 1 -->
<svg width="875pt" height="906pt"
 viewBox="0.00 0.00 875.38 905.73" xmlns="http://www.w3.org/2000/svg" xmlns:xlink="http://www.w3.org/1999/xlink">
<g id="graph0" class="graph" transform="scale(1 1) rotate(0) translate(4 901.735)">
<title>controllers_diagram</title>
<polygon fill="white" stroke="white" points="-4,5 -4,-901.735 872.375,-901.735 872.375,5 -4,5"/>
<!-- _diagram_info -->
<g id="node1" class="node"><title>_diagram_info</title>
<text text-anchor="start" x="668" y="-189" font-family="Times,serif" font-size="13.00">Controllers diagram</text>
<text text-anchor="start" x="668" y="-173.4" font-family="Times,serif" font-size="13.00">Date: Mar 15 2013 &#45; 09:01</text>
<text text-anchor="start" x="668" y="-157.8" font-family="Times,serif" font-size="13.00">Migration version: 20130314072432</text>
<text text-anchor="start" x="668" y="-142.2" font-family="Times,serif" font-size="13.00">Generated by RailRoady 1.1.0</text>
<text text-anchor="start" x="668" y="-126.6" font-family="Times,serif" font-size="13.00">http://railroady.prestonlee.com</text>
</g>
<!-- ApplicationController -->
<g id="node2" class="node"><title>ApplicationController</title>
<path fill="none" stroke="black" d="M233.14,-382.833C233.14,-382.833 411.775,-382.833 411.775,-382.833 417.775,-382.833 423.775,-388.833 423.775,-394.833 423.775,-394.833 423.775,-502.833 423.775,-502.833 423.775,-508.833 417.775,-514.833 411.775,-514.833 411.775,-514.833 233.14,-514.833 233.14,-514.833 227.14,-514.833 221.14,-508.833 221.14,-502.833 221.14,-502.833 221.14,-394.833 221.14,-394.833 221.14,-388.833 227.14,-382.833 233.14,-382.833"/>
<text text-anchor="middle" x="322.457" y="-496.833" font-family="Times,serif" font-size="14.00">ApplicationController</text>
<polyline fill="none" stroke="black" points="221.14,-490.033 423.775,-490.033 "/>
<text text-anchor="start" x="229.14" y="-472.033" font-family="Times,serif" font-size="14.00">_callback_before_53</text>
<text text-anchor="start" x="229.14" y="-455.233" font-family="Times,serif" font-size="14.00">_one_time_conditions_valid_52?</text>
<text text-anchor="start" x="229.14" y="-438.433" font-family="Times,serif" font-size="14.00">_one_time_conditions_valid_54?</text>
<polyline fill="none" stroke="black" points="221.14,-431.633 423.775,-431.633 "/>
<polyline fill="none" stroke="black" points="221.14,-407.633 423.775,-407.633 "/>
<text text-anchor="start" x="229.14" y="-389.633" font-family="Times,serif" font-size="14.00">_layout</text>
</g>
<!-- ArticlesController -->
<g id="node3" class="node"><title>ArticlesController</title>
<path fill="none" stroke="black" d="M525.683,-331.977C525.683,-331.977 619.546,-331.977 619.546,-331.977 625.546,-331.977 631.546,-337.977 631.546,-343.977 631.546,-343.977 631.546,-552.777 631.546,-552.777 631.546,-558.777 625.546,-564.777 619.546,-564.777 619.546,-564.777 525.683,-564.777 525.683,-564.777 519.683,-564.777 513.683,-558.777 513.683,-552.777 513.683,-552.777 513.683,-343.977 513.683,-343.977 513.683,-337.977 519.683,-331.977 525.683,-331.977"/>
<text text-anchor="middle" x="572.615" y="-546.777" font-family="Times,serif" font-size="14.00">ArticlesController</text>
<polyline fill="none" stroke="black" points="513.683,-539.977 631.546,-539.977 "/>
<text text-anchor="start" x="521.683" y="-521.977" font-family="Times,serif" font-size="14.00">concepts</text>
<text text-anchor="start" x="521.683" y="-505.177" font-family="Times,serif" font-size="14.00">create</text>
<text text-anchor="start" x="521.683" y="-488.377" font-family="Times,serif" font-size="14.00">destroy</text>
<text text-anchor="start" x="521.683" y="-471.577" font-family="Times,serif" font-size="14.00">edit</text>
<text text-anchor="start" x="521.683" y="-454.777" font-family="Times,serif" font-size="14.00">index</text>
<text text-anchor="start" x="521.683" y="-437.977" font-family="Times,serif" font-size="14.00">new</text>
<text text-anchor="start" x="521.683" y="-421.177" font-family="Times,serif" font-size="14.00">show</text>
<text text-anchor="start" x="521.683" y="-404.377" font-family="Times,serif" font-size="14.00">update</text>
<polyline fill="none" stroke="black" points="513.683,-397.577 631.546,-397.577 "/>
<polyline fill="none" stroke="black" points="513.683,-373.577 631.546,-373.577 "/>
<text text-anchor="start" x="521.683" y="-355.577" font-family="Times,serif" font-size="14.00">_layout</text>
<text text-anchor="start" x="521.683" y="-338.777" font-family="Times,serif" font-size="14.00">get_concepts</text>
</g>
<!-- ApplicationController&#45;&gt;ArticlesController -->
<g id="edge1" class="edge"><title>ApplicationController&#45;&gt;ArticlesController</title>
<path fill="none" stroke="black" d="M423.845,-448.648C454.318,-448.592 486.739,-448.533 513.51,-448.484"/>
</g>
<!-- ConceptsController -->
<g id="node4" class="node"><title>ConceptsController</title>
<path fill="none" stroke="black" d="M100.318,-0.5C100.318,-0.5 201.967,-0.5 201.967,-0.5 207.967,-0.5 213.967,-6.5 213.967,-12.5 213.967,-12.5 213.967,-187.7 213.967,-187.7 213.967,-193.7 207.967,-199.7 201.967,-199.7 201.967,-199.7 100.318,-199.7 100.318,-199.7 94.3184,-199.7 88.3184,-193.7 88.3184,-187.7 88.3184,-187.7 88.3184,-12.5 88.3184,-12.5 88.3184,-6.5 94.3184,-0.5 100.318,-0.5"/>
<text text-anchor="middle" x="151.143" y="-181.7" font-family="Times,serif" font-size="14.00">ConceptsController</text>
<polyline fill="none" stroke="black" points="88.3184,-174.9 213.967,-174.9 "/>
<text text-anchor="start" x="96.3184" y="-156.9" font-family="Times,serif" font-size="14.00">create</text>
<text text-anchor="start" x="96.3184" y="-140.1" font-family="Times,serif" font-size="14.00">destroy</text>
<text text-anchor="start" x="96.3184" y="-123.3" font-family="Times,serif" font-size="14.00">edit</text>
<text text-anchor="start" x="96.3184" y="-106.5" font-family="Times,serif" font-size="14.00">index</text>
<text text-anchor="start" x="96.3184" y="-89.7" font-family="Times,serif" font-size="14.00">new</text>
<text text-anchor="start" x="96.3184" y="-72.9" font-family="Times,serif" font-size="14.00">show</text>
<text text-anchor="start" x="96.3184" y="-56.1" font-family="Times,serif" font-size="14.00">update</text>
<polyline fill="none" stroke="black" points="88.3184,-49.3 213.967,-49.3 "/>
<polyline fill="none" stroke="black" points="88.3184,-25.3 213.967,-25.3 "/>
<text text-anchor="start" x="96.3184" y="-7.3" font-family="Times,serif" font-size="14.00">_layout</text>
</g>
<!-- ApplicationController&#45;&gt;ConceptsController -->
<g id="edge2" class="edge"><title>ApplicationController&#45;&gt;ConceptsController</title>
<path fill="none" stroke="black" d="M290.033,-382.829C264.666,-331.192 228.981,-258.549 200.134,-199.828"/>
</g>
<!-- DocumentsController -->
<g id="node5" class="node"><title>DocumentsController</title>
<path fill="none" stroke="black" d="M12,-473.248C12,-473.248 125.311,-473.248 125.311,-473.248 131.311,-473.248 137.311,-479.248 137.311,-485.248 137.311,-485.248 137.311,-660.448 137.311,-660.448 137.311,-666.448 131.311,-672.448 125.311,-672.448 125.311,-672.448 12,-672.448 12,-672.448 6,-672.448 2.84217e-14,-666.448 2.84217e-14,-660.448 2.84217e-14,-660.448 2.84217e-14,-485.248 2.84217e-14,-485.248 2.84217e-14,-479.248 6,-473.248 12,-473.248"/>
<text text-anchor="middle" x="68.6553" y="-654.448" font-family="Times,serif" font-size="14.00">DocumentsController</text>
<polyline fill="none" stroke="black" points="2.84217e-14,-647.648 137.311,-647.648 "/>
<text text-anchor="start" x="8" y="-629.648" font-family="Times,serif" font-size="14.00">create</text>
<text text-anchor="start" x="8" y="-612.848" font-family="Times,serif" font-size="14.00">destroy</text>
<text text-anchor="start" x="8" y="-596.048" font-family="Times,serif" font-size="14.00">edit</text>
<text text-anchor="start" x="8" y="-579.248" font-family="Times,serif" font-size="14.00">index</text>
<text text-anchor="start" x="8" y="-562.448" font-family="Times,serif" font-size="14.00">new</text>
<text text-anchor="start" x="8" y="-545.648" font-family="Times,serif" font-size="14.00">show</text>
<text text-anchor="start" x="8" y="-528.848" font-family="Times,serif" font-size="14.00">update</text>
<polyline fill="none" stroke="black" points="2.84217e-14,-522.048 137.311,-522.048 "/>
<polyline fill="none" stroke="black" points="2.84217e-14,-498.048 137.311,-498.048 "/>
<text text-anchor="start" x="8" y="-480.048" font-family="Times,serif" font-size="14.00">_layout</text>
</g>
<!-- ApplicationController&#45;&gt;DocumentsController -->
<g id="edge3" class="edge"><title>ApplicationController&#45;&gt;DocumentsController</title>
<path fill="none" stroke="black" d="M221.054,-498.381C193.025,-512.077 163.265,-526.619 137.553,-539.182"/>
</g>
<!-- SearchController -->
<g id="node6" class="node"><title>SearchController</title>
<path fill="none" stroke="black" d="M470.39,-713.134C470.39,-713.134 558.025,-713.134 558.025,-713.134 564.025,-713.134 570.025,-719.134 570.025,-725.134 570.025,-725.134 570.025,-799.534 570.025,-799.534 570.025,-805.534 564.025,-811.534 558.025,-811.534 558.025,-811.534 470.39,-811.534 470.39,-811.534 464.39,-811.534 458.39,-805.534 458.39,-799.534 458.39,-799.534 458.39,-725.134 458.39,-725.134 458.39,-719.134 464.39,-713.134 470.39,-713.134"/>
<text text-anchor="middle" x="514.208" y="-793.534" font-family="Times,serif" font-size="14.00">SearchController</text>
<polyline fill="none" stroke="black" points="458.39,-786.734 570.025,-786.734 "/>
<text text-anchor="start" x="466.39" y="-768.734" font-family="Times,serif" font-size="14.00">index</text>
<polyline fill="none" stroke="black" points="458.39,-761.934 570.025,-761.934 "/>
<polyline fill="none" stroke="black" points="458.39,-737.934 570.025,-737.934 "/>
<text text-anchor="start" x="466.39" y="-719.934" font-family="Times,serif" font-size="14.00">_layout</text>
</g>
<!-- ApplicationController&#45;&gt;SearchController -->
<g id="edge4" class="edge"><title>ApplicationController&#45;&gt;SearchController</title>
<path fill="none" stroke="black" d="M362.888,-514.935C399.038,-574.038 451.211,-659.337 483.888,-712.762"/>
</g>
<!-- SitesController -->
<g id="node7" class="node"><title>SitesController</title>
<path fill="none" stroke="black" d="M113.512,-698.035C113.512,-698.035 190.284,-698.035 190.284,-698.035 196.284,-698.035 202.284,-704.035 202.284,-710.035 202.284,-710.035 202.284,-885.235 202.284,-885.235 202.284,-891.235 196.284,-897.235 190.284,-897.235 190.284,-897.235 113.512,-897.235 113.512,-897.235 107.512,-897.235 101.512,-891.235 101.512,-885.235 101.512,-885.235 101.512,-710.035 101.512,-710.035 101.512,-704.035 107.512,-698.035 113.512,-698.035"/>
<text text-anchor="middle" x="151.898" y="-879.235" font-family="Times,serif" font-size="14.00">SitesController</text>
<polyline fill="none" stroke="black" points="101.512,-872.435 202.284,-872.435 "/>
<text text-anchor="start" x="109.512" y="-854.435" font-family="Times,serif" font-size="14.00">create</text>
<text text-anchor="start" x="109.512" y="-837.635" font-family="Times,serif" font-size="14.00">destroy</text>
<text text-anchor="start" x="109.512" y="-820.835" font-family="Times,serif" font-size="14.00">edit</text>
<text text-anchor="start" x="109.512" y="-804.035" font-family="Times,serif" font-size="14.00">index</text>
<text text-anchor="start" x="109.512" y="-787.235" font-family="Times,serif" font-size="14.00">new</text>
<text text-anchor="start" x="109.512" y="-770.435" font-family="Times,serif" font-size="14.00">show</text>
<text text-anchor="start" x="109.512" y="-753.635" font-family="Times,serif" font-size="14.00">update</text>
<polyline fill="none" stroke="black" points="101.512,-746.835 202.284,-746.835 "/>
<polyline fill="none" stroke="black" points="101.512,-722.835 202.284,-722.835 "/>
<text text-anchor="start" x="109.512" y="-704.835" font-family="Times,serif" font-size="14.00">_layout</text>
</g>
<!-- ApplicationController&#45;&gt;SitesController -->
<g id="edge5" class="edge"><title>ApplicationController&#45;&gt;SitesController</title>
<path fill="none" stroke="black" d="M290.176,-514.85C264.921,-566.497 229.393,-639.154 200.673,-697.887"/>
</g>
<!-- SpeciesController -->
<g id="node8" class="node"><title>SpeciesController</title>
<path fill="none" stroke="black" d="M22.7431,-226.454C22.7431,-226.454 115.054,-226.454 115.054,-226.454 121.054,-226.454 127.054,-232.454 127.054,-238.454 127.054,-238.454 127.054,-413.654 127.054,-413.654 127.054,-419.654 121.054,-425.654 115.054,-425.654 115.054,-425.654 22.7431,-425.654 22.7431,-425.654 16.7431,-425.654 10.7431,-419.654 10.7431,-413.654 10.7431,-413.654 10.7431,-238.454 10.7431,-238.454 10.7431,-232.454 16.7431,-226.454 22.7431,-226.454"/>
<text text-anchor="middle" x="68.8984" y="-407.654" font-family="Times,serif" font-size="14.00">SpeciesController</text>
<polyline fill="none" stroke="black" points="10.7431,-400.854 127.054,-400.854 "/>
<text text-anchor="start" x="18.7431" y="-382.854" font-family="Times,serif" font-size="14.00">create</text>
<text text-anchor="start" x="18.7431" y="-366.054" font-family="Times,serif" font-size="14.00">destroy</text>
<text text-anchor="start" x="18.7431" y="-349.254" font-family="Times,serif" font-size="14.00">edit</text>
<text text-anchor="start" x="18.7431" y="-332.454" font-family="Times,serif" font-size="14.00">index</text>
<text text-anchor="start" x="18.7431" y="-315.654" font-family="Times,serif" font-size="14.00">new</text>
<text text-anchor="start" x="18.7431" y="-298.854" font-family="Times,serif" font-size="14.00">show</text>
<text text-anchor="start" x="18.7431" y="-282.054" font-family="Times,serif" font-size="14.00">update</text>
<polyline fill="none" stroke="black" points="10.7431,-275.254 127.054,-275.254 "/>
<polyline fill="none" stroke="black" points="10.7431,-251.254 127.054,-251.254 "/>
<text text-anchor="start" x="18.7431" y="-233.254" font-family="Times,serif" font-size="14.00">_layout</text>
</g>
<!-- ApplicationController&#45;&gt;SpeciesController -->
<g id="edge6" class="edge"><title>ApplicationController&#45;&gt;SpeciesController</title>
<path fill="none" stroke="black" d="M220.786,-399.601C188.96,-384.19 154.934,-367.714 127.172,-354.271"/>
</g>
<!-- ThemesController -->
<g id="node9" class="node"><title>ThemesController</title>
<path fill="none" stroke="black" d="M466.894,-85.533C466.894,-85.533 560.756,-85.533 560.756,-85.533 566.756,-85.533 572.756,-91.533 572.756,-97.533 572.756,-97.533 572.756,-171.933 572.756,-171.933 572.756,-177.933 566.756,-183.933 560.756,-183.933 560.756,-183.933 466.894,-183.933 466.894,-183.933 460.894,-183.933 454.894,-177.933 454.894,-171.933 454.894,-171.933 454.894,-97.533 454.894,-97.533 454.894,-91.533 460.894,-85.533 466.894,-85.533"/>
<text text-anchor="middle" x="513.825" y="-165.933" font-family="Times,serif" font-size="14.00">ThemesController</text>
<polyline fill="none" stroke="black" points="454.894,-159.133 572.756,-159.133 "/>
<text text-anchor="start" x="462.894" y="-141.133" font-family="Times,serif" font-size="14.00">index</text>
<polyline fill="none" stroke="black" points="454.894,-134.333 572.756,-134.333 "/>
<polyline fill="none" stroke="black" points="454.894,-110.333 572.756,-110.333 "/>
<text text-anchor="start" x="462.894" y="-92.333" font-family="Times,serif" font-size="14.00">_layout</text>
</g>
<!-- ApplicationController&#45;&gt;ThemesController -->
<g id="edge7" class="edge"><title>ApplicationController&#45;&gt;ThemesController</title>
<path fill="none" stroke="black" d="M362.808,-382.604C398.885,-323.388 450.953,-237.926 483.565,-184.399"/>
</g>
</g>
</svg>
