<?xml version="1.0" encoding="UTF-8" standalone="no"?>
<!DOCTYPE svg PUBLIC "-//W3C//DTD SVG 1.1//EN"
 "http://www.w3.org/Graphics/SVG/1.1/DTD/svg11.dtd">
<!-- Generated by graphviz version 2.30.1 (20130311.0712)
 -->
<!-- Title: controllers_diagram Pages: 1 -->
<svg width="887pt" height="857pt"
 viewBox="0.00 0.00 886.90 856.66" xmlns="http://www.w3.org/2000/svg" xmlns:xlink="http://www.w3.org/1999/xlink">
<g id="graph0" class="graph" transform="scale(1 1) rotate(0) translate(4 852.656)">
<title>controllers_diagram</title>
<polygon fill="white" stroke="white" points="-4,5 -4,-852.656 883.899,-852.656 883.899,5 -4,5"/>
<!-- _diagram_info -->
<g id="node1" class="node"><title>_diagram_info</title>
<text text-anchor="start" x="680" y="-125" font-family="Times,serif" font-size="13.00">Controllers diagram</text>
<text text-anchor="start" x="680" y="-109.4" font-family="Times,serif" font-size="13.00">Date: Mar 21 2013 &#45; 08:49</text>
<text text-anchor="start" x="680" y="-93.8" font-family="Times,serif" font-size="13.00">Migration version: 20130320114215</text>
<text text-anchor="start" x="680" y="-78.2" font-family="Times,serif" font-size="13.00">Generated by RailRoady 1.1.0</text>
<text text-anchor="start" x="680" y="-62.6" font-family="Times,serif" font-size="13.00">http://railroady.prestonlee.com</text>
</g>
<!-- ActionsController -->
<g id="node2" class="node"><title>ActionsController</title>
<path fill="none" stroke="black" d="M20.9289,-439.756C20.9289,-439.756 114.026,-439.756 114.026,-439.756 120.026,-439.756 126.026,-445.756 126.026,-451.756 126.026,-451.756 126.026,-626.956 126.026,-626.956 126.026,-632.956 120.026,-638.956 114.026,-638.956 114.026,-638.956 20.9289,-638.956 20.9289,-638.956 14.9289,-638.956 8.92889,-632.956 8.92889,-626.956 8.92889,-626.956 8.92889,-451.756 8.92889,-451.756 8.92889,-445.756 14.9289,-439.756 20.9289,-439.756"/>
<text text-anchor="middle" x="67.4772" y="-620.956" font-family="Times,serif" font-size="14.00">ActionsController</text>
<polyline fill="none" stroke="black" points="8.92889,-614.156 126.026,-614.156 "/>
<text text-anchor="start" x="16.9289" y="-596.156" font-family="Times,serif" font-size="14.00">create</text>
<text text-anchor="start" x="16.9289" y="-579.356" font-family="Times,serif" font-size="14.00">destroy</text>
<text text-anchor="start" x="16.9289" y="-562.556" font-family="Times,serif" font-size="14.00">edit</text>
<text text-anchor="start" x="16.9289" y="-545.756" font-family="Times,serif" font-size="14.00">index</text>
<text text-anchor="start" x="16.9289" y="-528.956" font-family="Times,serif" font-size="14.00">new</text>
<text text-anchor="start" x="16.9289" y="-512.156" font-family="Times,serif" font-size="14.00">show</text>
<text text-anchor="start" x="16.9289" y="-495.356" font-family="Times,serif" font-size="14.00">update</text>
<polyline fill="none" stroke="black" points="8.92889,-488.556 126.026,-488.556 "/>
<polyline fill="none" stroke="black" points="8.92889,-464.556 126.026,-464.556 "/>
<text text-anchor="start" x="16.9289" y="-446.556" font-family="Times,serif" font-size="14.00">_layout</text>
</g>
<!-- ApplicationController -->
<g id="node3" class="node"><title>ApplicationController</title>
<path fill="none" stroke="black" d="M201.951,-343.957C201.951,-343.957 380.586,-343.957 380.586,-343.957 386.586,-343.957 392.586,-349.957 392.586,-355.957 392.586,-355.957 392.586,-463.957 392.586,-463.957 392.586,-469.957 386.586,-475.957 380.586,-475.957 380.586,-475.957 201.951,-475.957 201.951,-475.957 195.951,-475.957 189.951,-469.957 189.951,-463.957 189.951,-463.957 189.951,-355.957 189.951,-355.957 189.951,-349.957 195.951,-343.957 201.951,-343.957"/>
<text text-anchor="middle" x="291.268" y="-457.957" font-family="Times,serif" font-size="14.00">ApplicationController</text>
<polyline fill="none" stroke="black" points="189.951,-451.157 392.586,-451.157 "/>
<text text-anchor="start" x="197.951" y="-433.157" font-family="Times,serif" font-size="14.00">_callback_before_53</text>
<text text-anchor="start" x="197.951" y="-416.357" font-family="Times,serif" font-size="14.00">_one_time_conditions_valid_52?</text>
<text text-anchor="start" x="197.951" y="-399.557" font-family="Times,serif" font-size="14.00">_one_time_conditions_valid_54?</text>
<polyline fill="none" stroke="black" points="189.951,-392.757 392.586,-392.757 "/>
<polyline fill="none" stroke="black" points="189.951,-368.757 392.586,-368.757 "/>
<text text-anchor="start" x="197.951" y="-350.757" font-family="Times,serif" font-size="14.00">_layout</text>
</g>
<!-- ApplicationController&#45;&gt;ActionsController -->
<g id="edge1" class="edge"><title>ApplicationController&#45;&gt;ActionsController</title>
<path fill="none" stroke="black" d="M189.849,-468.599C167.992,-481.237 145.596,-494.187 126.038,-505.496"/>
</g>
<!-- ArticlesController -->
<g id="node4" class="node"><title>ArticlesController</title>
<path fill="none" stroke="black" d="M239.639,-8.14881C239.639,-8.14881 333.502,-8.14881 333.502,-8.14881 339.502,-8.14881 345.502,-14.1488 345.502,-20.1488 345.502,-20.1488 345.502,-228.949 345.502,-228.949 345.502,-234.949 339.502,-240.949 333.502,-240.949 333.502,-240.949 239.639,-240.949 239.639,-240.949 233.639,-240.949 227.639,-234.949 227.639,-228.949 227.639,-228.949 227.639,-20.1488 227.639,-20.1488 227.639,-14.1488 233.639,-8.14881 239.639,-8.14881"/>
<text text-anchor="middle" x="286.57" y="-222.949" font-family="Times,serif" font-size="14.00">ArticlesController</text>
<polyline fill="none" stroke="black" points="227.639,-216.149 345.502,-216.149 "/>
<text text-anchor="start" x="235.639" y="-198.149" font-family="Times,serif" font-size="14.00">concepts</text>
<text text-anchor="start" x="235.639" y="-181.349" font-family="Times,serif" font-size="14.00">create</text>
<text text-anchor="start" x="235.639" y="-164.549" font-family="Times,serif" font-size="14.00">destroy</text>
<text text-anchor="start" x="235.639" y="-147.749" font-family="Times,serif" font-size="14.00">edit</text>
<text text-anchor="start" x="235.639" y="-130.949" font-family="Times,serif" font-size="14.00">index</text>
<text text-anchor="start" x="235.639" y="-114.149" font-family="Times,serif" font-size="14.00">new</text>
<text text-anchor="start" x="235.639" y="-97.3488" font-family="Times,serif" font-size="14.00">show</text>
<text text-anchor="start" x="235.639" y="-80.5488" font-family="Times,serif" font-size="14.00">update</text>
<polyline fill="none" stroke="black" points="227.639,-73.7488 345.502,-73.7488 "/>
<polyline fill="none" stroke="black" points="227.639,-49.7488 345.502,-49.7488 "/>
<text text-anchor="start" x="235.639" y="-31.7488" font-family="Times,serif" font-size="14.00">_layout</text>
<text text-anchor="start" x="235.639" y="-14.9488" font-family="Times,serif" font-size="14.00">get_concepts</text>
</g>
<!-- ApplicationController&#45;&gt;ArticlesController -->
<g id="edge2" class="edge"><title>ApplicationController&#45;&gt;ArticlesController</title>
<path fill="none" stroke="black" d="M290.179,-343.762C289.676,-313.215 289.064,-276.028 288.488,-241.021"/>
</g>
<!-- ConceptsController -->
<g id="node5" class="node"><title>ConceptsController</title>
<path fill="none" stroke="black" d="M235.079,-616.925C235.079,-616.925 336.727,-616.925 336.727,-616.925 342.727,-616.925 348.727,-622.925 348.727,-628.925 348.727,-628.925 348.727,-804.125 348.727,-804.125 348.727,-810.125 342.727,-816.125 336.727,-816.125 336.727,-816.125 235.079,-816.125 235.079,-816.125 229.079,-816.125 223.079,-810.125 223.079,-804.125 223.079,-804.125 223.079,-628.925 223.079,-628.925 223.079,-622.925 229.079,-616.925 235.079,-616.925"/>
<text text-anchor="middle" x="285.903" y="-798.125" font-family="Times,serif" font-size="14.00">ConceptsController</text>
<polyline fill="none" stroke="black" points="223.079,-791.325 348.727,-791.325 "/>
<text text-anchor="start" x="231.079" y="-773.325" font-family="Times,serif" font-size="14.00">create</text>
<text text-anchor="start" x="231.079" y="-756.525" font-family="Times,serif" font-size="14.00">destroy</text>
<text text-anchor="start" x="231.079" y="-739.725" font-family="Times,serif" font-size="14.00">edit</text>
<text text-anchor="start" x="231.079" y="-722.925" font-family="Times,serif" font-size="14.00">index</text>
<text text-anchor="start" x="231.079" y="-706.125" font-family="Times,serif" font-size="14.00">new</text>
<text text-anchor="start" x="231.079" y="-689.325" font-family="Times,serif" font-size="14.00">show</text>
<text text-anchor="start" x="231.079" y="-672.525" font-family="Times,serif" font-size="14.00">update</text>
<polyline fill="none" stroke="black" points="223.079,-665.725 348.727,-665.725 "/>
<polyline fill="none" stroke="black" points="223.079,-641.725 348.727,-641.725 "/>
<text text-anchor="start" x="231.079" y="-623.725" font-family="Times,serif" font-size="14.00">_layout</text>
</g>
<!-- ApplicationController&#45;&gt;ConceptsController -->
<g id="edge3" class="edge"><title>ApplicationController&#45;&gt;ConceptsController</title>
<path fill="none" stroke="black" d="M290.111,-476.101C289.393,-517.113 288.457,-570.589 287.65,-616.691"/>
</g>
<!-- DocumentsController -->
<g id="node6" class="node"><title>DocumentsController</title>
<path fill="none" stroke="black" d="M440.448,-648.956C440.448,-648.956 553.759,-648.956 553.759,-648.956 559.759,-648.956 565.759,-654.956 565.759,-660.956 565.759,-660.956 565.759,-836.156 565.759,-836.156 565.759,-842.156 559.759,-848.156 553.759,-848.156 553.759,-848.156 440.448,-848.156 440.448,-848.156 434.448,-848.156 428.448,-842.156 428.448,-836.156 428.448,-836.156 428.448,-660.956 428.448,-660.956 428.448,-654.956 434.448,-648.956 440.448,-648.956"/>
<text text-anchor="middle" x="497.103" y="-830.156" font-family="Times,serif" font-size="14.00">DocumentsController</text>
<polyline fill="none" stroke="black" points="428.448,-823.356 565.759,-823.356 "/>
<text text-anchor="start" x="436.448" y="-805.356" font-family="Times,serif" font-size="14.00">create</text>
<text text-anchor="start" x="436.448" y="-788.556" font-family="Times,serif" font-size="14.00">destroy</text>
<text text-anchor="start" x="436.448" y="-771.756" font-family="Times,serif" font-size="14.00">edit</text>
<text text-anchor="start" x="436.448" y="-754.956" font-family="Times,serif" font-size="14.00">index</text>
<text text-anchor="start" x="436.448" y="-738.156" font-family="Times,serif" font-size="14.00">new</text>
<text text-anchor="start" x="436.448" y="-721.356" font-family="Times,serif" font-size="14.00">show</text>
<text text-anchor="start" x="436.448" y="-704.556" font-family="Times,serif" font-size="14.00">update</text>
<polyline fill="none" stroke="black" points="428.448,-697.756 565.759,-697.756 "/>
<polyline fill="none" stroke="black" points="428.448,-673.756 565.759,-673.756 "/>
<text text-anchor="start" x="436.448" y="-655.756" font-family="Times,serif" font-size="14.00">_layout</text>
</g>
<!-- ApplicationController&#45;&gt;DocumentsController -->
<g id="edge4" class="edge"><title>ApplicationController&#45;&gt;DocumentsController</title>
<path fill="none" stroke="black" d="M331.444,-476.047C361.336,-525.22 402.648,-593.177 436.538,-648.926"/>
</g>
<!-- SearchController -->
<g id="node7" class="node"><title>SearchController</title>
<path fill="none" stroke="black" d="M18.7646,-717.093C18.7646,-717.093 106.399,-717.093 106.399,-717.093 112.399,-717.093 118.399,-723.093 118.399,-729.093 118.399,-729.093 118.399,-820.293 118.399,-820.293 118.399,-826.293 112.399,-832.293 106.399,-832.293 106.399,-832.293 18.7646,-832.293 18.7646,-832.293 12.7646,-832.293 6.76465,-826.293 6.76465,-820.293 6.76465,-820.293 6.76465,-729.093 6.76465,-729.093 6.76465,-723.093 12.7646,-717.093 18.7646,-717.093"/>
<text text-anchor="middle" x="62.582" y="-814.293" font-family="Times,serif" font-size="14.00">SearchController</text>
<polyline fill="none" stroke="black" points="6.76465,-807.493 118.399,-807.493 "/>
<text text-anchor="start" x="14.7646" y="-789.493" font-family="Times,serif" font-size="14.00">index</text>
<polyline fill="none" stroke="black" points="6.76465,-782.693 118.399,-782.693 "/>
<polyline fill="none" stroke="black" points="6.76465,-758.693 118.399,-758.693 "/>
<text text-anchor="start" x="14.7646" y="-740.693" font-family="Times,serif" font-size="14.00">_layout</text>
<text text-anchor="start" x="14.7646" y="-723.893" font-family="Times,serif" font-size="14.00">convert_to_hash</text>
</g>
<!-- ApplicationController&#45;&gt;SearchController -->
<g id="edge5" class="edge"><title>ApplicationController&#45;&gt;SearchController</title>
<path fill="none" stroke="black" d="M249.855,-476.008C206.736,-544.779 139.87,-651.425 98.7914,-716.942"/>
</g>
<!-- SitesController -->
<g id="node8" class="node"><title>SitesController</title>
<path fill="none" stroke="black" d="M23.76,-230.215C23.76,-230.215 100.532,-230.215 100.532,-230.215 106.532,-230.215 112.532,-236.215 112.532,-242.215 112.532,-242.215 112.532,-417.415 112.532,-417.415 112.532,-423.415 106.532,-429.415 100.532,-429.415 100.532,-429.415 23.76,-429.415 23.76,-429.415 17.76,-429.415 11.76,-423.415 11.76,-417.415 11.76,-417.415 11.76,-242.215 11.76,-242.215 11.76,-236.215 17.76,-230.215 23.76,-230.215"/>
<text text-anchor="middle" x="62.1462" y="-411.415" font-family="Times,serif" font-size="14.00">SitesController</text>
<polyline fill="none" stroke="black" points="11.76,-404.615 112.532,-404.615 "/>
<text text-anchor="start" x="19.76" y="-386.615" font-family="Times,serif" font-size="14.00">create</text>
<text text-anchor="start" x="19.76" y="-369.815" font-family="Times,serif" font-size="14.00">destroy</text>
<text text-anchor="start" x="19.76" y="-353.015" font-family="Times,serif" font-size="14.00">edit</text>
<text text-anchor="start" x="19.76" y="-336.215" font-family="Times,serif" font-size="14.00">index</text>
<text text-anchor="start" x="19.76" y="-319.415" font-family="Times,serif" font-size="14.00">new</text>
<text text-anchor="start" x="19.76" y="-302.615" font-family="Times,serif" font-size="14.00">show</text>
<text text-anchor="start" x="19.76" y="-285.815" font-family="Times,serif" font-size="14.00">update</text>
<polyline fill="none" stroke="black" points="11.76,-279.015 112.532,-279.015 "/>
<polyline fill="none" stroke="black" points="11.76,-255.015 112.532,-255.015 "/>
<text text-anchor="start" x="19.76" y="-237.015" font-family="Times,serif" font-size="14.00">_layout</text>
</g>
<!-- ApplicationController&#45;&gt;SitesController -->
<g id="edge6" class="edge"><title>ApplicationController&#45;&gt;SitesController</title>
<path fill="none" stroke="black" d="M189.771,-374.456C163.078,-365.119 135.427,-355.447 112.716,-347.503"/>
</g>
<!-- SpeciesController -->
<g id="node9" class="node"><title>SpeciesController</title>
<path fill="none" stroke="black" d="M454.871,-356.73C454.871,-356.73 547.181,-356.73 547.181,-356.73 553.181,-356.73 559.181,-362.73 559.181,-368.73 559.181,-368.73 559.181,-543.93 559.181,-543.93 559.181,-549.93 553.181,-555.93 547.181,-555.93 547.181,-555.93 454.871,-555.93 454.871,-555.93 448.871,-555.93 442.871,-549.93 442.871,-543.93 442.871,-543.93 442.871,-368.73 442.871,-368.73 442.871,-362.73 448.871,-356.73 454.871,-356.73"/>
<text text-anchor="middle" x="501.026" y="-537.93" font-family="Times,serif" font-size="14.00">SpeciesController</text>
<polyline fill="none" stroke="black" points="442.871,-531.13 559.181,-531.13 "/>
<text text-anchor="start" x="450.871" y="-513.13" font-family="Times,serif" font-size="14.00">create</text>
<text text-anchor="start" x="450.871" y="-496.33" font-family="Times,serif" font-size="14.00">destroy</text>
<text text-anchor="start" x="450.871" y="-479.53" font-family="Times,serif" font-size="14.00">edit</text>
<text text-anchor="start" x="450.871" y="-462.73" font-family="Times,serif" font-size="14.00">index</text>
<text text-anchor="start" x="450.871" y="-445.93" font-family="Times,serif" font-size="14.00">new</text>
<text text-anchor="start" x="450.871" y="-429.13" font-family="Times,serif" font-size="14.00">show</text>
<text text-anchor="start" x="450.871" y="-412.33" font-family="Times,serif" font-size="14.00">update</text>
<polyline fill="none" stroke="black" points="442.871,-405.53 559.181,-405.53 "/>
<polyline fill="none" stroke="black" points="442.871,-381.53 559.181,-381.53 "/>
<text text-anchor="start" x="450.871" y="-363.53" font-family="Times,serif" font-size="14.00">_layout</text>
</g>
<!-- ApplicationController&#45;&gt;SpeciesController -->
<g id="edge7" class="edge"><title>ApplicationController&#45;&gt;SpeciesController</title>
<path fill="none" stroke="black" d="M392.768,-432.397C409.918,-436.188 427.188,-440.006 442.743,-443.445"/>
</g>
<!-- TargetsController -->
<g id="node10" class="node"><title>TargetsController</title>
<path fill="none" stroke="black" d="M12,-0.5C12,-0.5 102.301,-0.5 102.301,-0.5 108.301,-0.5 114.301,-6.5 114.301,-12.5 114.301,-12.5 114.301,-187.7 114.301,-187.7 114.301,-193.7 108.301,-199.7 102.301,-199.7 102.301,-199.7 12,-199.7 12,-199.7 6,-199.7 -2.84217e-14,-193.7 -2.84217e-14,-187.7 -2.84217e-14,-187.7 -2.84217e-14,-12.5 -2.84217e-14,-12.5 -2.84217e-14,-6.5 6,-0.5 12,-0.5"/>
<text text-anchor="middle" x="57.1504" y="-181.7" font-family="Times,serif" font-size="14.00">TargetsController</text>
<polyline fill="none" stroke="black" points="-2.84217e-14,-174.9 114.301,-174.9 "/>
<text text-anchor="start" x="8" y="-156.9" font-family="Times,serif" font-size="14.00">create</text>
<text text-anchor="start" x="8" y="-140.1" font-family="Times,serif" font-size="14.00">destroy</text>
<text text-anchor="start" x="8" y="-123.3" font-family="Times,serif" font-size="14.00">edit</text>
<text text-anchor="start" x="8" y="-106.5" font-family="Times,serif" font-size="14.00">index</text>
<text text-anchor="start" x="8" y="-89.7" font-family="Times,serif" font-size="14.00">new</text>
<text text-anchor="start" x="8" y="-72.9" font-family="Times,serif" font-size="14.00">show</text>
<text text-anchor="start" x="8" y="-56.1" font-family="Times,serif" font-size="14.00">update</text>
<polyline fill="none" stroke="black" points="-2.84217e-14,-49.3 114.301,-49.3 "/>
<polyline fill="none" stroke="black" points="-2.84217e-14,-25.3 114.301,-25.3 "/>
<text text-anchor="start" x="8" y="-7.3" font-family="Times,serif" font-size="14.00">_layout</text>
</g>
<!-- ApplicationController&#45;&gt;TargetsController -->
<g id="edge8" class="edge"><title>ApplicationController&#45;&gt;TargetsController</title>
<path fill="none" stroke="black" d="M241.331,-343.865C204.132,-294.632 153.274,-227.321 114.425,-175.904"/>
</g>
<!-- ThemesController -->
<g id="node11" class="node"><title>ThemesController</title>
<path fill="none" stroke="black" d="M455.814,-97.3179C455.814,-97.3179 549.677,-97.3179 549.677,-97.3179 555.677,-97.3179 561.677,-103.318 561.677,-109.318 561.677,-109.318 561.677,-183.718 561.677,-183.718 561.677,-189.718 555.677,-195.718 549.677,-195.718 549.677,-195.718 455.814,-195.718 455.814,-195.718 449.814,-195.718 443.814,-189.718 443.814,-183.718 443.814,-183.718 443.814,-109.318 443.814,-109.318 443.814,-103.318 449.814,-97.3179 455.814,-97.3179"/>
<text text-anchor="middle" x="502.746" y="-177.718" font-family="Times,serif" font-size="14.00">ThemesController</text>
<polyline fill="none" stroke="black" points="443.814,-170.918 561.677,-170.918 "/>
<text text-anchor="start" x="451.814" y="-152.918" font-family="Times,serif" font-size="14.00">index</text>
<polyline fill="none" stroke="black" points="443.814,-146.118 561.677,-146.118 "/>
<polyline fill="none" stroke="black" points="443.814,-122.118 561.677,-122.118 "/>
<text text-anchor="start" x="451.814" y="-104.118" font-family="Times,serif" font-size="14.00">_layout</text>
</g>
<!-- ApplicationController&#45;&gt;ThemesController -->
<g id="edge9" class="edge"><title>ApplicationController&#45;&gt;ThemesController</title>
<path fill="none" stroke="black" d="M344.36,-343.821C381.188,-297.944 429.454,-237.817 462.982,-196.051"/>
</g>
</g>
</svg>
