<?xml version="1.0" encoding="UTF-8" standalone="no"?>
<!DOCTYPE svg PUBLIC "-//W3C//DTD SVG 1.1//EN"
 "http://www.w3.org/Graphics/SVG/1.1/DTD/svg11.dtd">
<!-- Generated by graphviz version 2.30.1 (20130311.0712)
 -->
<!-- Title: models_diagram Pages: 1 -->
<svg width="522pt" height="310pt"
 viewBox="0.00 0.00 522.00 310.00" xmlns="http://www.w3.org/2000/svg" xmlns:xlink="http://www.w3.org/1999/xlink">
<g id="graph0" class="graph" transform="scale(1 1) rotate(0) translate(4 306)">
<title>models_diagram</title>
<polygon fill="white" stroke="white" points="-4,5 -4,-306 519,-306 519,5 -4,5"/>
<!-- _diagram_info -->
<g id="node1" class="node"><title>_diagram_info</title>
<text text-anchor="start" x="7.55029" y="-285" font-family="Times,serif" font-size="13.00">Models diagram</text>
<text text-anchor="start" x="7.55029" y="-269.4" font-family="Times,serif" font-size="13.00">Date: Mar 21 2013 &#45; 08:49</text>
<text text-anchor="start" x="7.55029" y="-253.8" font-family="Times,serif" font-size="13.00">Migration version: 20130320114215</text>
<text text-anchor="start" x="7.55029" y="-238.2" font-family="Times,serif" font-size="13.00">Generated by RailRoady 1.1.0</text>
<text text-anchor="start" x="7.55029" y="-222.6" font-family="Times,serif" font-size="13.00">http://railroady.prestonlee.com</text>
</g>
<!-- Action -->
<g id="node2" class="node"><title>Action</title>
<ellipse fill="none" stroke="black" cx="260" cy="-162" rx="36.9811" ry="18"/>
<text text-anchor="middle" x="260" y="-156.4" font-family="Times,serif" font-size="14.00">Action</text>
</g>
<!-- Article -->
<g id="node3" class="node"><title>Article</title>
<ellipse fill="none" stroke="black" cx="353" cy="-162" rx="37.2739" ry="18"/>
<text text-anchor="middle" x="353" y="-156.4" font-family="Times,serif" font-size="14.00">Article</text>
</g>
<!-- Concept -->
<g id="node4" class="node"><title>Concept</title>
<ellipse fill="none" stroke="black" cx="350" cy="-90" rx="43.3283" ry="18"/>
<text text-anchor="middle" x="350" y="-84.4" font-family="Times,serif" font-size="14.00">Concept</text>
</g>
<!-- Article&#45;&gt;Concept -->
<g id="edge1" class="edge"><title>Article&#45;&gt;Concept</title>
<path fill="none" stroke="#355f13" d="M351.829,-133.665C351.609,-128.552 351.38,-123.21 351.162,-118.104"/>
<polygon fill="#355f13" stroke="#355f13" points="351.83,-133.706 347.763,-143.889 352.044,-138.701 352.258,-143.697 352.258,-143.697 352.258,-143.697 352.044,-138.701 356.754,-143.504 351.83,-133.706 351.83,-133.706"/>
<polygon fill="#355f13" stroke="#355f13" points="351.161,-118.095 355.229,-107.912 350.947,-113.1 350.733,-108.104 350.733,-108.104 350.733,-108.104 350.947,-113.1 346.237,-108.297 351.161,-118.095 351.161,-118.095"/>
</g>
<!-- Theme -->
<g id="node9" class="node"><title>Theme</title>
<ellipse fill="none" stroke="black" cx="314" cy="-18" rx="37.2739" ry="18"/>
<text text-anchor="middle" x="314" y="-12.4" font-family="Times,serif" font-size="14.00">Theme</text>
</g>
<!-- Concept&#45;&gt;Theme -->
<g id="edge2" class="edge"><title>Concept&#45;&gt;Theme</title>
<path fill="none" stroke="#ca79b4" d="M336.629,-63.0016C333.559,-57.0308 330.295,-50.685 327.23,-44.7258"/>
<polygon fill="#ca79b4" stroke="#ca79b4" points="336.712,-63.1621 337.284,-74.113 338.999,-67.6085 341.285,-72.055 341.285,-72.055 341.285,-72.055 338.999,-67.6085 345.287,-69.9969 336.712,-63.1621 336.712,-63.1621"/>
<polygon fill="#ca79b4" stroke="#ca79b4" points="327.208,-44.6819 326.636,-33.7309 324.921,-40.2354 322.634,-35.789 322.634,-35.789 322.634,-35.789 324.921,-40.2354 318.633,-37.8471 327.208,-44.6819 327.208,-44.6819"/>
</g>
<!-- Document -->
<g id="node5" class="node"><title>Document</title>
<ellipse fill="none" stroke="black" cx="421" cy="-18" rx="50.8959" ry="18"/>
<text text-anchor="middle" x="421" y="-12.4" font-family="Times,serif" font-size="14.00">Document</text>
</g>
<!-- Concept&#45;&gt;Document -->
<g id="edge3" class="edge"><title>Concept&#45;&gt;Document</title>
<path fill="none" stroke="#1612c4" d="M373.509,-65.8225C381.109,-58.3287 389.541,-50.0155 397.166,-42.4986"/>
<polygon fill="#1612c4" stroke="#1612c4" points="373.232,-66.0951 362.952,-69.9114 369.672,-69.6055 366.111,-73.1159 366.111,-73.1159 366.111,-73.1159 369.672,-69.6055 369.27,-76.3204 373.232,-66.0951 373.232,-66.0951"/>
<polygon fill="#1612c4" stroke="#1612c4" points="397.339,-42.3278 407.619,-38.5115 400.9,-38.8174 404.46,-35.307 404.46,-35.307 404.46,-35.307 400.9,-38.8174 401.301,-32.1025 397.339,-42.3278 397.339,-42.3278"/>
</g>
<!-- Site -->
<g id="node6" class="node"><title>Site</title>
<ellipse fill="none" stroke="black" cx="388" cy="-259" rx="27" ry="18"/>
<text text-anchor="middle" x="388" y="-253.4" font-family="Times,serif" font-size="14.00">Site</text>
</g>
<!-- Site&#45;&gt;Article -->
<g id="edge4" class="edge"><title>Site&#45;&gt;Article</title>
<path fill="none" stroke="#5b15f8" d="M379.036,-233.668C374.054,-220.148 367.851,-203.311 362.749,-189.463"/>
<ellipse fill="none" stroke="#5b15f8" cx="380.521" cy="-237.699" rx="4.00001" ry="4.00001"/>
<polygon fill="#5b15f8" stroke="#5b15f8" points="362.719,-189.381 363.485,-178.442 360.991,-184.69 359.262,-179.998 359.262,-179.998 359.262,-179.998 360.991,-184.69 355.04,-181.554 362.719,-189.381 362.719,-189.381"/>
</g>
<!-- Site&#45;&gt;Document -->
<g id="edge5" class="edge"><title>Site&#45;&gt;Document</title>
<path fill="none" stroke="#a05509" d="M391.555,-232.986C393.723,-217.687 396.54,-197.715 399,-180 405.518,-133.053 412.956,-78.3837 417.299,-46.3481"/>
<ellipse fill="none" stroke="#a05509" cx="390.986" cy="-237.001" rx="4.00001" ry="4.00001"/>
<polygon fill="#a05509" stroke="#a05509" points="417.305,-46.3048 423.107,-36.9996 417.977,-41.3501 418.648,-36.3953 418.648,-36.3953 418.648,-36.3953 417.977,-41.3501 414.189,-35.7911 417.305,-46.3048 417.305,-46.3048"/>
</g>
<!-- Species -->
<g id="node7" class="node"><title>Species</title>
<ellipse fill="none" stroke="black" cx="474" cy="-259" rx="40.303" ry="18"/>
<text text-anchor="middle" x="474" y="-253.4" font-family="Times,serif" font-size="14.00">Species</text>
</g>
<!-- Target -->
<g id="node8" class="node"><title>Target</title>
<ellipse fill="none" stroke="black" cx="260" cy="-259" rx="35.0875" ry="18"/>
<text text-anchor="middle" x="260" y="-253.4" font-family="Times,serif" font-size="14.00">Target</text>
</g>
<!-- Target&#45;&gt;Action -->
<g id="edge6" class="edge"><title>Target&#45;&gt;Action</title>
<path fill="none" stroke="#873571" d="M260,-232.414C260,-219.518 260,-203.862 260,-190.685"/>
<ellipse fill="none" stroke="#873571" cx="260" cy="-236.576" rx="4" ry="4"/>
<polygon fill="#873571" stroke="#873571" points="260,-190.314 264.5,-180.314 260,-185.314 260,-180.314 260,-180.314 260,-180.314 260,-185.314 255.5,-180.314 260,-190.314 260,-190.314"/>
</g>
</g>
</svg>
