<?xml version="1.0" encoding="UTF-8" standalone="no"?>
<!DOCTYPE svg PUBLIC "-//W3C//DTD SVG 1.1//EN"
 "http://www.w3.org/Graphics/SVG/1.1/DTD/svg11.dtd">
<!-- Generated by graphviz version 2.30.1 (20130311.0712)
 -->
<!-- Title: models_diagram Pages: 1 -->
<svg width="386pt" height="310pt"
 viewBox="0.00 0.00 386.00 310.00" xmlns="http://www.w3.org/2000/svg" xmlns:xlink="http://www.w3.org/1999/xlink">
<g id="graph0" class="graph" transform="scale(1 1) rotate(0) translate(4 306)">
<title>models_diagram</title>
<polygon fill="white" stroke="white" points="-4,5 -4,-306 383,-306 383,5 -4,5"/>
<!-- _diagram_info -->
<g id="node1" class="node"><title>_diagram_info</title>
<text text-anchor="start" x="7.31226" y="-285" font-family="Times,serif" font-size="13.00">Models diagram</text>
<text text-anchor="start" x="7.31226" y="-269.4" font-family="Times,serif" font-size="13.00">Date: Mar 15 2013 &#45; 09:27</text>
<text text-anchor="start" x="7.31226" y="-253.8" font-family="Times,serif" font-size="13.00">Migration version: 20130315082446</text>
<text text-anchor="start" x="7.31226" y="-238.2" font-family="Times,serif" font-size="13.00">Generated by RailRoady 1.1.0</text>
<text text-anchor="start" x="7.31226" y="-222.6" font-family="Times,serif" font-size="13.00">http://railroady.prestonlee.com</text>
</g>
<!-- Article -->
<g id="node2" class="node"><title>Article</title>
<ellipse fill="none" stroke="black" cx="172" cy="-162" rx="37.2739" ry="18"/>
<text text-anchor="middle" x="172" y="-156.4" font-family="Times,serif" font-size="14.00">Article</text>
</g>
<!-- Concept -->
<g id="node3" class="node"><title>Concept</title>
<ellipse fill="none" stroke="black" cx="261" cy="-90" rx="43.3283" ry="18"/>
<text text-anchor="middle" x="261" y="-84.4" font-family="Times,serif" font-size="14.00">Concept</text>
</g>
<!-- Article&#45;&gt;Concept -->
<g id="edge1" class="edge"><title>Article&#45;&gt;Concept</title>
<path fill="none" stroke="#bb67a1" d="M199.014,-139.753C209.942,-131.158 222.542,-121.248 233.517,-112.616"/>
<polygon fill="#bb67a1" stroke="#bb67a1" points="198.735,-139.973 188.093,-142.618 194.805,-143.064 190.875,-146.155 190.875,-146.155 190.875,-146.155 194.805,-143.064 193.657,-149.692 198.735,-139.973 198.735,-139.973"/>
<polygon fill="#bb67a1" stroke="#bb67a1" points="233.677,-112.49 244.319,-109.845 237.607,-109.399 241.537,-106.308 241.537,-106.308 241.537,-106.308 237.607,-109.399 238.755,-102.771 233.677,-112.49 233.677,-112.49"/>
</g>
<!-- Document -->
<g id="node4" class="node"><title>Document</title>
<ellipse fill="none" stroke="black" cx="296" cy="-18" rx="50.8959" ry="18"/>
<text text-anchor="middle" x="296" y="-12.4" font-family="Times,serif" font-size="14.00">Document</text>
</g>
<!-- Concept&#45;&gt;Document -->
<g id="edge2" class="edge"><title>Concept&#45;&gt;Document</title>
<path fill="none" stroke="#5b79c7" d="M273.999,-63.0016C276.914,-57.173 280.007,-50.987 282.924,-45.1521"/>
<polygon fill="#5b79c7" stroke="#5b79c7" points="273.945,-63.1107 265.448,-70.0425 271.709,-67.5828 269.473,-72.055 269.473,-72.055 269.473,-72.055 271.709,-67.5828 273.497,-74.0674 273.945,-63.1107 273.945,-63.1107"/>
<polygon fill="#5b79c7" stroke="#5b79c7" points="283.133,-44.7333 291.63,-37.8015 285.369,-40.2611 287.605,-35.789 287.605,-35.789 287.605,-35.789 285.369,-40.2611 283.581,-33.7765 283.133,-44.7333 283.133,-44.7333"/>
</g>
<!-- Site -->
<g id="node5" class="node"><title>Site</title>
<ellipse fill="none" stroke="black" cx="252" cy="-259" rx="27" ry="18"/>
<text text-anchor="middle" x="252" y="-253.4" font-family="Times,serif" font-size="14.00">Site</text>
</g>
<!-- Site&#45;&gt;Article -->
<g id="edge3" class="edge"><title>Site&#45;&gt;Article</title>
<path fill="none" stroke="#a02883" d="M233.606,-236.157C221.178,-221.398 204.774,-201.919 192.018,-186.771"/>
<ellipse fill="none" stroke="#a02883" cx="236.57" cy="-239.677" rx="4.00002" ry="4.00002"/>
<polygon fill="#a02883" stroke="#a02883" points="191.796,-186.508 188.797,-175.96 188.576,-182.684 185.355,-178.859 185.355,-178.859 185.355,-178.859 188.576,-182.684 181.913,-181.758 191.796,-186.508 191.796,-186.508"/>
</g>
<!-- Site&#45;&gt;Document -->
<g id="edge4" class="edge"><title>Site&#45;&gt;Document</title>
<path fill="none" stroke="#52191b" d="M269.842,-236.283C286.702,-215.533 309.746,-186.479 312,-180 327.772,-134.663 320.42,-119.425 313,-72 311.62,-63.1765 309.02,-53.8161 306.262,-45.4564"/>
<ellipse fill="none" stroke="#52191b" cx="267.148" cy="-239.589" rx="4.00002" ry="4.00002"/>
<polygon fill="#52191b" stroke="#52191b" points="306.205,-45.2938 307.135,-34.3675 304.547,-40.5765 302.89,-35.8592 302.89,-35.8592 302.89,-35.8592 304.547,-40.5765 298.644,-37.351 306.205,-45.2938 306.205,-45.2938"/>
</g>
<!-- Species -->
<g id="node6" class="node"><title>Species</title>
<ellipse fill="none" stroke="black" cx="338" cy="-259" rx="40.303" ry="18"/>
<text text-anchor="middle" x="338" y="-253.4" font-family="Times,serif" font-size="14.00">Species</text>
</g>
<!-- Theme -->
<g id="node7" class="node"><title>Theme</title>
<ellipse fill="none" stroke="black" cx="266" cy="-162" rx="37.2739" ry="18"/>
<text text-anchor="middle" x="266" y="-156.4" font-family="Times,serif" font-size="14.00">Theme</text>
</g>
<!-- Theme&#45;&gt;Concept -->
<g id="edge5" class="edge"><title>Theme&#45;&gt;Concept</title>
<path fill="none" stroke="#75d768" d="M264.189,-135.64C263.79,-130.063 263.367,-124.132 262.963,-118.476"/>
<ellipse fill="none" stroke="#75d768" cx="264.479" cy="-139.707" rx="4" ry="4"/>
<polygon fill="#75d768" stroke="#75d768" points="262.934,-118.079 266.71,-107.784 262.578,-113.092 262.222,-108.104 262.222,-108.104 262.222,-108.104 262.578,-113.092 257.733,-108.425 262.934,-118.079 262.934,-118.079"/>
</g>
</g>
</svg>
