<?xml version="1.0" encoding="UTF-8" standalone="no"?>
<!DOCTYPE svg PUBLIC "-//W3C//DTD SVG 1.1//EN"
 "http://www.w3.org/Graphics/SVG/1.1/DTD/svg11.dtd">
<!-- Generated by graphviz version 2.30.1 (20130311.0712)
 -->
<!-- Title: models_diagram Pages: 1 -->
<svg width="785pt" height="872pt"
 viewBox="0.00 0.00 785.00 872.00" xmlns="http://www.w3.org/2000/svg" xmlns:xlink="http://www.w3.org/1999/xlink">
<g id="graph0" class="graph" transform="scale(1 1) rotate(0) translate(4 868)">
<title>models_diagram</title>
<polygon fill="white" stroke="white" points="-4,5 -4,-868 782,-868 782,5 -4,5"/>
<!-- _diagram_info -->
<g id="node1" class="node"><title>_diagram_info</title>
<text text-anchor="start" x="7.31226" y="-713" font-family="Times,serif" font-size="13.00">Models diagram</text>
<text text-anchor="start" x="7.31226" y="-697.4" font-family="Times,serif" font-size="13.00">Date: Mar 15 2013 &#45; 09:01</text>
<text text-anchor="start" x="7.31226" y="-681.8" font-family="Times,serif" font-size="13.00">Migration version: 20130314072432</text>
<text text-anchor="start" x="7.31226" y="-666.2" font-family="Times,serif" font-size="13.00">Generated by RailRoady 1.1.0</text>
<text text-anchor="start" x="7.31226" y="-650.6" font-family="Times,serif" font-size="13.00">http://railroady.prestonlee.com</text>
</g>
<!-- Article -->
<g id="node2" class="node"><title>Article</title>
<path fill="none" stroke="black" d="M215.901,-205C215.901,-205 366.099,-205 366.099,-205 372.099,-205 378.099,-211 378.099,-217 378.099,-217 378.099,-461 378.099,-461 378.099,-467 372.099,-473 366.099,-473 366.099,-473 215.901,-473 215.901,-473 209.901,-473 203.901,-467 203.901,-461 203.901,-461 203.901,-217 203.901,-217 203.901,-211 209.901,-205 215.901,-205"/>
<text text-anchor="middle" x="291" y="-455" font-family="Times,serif" font-size="14.00">Article</text>
<polyline fill="none" stroke="black" points="203.901,-448.2 378.099,-448.2 "/>
<text text-anchor="start" x="211.901" y="-430.2" font-family="Times,serif" font-size="14.00">id :integer</text>
<text text-anchor="start" x="211.901" y="-413.4" font-family="Times,serif" font-size="14.00">title :string</text>
<text text-anchor="start" x="211.901" y="-396.6" font-family="Times,serif" font-size="14.00">author :text</text>
<text text-anchor="start" x="211.901" y="-379.8" font-family="Times,serif" font-size="14.00">content :text</text>
<text text-anchor="start" x="211.901" y="-363" font-family="Times,serif" font-size="14.00">language :string</text>
<text text-anchor="start" x="211.901" y="-346.2" font-family="Times,serif" font-size="14.00">geographical_coverage :text</text>
<text text-anchor="start" x="211.901" y="-329.4" font-family="Times,serif" font-size="14.00">biographical_region :text</text>
<text text-anchor="start" x="211.901" y="-312.6" font-family="Times,serif" font-size="14.00">source_url :text</text>
<text text-anchor="start" x="211.901" y="-295.8" font-family="Times,serif" font-size="14.00">published_on :date</text>
<text text-anchor="start" x="211.901" y="-279" font-family="Times,serif" font-size="14.00">published :boolean</text>
<text text-anchor="start" x="211.901" y="-262.2" font-family="Times,serif" font-size="14.00">site_id :integer</text>
<text text-anchor="start" x="211.901" y="-245.4" font-family="Times,serif" font-size="14.00">concepts_id :integer</text>
<text text-anchor="start" x="211.901" y="-228.6" font-family="Times,serif" font-size="14.00">created_at :datetime</text>
<text text-anchor="start" x="211.901" y="-211.8" font-family="Times,serif" font-size="14.00">updated_at :datetime</text>
</g>
<!-- Concept -->
<g id="node3" class="node"><title>Concept</title>
<path fill="none" stroke="black" d="M150.495,-0.4C150.495,-0.4 259.505,-0.4 259.505,-0.4 265.505,-0.4 271.505,-6.4 271.505,-12.4 271.505,-12.4 271.505,-155.6 271.505,-155.6 271.505,-161.6 265.505,-167.6 259.505,-167.6 259.505,-167.6 150.495,-167.6 150.495,-167.6 144.495,-167.6 138.495,-161.6 138.495,-155.6 138.495,-155.6 138.495,-12.4 138.495,-12.4 138.495,-6.4 144.495,-0.4 150.495,-0.4"/>
<text text-anchor="middle" x="205" y="-149.6" font-family="Times,serif" font-size="14.00">Concept</text>
<polyline fill="none" stroke="black" points="138.495,-142.8 271.505,-142.8 "/>
<text text-anchor="start" x="146.495" y="-124.8" font-family="Times,serif" font-size="14.00">id :integer</text>
<text text-anchor="start" x="146.495" y="-108" font-family="Times,serif" font-size="14.00">title :string</text>
<text text-anchor="start" x="146.495" y="-91.2" font-family="Times,serif" font-size="14.00">parent :integer</text>
<text text-anchor="start" x="146.495" y="-74.4" font-family="Times,serif" font-size="14.00">definition :text</text>
<text text-anchor="start" x="146.495" y="-57.6" font-family="Times,serif" font-size="14.00">theme_id :integer</text>
<text text-anchor="start" x="146.495" y="-40.8" font-family="Times,serif" font-size="14.00">articles_id :integer</text>
<text text-anchor="start" x="146.495" y="-24" font-family="Times,serif" font-size="14.00">created_at :datetime</text>
<text text-anchor="start" x="146.495" y="-7.2" font-family="Times,serif" font-size="14.00">updated_at :datetime</text>
</g>
<!-- Article&#45;&gt;Concept -->
<g id="edge1" class="edge"><title>Article&#45;&gt;Concept</title>
<path fill="none" stroke="#4851d8" d="M242.425,-195.098C240.398,-189.136 238.388,-183.224 236.414,-177.415"/>
<polygon fill="#4851d8" stroke="#4851d8" points="242.515,-195.364 241.473,-206.28 244.124,-200.098 245.733,-204.832 245.733,-204.832 245.733,-204.832 244.124,-200.098 249.994,-203.384 242.515,-195.364 242.515,-195.364"/>
<polygon fill="#4851d8" stroke="#4851d8" points="236.345,-177.214 237.388,-166.298 234.736,-172.48 233.127,-167.746 233.127,-167.746 233.127,-167.746 234.736,-172.48 228.866,-169.194 236.345,-177.214 236.345,-177.214"/>
</g>
<!-- Document -->
<g id="node4" class="node"><title>Document</title>
<path fill="none" stroke="black" d="M387.901,-511C387.901,-511 538.099,-511 538.099,-511 544.099,-511 550.099,-517 550.099,-523 550.099,-523 550.099,-851 550.099,-851 550.099,-857 544.099,-863 538.099,-863 538.099,-863 387.901,-863 387.901,-863 381.901,-863 375.901,-857 375.901,-851 375.901,-851 375.901,-523 375.901,-523 375.901,-517 381.901,-511 387.901,-511"/>
<text text-anchor="middle" x="463" y="-845" font-family="Times,serif" font-size="14.00">Document</text>
<polyline fill="none" stroke="black" points="375.901,-838.2 550.099,-838.2 "/>
<text text-anchor="start" x="383.901" y="-820.2" font-family="Times,serif" font-size="14.00">id :integer</text>
<text text-anchor="start" x="383.901" y="-803.4" font-family="Times,serif" font-size="14.00">title :string</text>
<text text-anchor="start" x="383.901" y="-786.6" font-family="Times,serif" font-size="14.00">author :string</text>
<text text-anchor="start" x="383.901" y="-769.8" font-family="Times,serif" font-size="14.00">description :string</text>
<text text-anchor="start" x="383.901" y="-753" font-family="Times,serif" font-size="14.00">language :string</text>
<text text-anchor="start" x="383.901" y="-736.2" font-family="Times,serif" font-size="14.00">geographical_coverage :text</text>
<text text-anchor="start" x="383.901" y="-719.4" font-family="Times,serif" font-size="14.00">biographical_region :text</text>
<text text-anchor="start" x="383.901" y="-702.6" font-family="Times,serif" font-size="14.00">source_url :string</text>
<text text-anchor="start" x="383.901" y="-685.8" font-family="Times,serif" font-size="14.00">published_on :date</text>
<text text-anchor="start" x="383.901" y="-669" font-family="Times,serif" font-size="14.00">published :boolean</text>
<text text-anchor="start" x="383.901" y="-652.2" font-family="Times,serif" font-size="14.00">downloads :integer</text>
<text text-anchor="start" x="383.901" y="-635.4" font-family="Times,serif" font-size="14.00">file :string</text>
<text text-anchor="start" x="383.901" y="-618.6" font-family="Times,serif" font-size="14.00">content_type :string</text>
<text text-anchor="start" x="383.901" y="-601.8" font-family="Times,serif" font-size="14.00">file_size :float</text>
<text text-anchor="start" x="383.901" y="-585" font-family="Times,serif" font-size="14.00">md5hash :string</text>
<text text-anchor="start" x="383.901" y="-568.2" font-family="Times,serif" font-size="14.00">site_id :integer</text>
<text text-anchor="start" x="383.901" y="-551.4" font-family="Times,serif" font-size="14.00">theme_id :integer</text>
<text text-anchor="start" x="383.901" y="-534.6" font-family="Times,serif" font-size="14.00">created_at :datetime</text>
<text text-anchor="start" x="383.901" y="-517.8" font-family="Times,serif" font-size="14.00">updated_at :datetime</text>
</g>
<!-- Site -->
<g id="node5" class="node"><title>Site</title>
<path fill="none" stroke="black" d="M236.495,-611.8C236.495,-611.8 345.505,-611.8 345.505,-611.8 351.505,-611.8 357.505,-617.8 357.505,-623.8 357.505,-623.8 357.505,-750.2 357.505,-750.2 357.505,-756.2 351.505,-762.2 345.505,-762.2 345.505,-762.2 236.495,-762.2 236.495,-762.2 230.495,-762.2 224.495,-756.2 224.495,-750.2 224.495,-750.2 224.495,-623.8 224.495,-623.8 224.495,-617.8 230.495,-611.8 236.495,-611.8"/>
<text text-anchor="middle" x="291" y="-744.2" font-family="Times,serif" font-size="14.00">Site</text>
<polyline fill="none" stroke="black" points="224.495,-737.4 357.505,-737.4 "/>
<text text-anchor="start" x="232.495" y="-719.4" font-family="Times,serif" font-size="14.00">id :integer</text>
<text text-anchor="start" x="232.495" y="-702.6" font-family="Times,serif" font-size="14.00">name :string</text>
<text text-anchor="start" x="232.495" y="-685.8" font-family="Times,serif" font-size="14.00">origin_url :string</text>
<text text-anchor="start" x="232.495" y="-669" font-family="Times,serif" font-size="14.00">description :string</text>
<text text-anchor="start" x="232.495" y="-652.2" font-family="Times,serif" font-size="14.00">articles_id :integer</text>
<text text-anchor="start" x="232.495" y="-635.4" font-family="Times,serif" font-size="14.00">created_at :datetime</text>
<text text-anchor="start" x="232.495" y="-618.6" font-family="Times,serif" font-size="14.00">updated_at :datetime</text>
</g>
<!-- Site&#45;&gt;Article -->
<g id="edge2" class="edge"><title>Site&#45;&gt;Article</title>
<path fill="none" stroke="#f6602e" d="M291,-603.586C291,-567.553 291,-524.217 291,-483.188"/>
<ellipse fill="none" stroke="#f6602e" cx="291" cy="-607.774" rx="4" ry="4"/>
<polygon fill="#f6602e" stroke="#f6602e" points="291,-483.091 295.5,-473.091 291,-478.091 291,-473.091 291,-473.091 291,-473.091 291,-478.091 286.5,-473.091 291,-483.091 291,-483.091"/>
</g>
<!-- Species -->
<g id="node6" class="node"><title>Species</title>
<path fill="none" stroke="black" d="M580.377,-527.8C580.377,-527.8 765.623,-527.8 765.623,-527.8 771.623,-527.8 777.623,-533.8 777.623,-539.8 777.623,-539.8 777.623,-834.2 777.623,-834.2 777.623,-840.2 771.623,-846.2 765.623,-846.2 765.623,-846.2 580.377,-846.2 580.377,-846.2 574.377,-846.2 568.377,-840.2 568.377,-834.2 568.377,-834.2 568.377,-539.8 568.377,-539.8 568.377,-533.8 574.377,-527.8 580.377,-527.8"/>
<text text-anchor="middle" x="673" y="-828.2" font-family="Times,serif" font-size="14.00">Species</text>
<polyline fill="none" stroke="black" points="568.377,-821.4 777.623,-821.4 "/>
<text text-anchor="start" x="576.377" y="-803.4" font-family="Times,serif" font-size="14.00">id :integer</text>
<text text-anchor="start" x="576.377" y="-786.6" font-family="Times,serif" font-size="14.00">species_code :integer</text>
<text text-anchor="start" x="576.377" y="-769.8" font-family="Times,serif" font-size="14.00">binomial_name :string</text>
<text text-anchor="start" x="576.377" y="-753" font-family="Times,serif" font-size="14.00">valid_name :string</text>
<text text-anchor="start" x="576.377" y="-736.2" font-family="Times,serif" font-size="14.00">eunis_primary_name :string</text>
<text text-anchor="start" x="576.377" y="-719.4" font-family="Times,serif" font-size="14.00">synonym_for :string</text>
<text text-anchor="start" x="576.377" y="-702.6" font-family="Times,serif" font-size="14.00">taxonomic_rank :string</text>
<text text-anchor="start" x="576.377" y="-685.8" font-family="Times,serif" font-size="14.00">taxonomy :string</text>
<text text-anchor="start" x="576.377" y="-669" font-family="Times,serif" font-size="14.00">scientific_name_authorship :string</text>
<text text-anchor="start" x="576.377" y="-652.2" font-family="Times,serif" font-size="14.00">scientific_name :string</text>
<text text-anchor="start" x="576.377" y="-635.4" font-family="Times,serif" font-size="14.00">label :string</text>
<text text-anchor="start" x="576.377" y="-618.6" font-family="Times,serif" font-size="14.00">genus :string</text>
<text text-anchor="start" x="576.377" y="-601.8" font-family="Times,serif" font-size="14.00">species_group :string</text>
<text text-anchor="start" x="576.377" y="-585" font-family="Times,serif" font-size="14.00">name_according_to_ID :string</text>
<text text-anchor="start" x="576.377" y="-568.2" font-family="Times,serif" font-size="14.00">ignore_on_match :boolean</text>
<text text-anchor="start" x="576.377" y="-551.4" font-family="Times,serif" font-size="14.00">created_at :datetime</text>
<text text-anchor="start" x="576.377" y="-534.6" font-family="Times,serif" font-size="14.00">updated_at :datetime</text>
</g>
<!-- Theme -->
<g id="node7" class="node"><title>Theme</title>
<path fill="none" stroke="black" d="M64.4946,-272.2C64.4946,-272.2 173.505,-272.2 173.505,-272.2 179.505,-272.2 185.505,-278.2 185.505,-284.2 185.505,-284.2 185.505,-393.8 185.505,-393.8 185.505,-399.8 179.505,-405.8 173.505,-405.8 173.505,-405.8 64.4946,-405.8 64.4946,-405.8 58.4946,-405.8 52.4946,-399.8 52.4946,-393.8 52.4946,-393.8 52.4946,-284.2 52.4946,-284.2 52.4946,-278.2 58.4946,-272.2 64.4946,-272.2"/>
<text text-anchor="middle" x="119" y="-387.8" font-family="Times,serif" font-size="14.00">Theme</text>
<polyline fill="none" stroke="black" points="52.4946,-381 185.505,-381 "/>
<text text-anchor="start" x="60.4946" y="-363" font-family="Times,serif" font-size="14.00">id :integer</text>
<text text-anchor="start" x="60.4946" y="-346.2" font-family="Times,serif" font-size="14.00">title :string</text>
<text text-anchor="start" x="60.4946" y="-329.4" font-family="Times,serif" font-size="14.00">concepts_id :integer</text>
<text text-anchor="start" x="60.4946" y="-312.6" font-family="Times,serif" font-size="14.00">articles_id :integer</text>
<text text-anchor="start" x="60.4946" y="-295.8" font-family="Times,serif" font-size="14.00">created_at :datetime</text>
<text text-anchor="start" x="60.4946" y="-279" font-family="Times,serif" font-size="14.00">updated_at :datetime</text>
</g>
<!-- Theme&#45;&gt;Concept -->
<g id="edge3" class="edge"><title>Theme&#45;&gt;Concept</title>
<path fill="none" stroke="#54db5b" d="M143.954,-264.589C153.217,-237.337 163.846,-206.07 173.611,-177.343"/>
<ellipse fill="none" stroke="#54db5b" cx="142.658" cy="-268.4" rx="4.00001" ry="4.00001"/>
<polygon fill="#54db5b" stroke="#54db5b" points="173.668,-177.176 181.147,-169.156 175.277,-172.442 176.886,-167.708 176.886,-167.708 176.886,-167.708 175.277,-172.442 172.625,-166.259 173.668,-177.176 173.668,-177.176"/>
</g>
</g>
</svg>
