<?xml version="1.0" encoding="UTF-8" standalone="no"?>
<!DOCTYPE svg PUBLIC "-//W3C//DTD SVG 1.1//EN"
 "http://www.w3.org/Graphics/SVG/1.1/DTD/svg11.dtd">
<!-- Generated by graphviz version 2.30.1 (20130311.0712)
 -->
<!-- Title: models_diagram Pages: 1 -->
<svg width="506pt" height="238pt"
 viewBox="0.00 0.00 506.00 238.00" xmlns="http://www.w3.org/2000/svg" xmlns:xlink="http://www.w3.org/1999/xlink">
<g id="graph0" class="graph" transform="scale(1 1) rotate(0) translate(4 234)">
<title>models_diagram</title>
<polygon fill="white" stroke="white" points="-4,5 -4,-234 503,-234 503,5 -4,5"/>
<!-- _diagram_info -->
<g id="node1" class="node"><title>_diagram_info</title>
<text text-anchor="start" x="7.31226" y="-213" font-family="Times,serif" font-size="13.00">Models diagram</text>
<text text-anchor="start" x="7.31226" y="-197.4" font-family="Times,serif" font-size="13.00">Date: Mar 15 2013 &#45; 09:01</text>
<text text-anchor="start" x="7.31226" y="-181.8" font-family="Times,serif" font-size="13.00">Migration version: 20130314072432</text>
<text text-anchor="start" x="7.31226" y="-166.2" font-family="Times,serif" font-size="13.00">Generated by RailRoady 1.1.0</text>
<text text-anchor="start" x="7.31226" y="-150.6" font-family="Times,serif" font-size="13.00">http://railroady.prestonlee.com</text>
</g>
<!-- Article -->
<g id="node2" class="node"><title>Article</title>
<ellipse fill="none" stroke="black" cx="252" cy="-90" rx="37.2739" ry="18"/>
<text text-anchor="middle" x="252" y="-84.4" font-family="Times,serif" font-size="14.00">Article</text>
</g>
<!-- Concept -->
<g id="node3" class="node"><title>Concept</title>
<ellipse fill="none" stroke="black" cx="205" cy="-18" rx="43.3283" ry="18"/>
<text text-anchor="middle" x="205" y="-12.4" font-family="Times,serif" font-size="14.00">Concept</text>
</g>
<!-- Article&#45;&gt;Concept -->
<g id="edge1" class="edge"><title>Article&#45;&gt;Concept</title>
<path fill="none" stroke="#33b194" d="M235.499,-64.4244C231.101,-57.8734 226.342,-50.7863 221.921,-44.2022"/>
<polygon fill="#33b194" stroke="#33b194" points="235.525,-64.4624 237.363,-75.2731 238.312,-68.6135 241.099,-72.7646 241.099,-72.7646 241.099,-72.7646 238.312,-68.6135 244.835,-70.2562 235.525,-64.4624 235.525,-64.4624"/>
<polygon fill="#33b194" stroke="#33b194" points="221.743,-43.9356 219.904,-33.1249 218.955,-39.7845 216.168,-35.6334 216.168,-35.6334 216.168,-35.6334 218.955,-39.7845 212.432,-38.1419 221.743,-43.9356 221.743,-43.9356"/>
</g>
<!-- Document -->
<g id="node4" class="node"><title>Document</title>
<ellipse fill="none" stroke="black" cx="348" cy="-187" rx="50.8959" ry="18"/>
<text text-anchor="middle" x="348" y="-181.4" font-family="Times,serif" font-size="14.00">Document</text>
</g>
<!-- Site -->
<g id="node5" class="node"><title>Site</title>
<ellipse fill="none" stroke="black" cx="252" cy="-187" rx="27" ry="18"/>
<text text-anchor="middle" x="252" y="-181.4" font-family="Times,serif" font-size="14.00">Site</text>
</g>
<!-- Site&#45;&gt;Article -->
<g id="edge2" class="edge"><title>Site&#45;&gt;Article</title>
<path fill="none" stroke="#0f2114" d="M252,-160.414C252,-147.518 252,-131.862 252,-118.685"/>
<ellipse fill="none" stroke="#0f2114" cx="252" cy="-164.576" rx="4" ry="4"/>
<polygon fill="#0f2114" stroke="#0f2114" points="252,-118.314 256.5,-108.314 252,-113.314 252,-108.314 252,-108.314 252,-108.314 252,-113.314 247.5,-108.314 252,-118.314 252,-118.314"/>
</g>
<!-- Species -->
<g id="node6" class="node"><title>Species</title>
<ellipse fill="none" stroke="black" cx="458" cy="-187" rx="40.303" ry="18"/>
<text text-anchor="middle" x="458" y="-181.4" font-family="Times,serif" font-size="14.00">Species</text>
</g>
<!-- Theme -->
<g id="node7" class="node"><title>Theme</title>
<ellipse fill="none" stroke="black" cx="158" cy="-90" rx="37.2739" ry="18"/>
<text text-anchor="middle" x="158" y="-84.4" font-family="Times,serif" font-size="14.00">Theme</text>
</g>
<!-- Theme&#45;&gt;Concept -->
<g id="edge3" class="edge"><title>Theme&#45;&gt;Concept</title>
<path fill="none" stroke="#1abd5b" d="M173.528,-65.8736C178.194,-58.9236 183.336,-51.265 188.088,-44.1885"/>
<ellipse fill="none" stroke="#1abd5b" cx="171.131" cy="-69.4438" rx="4.00002" ry="4.00002"/>
<polygon fill="#1abd5b" stroke="#1abd5b" points="188.257,-43.9356 197.568,-38.1419 191.045,-39.7845 193.832,-35.6334 193.832,-35.6334 193.832,-35.6334 191.045,-39.7845 190.096,-33.1249 188.257,-43.9356 188.257,-43.9356"/>
</g>
</g>
</svg>
