<?xml version="1.0" encoding="UTF-8" standalone="no"?>
<!DOCTYPE svg PUBLIC "-//W3C//DTD SVG 1.1//EN"
 "http://www.w3.org/Graphics/SVG/1.1/DTD/svg11.dtd">
<!-- Generated by graphviz version 2.30.1 (20130311.0712)
 -->
<!-- Title: models_diagram Pages: 1 -->
<svg width="567pt" height="310pt"
 viewBox="0.00 0.00 567.00 310.00" xmlns="http://www.w3.org/2000/svg" xmlns:xlink="http://www.w3.org/1999/xlink">
<g id="graph0" class="graph" transform="scale(1 1) rotate(0) translate(4 306)">
<title>models_diagram</title>
<polygon fill="white" stroke="white" points="-4,5 -4,-306 564,-306 564,5 -4,5"/>
<!-- _diagram_info -->
<g id="node1" class="node"><title>_diagram_info</title>
<text text-anchor="start" x="7.55029" y="-285" font-family="Times,serif" font-size="13.00">Models diagram</text>
<text text-anchor="start" x="7.55029" y="-269.4" font-family="Times,serif" font-size="13.00">Date: Mar 20 2013 &#45; 13:20</text>
<text text-anchor="start" x="7.55029" y="-253.8" font-family="Times,serif" font-size="13.00">Migration version: 20130320114215</text>
<text text-anchor="start" x="7.55029" y="-238.2" font-family="Times,serif" font-size="13.00">Generated by RailRoady 1.1.0</text>
<text text-anchor="start" x="7.55029" y="-222.6" font-family="Times,serif" font-size="13.00">http://railroady.prestonlee.com</text>
</g>
<!-- Action -->
<g id="node2" class="node"><title>Action</title>
<ellipse fill="none" stroke="black" cx="260" cy="-162" rx="36.9811" ry="18"/>
<text text-anchor="middle" x="260" y="-156.4" font-family="Times,serif" font-size="14.00">Action</text>
</g>
<!-- Article -->
<g id="node3" class="node"><title>Article</title>
<ellipse fill="none" stroke="black" cx="353" cy="-162" rx="37.2739" ry="18"/>
<text text-anchor="middle" x="353" y="-156.4" font-family="Times,serif" font-size="14.00">Article</text>
</g>
<!-- Concept -->
<g id="node4" class="node"><title>Concept</title>
<ellipse fill="none" stroke="black" cx="442" cy="-90" rx="43.3283" ry="18"/>
<text text-anchor="middle" x="442" y="-84.4" font-family="Times,serif" font-size="14.00">Concept</text>
</g>
<!-- Article&#45;&gt;Concept -->
<g id="edge1" class="edge"><title>Article&#45;&gt;Concept</title>
<path fill="none" stroke="#9f2ee6" d="M380.014,-139.753C390.942,-131.158 403.542,-121.248 414.517,-112.616"/>
<polygon fill="#9f2ee6" stroke="#9f2ee6" points="379.735,-139.973 369.093,-142.618 375.805,-143.064 371.875,-146.155 371.875,-146.155 371.875,-146.155 375.805,-143.064 374.657,-149.692 379.735,-139.973 379.735,-139.973"/>
<polygon fill="#9f2ee6" stroke="#9f2ee6" points="414.677,-112.49 425.319,-109.845 418.607,-109.399 422.537,-106.308 422.537,-106.308 422.537,-106.308 418.607,-109.399 419.755,-102.771 414.677,-112.49 414.677,-112.49"/>
</g>
<!-- Document -->
<g id="node5" class="node"><title>Document</title>
<ellipse fill="none" stroke="black" cx="477" cy="-18" rx="50.8959" ry="18"/>
<text text-anchor="middle" x="477" y="-12.4" font-family="Times,serif" font-size="14.00">Document</text>
</g>
<!-- Concept&#45;&gt;Document -->
<g id="edge2" class="edge"><title>Concept&#45;&gt;Document</title>
<path fill="none" stroke="#b360df" d="M454.999,-63.0016C457.914,-57.173 461.007,-50.987 463.924,-45.1521"/>
<polygon fill="#b360df" stroke="#b360df" points="454.945,-63.1107 446.448,-70.0425 452.709,-67.5828 450.473,-72.055 450.473,-72.055 450.473,-72.055 452.709,-67.5828 454.497,-74.0674 454.945,-63.1107 454.945,-63.1107"/>
<polygon fill="#b360df" stroke="#b360df" points="464.133,-44.7333 472.63,-37.8015 466.369,-40.2611 468.605,-35.789 468.605,-35.789 468.605,-35.789 466.369,-40.2611 464.581,-33.7765 464.133,-44.7333 464.133,-44.7333"/>
</g>
<!-- Site -->
<g id="node6" class="node"><title>Site</title>
<ellipse fill="none" stroke="black" cx="433" cy="-259" rx="27" ry="18"/>
<text text-anchor="middle" x="433" y="-253.4" font-family="Times,serif" font-size="14.00">Site</text>
</g>
<!-- Site&#45;&gt;Article -->
<g id="edge3" class="edge"><title>Site&#45;&gt;Article</title>
<path fill="none" stroke="#cc6cc2" d="M414.606,-236.157C402.178,-221.398 385.774,-201.919 373.018,-186.771"/>
<ellipse fill="none" stroke="#cc6cc2" cx="417.57" cy="-239.677" rx="4.00002" ry="4.00002"/>
<polygon fill="#cc6cc2" stroke="#cc6cc2" points="372.796,-186.508 369.797,-175.96 369.576,-182.684 366.355,-178.859 366.355,-178.859 366.355,-178.859 369.576,-182.684 362.913,-181.758 372.796,-186.508 372.796,-186.508"/>
</g>
<!-- Site&#45;&gt;Document -->
<g id="edge4" class="edge"><title>Site&#45;&gt;Document</title>
<path fill="none" stroke="#81b6c8" d="M450.842,-236.283C467.702,-215.533 490.746,-186.479 493,-180 508.772,-134.663 501.42,-119.425 494,-72 492.62,-63.1765 490.02,-53.8161 487.262,-45.4564"/>
<ellipse fill="none" stroke="#81b6c8" cx="448.148" cy="-239.589" rx="4.00002" ry="4.00002"/>
<polygon fill="#81b6c8" stroke="#81b6c8" points="487.205,-45.2938 488.135,-34.3675 485.547,-40.5765 483.89,-35.8592 483.89,-35.8592 483.89,-35.8592 485.547,-40.5765 479.644,-37.351 487.205,-45.2938 487.205,-45.2938"/>
</g>
<!-- Species -->
<g id="node7" class="node"><title>Species</title>
<ellipse fill="none" stroke="black" cx="519" cy="-259" rx="40.303" ry="18"/>
<text text-anchor="middle" x="519" y="-253.4" font-family="Times,serif" font-size="14.00">Species</text>
</g>
<!-- Target -->
<g id="node8" class="node"><title>Target</title>
<ellipse fill="none" stroke="black" cx="260" cy="-259" rx="35.0875" ry="18"/>
<text text-anchor="middle" x="260" y="-253.4" font-family="Times,serif" font-size="14.00">Target</text>
</g>
<!-- Target&#45;&gt;Action -->
<g id="edge5" class="edge"><title>Target&#45;&gt;Action</title>
<path fill="none" stroke="#0c8de3" d="M260,-232.414C260,-219.518 260,-203.862 260,-190.685"/>
<ellipse fill="none" stroke="#0c8de3" cx="260" cy="-236.576" rx="4" ry="4"/>
<polygon fill="#0c8de3" stroke="#0c8de3" points="260,-190.314 264.5,-180.314 260,-185.314 260,-180.314 260,-180.314 260,-180.314 260,-185.314 255.5,-180.314 260,-190.314 260,-190.314"/>
</g>
<!-- Theme -->
<g id="node9" class="node"><title>Theme</title>
<ellipse fill="none" stroke="black" cx="447" cy="-162" rx="37.2739" ry="18"/>
<text text-anchor="middle" x="447" y="-156.4" font-family="Times,serif" font-size="14.00">Theme</text>
</g>
<!-- Theme&#45;&gt;Concept -->
<g id="edge6" class="edge"><title>Theme&#45;&gt;Concept</title>
<path fill="none" stroke="#540eb9" d="M445.189,-135.64C444.79,-130.063 444.367,-124.132 443.963,-118.476"/>
<ellipse fill="none" stroke="#540eb9" cx="445.479" cy="-139.707" rx="4" ry="4"/>
<polygon fill="#540eb9" stroke="#540eb9" points="443.934,-118.079 447.71,-107.784 443.578,-113.092 443.222,-108.104 443.222,-108.104 443.222,-108.104 443.578,-113.092 438.733,-108.425 443.934,-118.079 443.934,-118.079"/>
</g>
</g>
</svg>
