<?xml version="1.0" encoding="UTF-8" standalone="no"?>
<!DOCTYPE svg PUBLIC "-//W3C//DTD SVG 1.1//EN"
 "http://www.w3.org/Graphics/SVG/1.1/DTD/svg11.dtd">
<!-- Generated by graphviz version 2.30.1 (20130311.0712)
 -->
<!-- Title: models_diagram Pages: 1 -->
<svg width="822pt" height="1228pt"
 viewBox="0.00 0.00 822.00 1228.00" xmlns="http://www.w3.org/2000/svg" xmlns:xlink="http://www.w3.org/1999/xlink">
<g id="graph0" class="graph" transform="scale(1 1) rotate(0) translate(4 1224)">
<title>models_diagram</title>
<polygon fill="white" stroke="white" points="-4,5 -4,-1224 819,-1224 819,5 -4,5"/>
<!-- _diagram_info -->
<g id="node1" class="node"><title>_diagram_info</title>
<text text-anchor="start" x="7.55029" y="-1086" font-family="Times,serif" font-size="13.00">Models diagram</text>
<text text-anchor="start" x="7.55029" y="-1070.4" font-family="Times,serif" font-size="13.00">Date: Mar 21 2013 &#45; 08:48</text>
<text text-anchor="start" x="7.55029" y="-1054.8" font-family="Times,serif" font-size="13.00">Migration version: 20130320114215</text>
<text text-anchor="start" x="7.55029" y="-1039.2" font-family="Times,serif" font-size="13.00">Generated by RailRoady 1.1.0</text>
<text text-anchor="start" x="7.55029" y="-1023.6" font-family="Times,serif" font-size="13.00">http://railroady.prestonlee.com</text>
</g>
<!-- Action -->
<g id="node2" class="node"><title>Action</title>
<path fill="none" stroke="black" d="M236.495,-662.2C236.495,-662.2 345.505,-662.2 345.505,-662.2 351.505,-662.2 357.505,-668.2 357.505,-674.2 357.505,-674.2 357.505,-783.8 357.505,-783.8 357.505,-789.8 351.505,-795.8 345.505,-795.8 345.505,-795.8 236.495,-795.8 236.495,-795.8 230.495,-795.8 224.495,-789.8 224.495,-783.8 224.495,-783.8 224.495,-674.2 224.495,-674.2 224.495,-668.2 230.495,-662.2 236.495,-662.2"/>
<text text-anchor="middle" x="291" y="-777.8" font-family="Times,serif" font-size="14.00">Action</text>
<polyline fill="none" stroke="black" points="224.495,-771 357.505,-771 "/>
<text text-anchor="start" x="232.495" y="-753" font-family="Times,serif" font-size="14.00">id :integer</text>
<text text-anchor="start" x="232.495" y="-736.2" font-family="Times,serif" font-size="14.00">title :string</text>
<text text-anchor="start" x="232.495" y="-719.4" font-family="Times,serif" font-size="14.00">short_desc :string</text>
<text text-anchor="start" x="232.495" y="-702.6" font-family="Times,serif" font-size="14.00">target_id :integer</text>
<text text-anchor="start" x="232.495" y="-685.8" font-family="Times,serif" font-size="14.00">created_at :datetime</text>
<text text-anchor="start" x="232.495" y="-669" font-family="Times,serif" font-size="14.00">updated_at :datetime</text>
</g>
<!-- Article -->
<g id="node3" class="node"><title>Article</title>
<path fill="none" stroke="black" d="M387.901,-595C387.901,-595 538.099,-595 538.099,-595 544.099,-595 550.099,-601 550.099,-607 550.099,-607 550.099,-851 550.099,-851 550.099,-857 544.099,-863 538.099,-863 538.099,-863 387.901,-863 387.901,-863 381.901,-863 375.901,-857 375.901,-851 375.901,-851 375.901,-607 375.901,-607 375.901,-601 381.901,-595 387.901,-595"/>
<text text-anchor="middle" x="463" y="-845" font-family="Times,serif" font-size="14.00">Article</text>
<polyline fill="none" stroke="black" points="375.901,-838.2 550.099,-838.2 "/>
<text text-anchor="start" x="383.901" y="-820.2" font-family="Times,serif" font-size="14.00">id :integer</text>
<text text-anchor="start" x="383.901" y="-803.4" font-family="Times,serif" font-size="14.00">title :string</text>
<text text-anchor="start" x="383.901" y="-786.6" font-family="Times,serif" font-size="14.00">author :text</text>
<text text-anchor="start" x="383.901" y="-769.8" font-family="Times,serif" font-size="14.00">content :text</text>
<text text-anchor="start" x="383.901" y="-753" font-family="Times,serif" font-size="14.00">language :string</text>
<text text-anchor="start" x="383.901" y="-736.2" font-family="Times,serif" font-size="14.00">geographical_coverage :text</text>
<text text-anchor="start" x="383.901" y="-719.4" font-family="Times,serif" font-size="14.00">biographical_region :text</text>
<text text-anchor="start" x="383.901" y="-702.6" font-family="Times,serif" font-size="14.00">source_url :text</text>
<text text-anchor="start" x="383.901" y="-685.8" font-family="Times,serif" font-size="14.00">published_on :date</text>
<text text-anchor="start" x="383.901" y="-669" font-family="Times,serif" font-size="14.00">published :boolean</text>
<text text-anchor="start" x="383.901" y="-652.2" font-family="Times,serif" font-size="14.00">site_id :integer</text>
<text text-anchor="start" x="383.901" y="-635.4" font-family="Times,serif" font-size="14.00">concepts_id :integer</text>
<text text-anchor="start" x="383.901" y="-618.6" font-family="Times,serif" font-size="14.00">created_at :datetime</text>
<text text-anchor="start" x="383.901" y="-601.8" font-family="Times,serif" font-size="14.00">updated_at :datetime</text>
</g>
<!-- Concept -->
<g id="node4" class="node"><title>Concept</title>
<path fill="none" stroke="black" d="M408.495,-390.4C408.495,-390.4 517.505,-390.4 517.505,-390.4 523.505,-390.4 529.505,-396.4 529.505,-402.4 529.505,-402.4 529.505,-545.6 529.505,-545.6 529.505,-551.6 523.505,-557.6 517.505,-557.6 517.505,-557.6 408.495,-557.6 408.495,-557.6 402.495,-557.6 396.495,-551.6 396.495,-545.6 396.495,-545.6 396.495,-402.4 396.495,-402.4 396.495,-396.4 402.495,-390.4 408.495,-390.4"/>
<text text-anchor="middle" x="463" y="-539.6" font-family="Times,serif" font-size="14.00">Concept</text>
<polyline fill="none" stroke="black" points="396.495,-532.8 529.505,-532.8 "/>
<text text-anchor="start" x="404.495" y="-514.8" font-family="Times,serif" font-size="14.00">id :integer</text>
<text text-anchor="start" x="404.495" y="-498" font-family="Times,serif" font-size="14.00">title :string</text>
<text text-anchor="start" x="404.495" y="-481.2" font-family="Times,serif" font-size="14.00">parent :integer</text>
<text text-anchor="start" x="404.495" y="-464.4" font-family="Times,serif" font-size="14.00">definition :text</text>
<text text-anchor="start" x="404.495" y="-447.6" font-family="Times,serif" font-size="14.00">themes_id :integer</text>
<text text-anchor="start" x="404.495" y="-430.8" font-family="Times,serif" font-size="14.00">articles_id :integer</text>
<text text-anchor="start" x="404.495" y="-414" font-family="Times,serif" font-size="14.00">created_at :datetime</text>
<text text-anchor="start" x="404.495" y="-397.2" font-family="Times,serif" font-size="14.00">updated_at :datetime</text>
</g>
<!-- Article&#45;&gt;Concept -->
<g id="edge1" class="edge"><title>Article&#45;&gt;Concept</title>
<path fill="none" stroke="#eaed7a" d="M463,-584.805C463,-579.195 463,-573.629 463,-568.153"/>
<polygon fill="#eaed7a" stroke="#eaed7a" points="463,-584.832 458.5,-594.832 463,-589.832 463,-594.832 463,-594.832 463,-594.832 463,-589.832 467.5,-594.832 463,-584.832 463,-584.832"/>
<polygon fill="#eaed7a" stroke="#eaed7a" points="463,-567.746 467.5,-557.746 463,-562.746 463,-557.746 463,-557.746 463,-557.746 463,-562.746 458.5,-557.746 463,-567.746 463,-567.746"/>
</g>
<!-- Theme -->
<g id="node9" class="node"><title>Theme</title>
<path fill="none" stroke="black" d="M351.495,-118.6C351.495,-118.6 460.505,-118.6 460.505,-118.6 466.505,-118.6 472.505,-124.6 472.505,-130.6 472.505,-130.6 472.505,-223.4 472.505,-223.4 472.505,-229.4 466.505,-235.4 460.505,-235.4 460.505,-235.4 351.495,-235.4 351.495,-235.4 345.495,-235.4 339.495,-229.4 339.495,-223.4 339.495,-223.4 339.495,-130.6 339.495,-130.6 339.495,-124.6 345.495,-118.6 351.495,-118.6"/>
<text text-anchor="middle" x="406" y="-217.4" font-family="Times,serif" font-size="14.00">Theme</text>
<polyline fill="none" stroke="black" points="339.495,-210.6 472.505,-210.6 "/>
<text text-anchor="start" x="347.495" y="-192.6" font-family="Times,serif" font-size="14.00">id :integer</text>
<text text-anchor="start" x="347.495" y="-175.8" font-family="Times,serif" font-size="14.00">title :string</text>
<text text-anchor="start" x="347.495" y="-159" font-family="Times,serif" font-size="14.00">concepts_id :integer</text>
<text text-anchor="start" x="347.495" y="-142.2" font-family="Times,serif" font-size="14.00">created_at :datetime</text>
<text text-anchor="start" x="347.495" y="-125.4" font-family="Times,serif" font-size="14.00">updated_at :datetime</text>
</g>
<!-- Concept&#45;&gt;Theme -->
<g id="edge2" class="edge"><title>Concept&#45;&gt;Theme</title>
<path fill="none" stroke="#2c8a3c" d="M445.046,-380.08C436.613,-336.436 426.746,-285.37 419.041,-245.491"/>
<polygon fill="#2c8a3c" stroke="#2c8a3c" points="445.073,-380.223 442.552,-390.895 446.022,-385.132 446.971,-390.041 446.971,-390.041 446.971,-390.041 446.022,-385.132 451.389,-389.187 445.073,-380.223 445.073,-380.223"/>
<polygon fill="#2c8a3c" stroke="#2c8a3c" points="419.028,-245.424 421.549,-234.752 418.079,-240.515 417.131,-235.605 417.131,-235.605 417.131,-235.605 418.079,-240.515 412.712,-236.459 419.028,-245.424 419.028,-245.424"/>
</g>
<!-- Document -->
<g id="node5" class="node"><title>Document</title>
<path fill="none" stroke="black" d="M502.901,-1C502.901,-1 653.099,-1 653.099,-1 659.099,-1 665.099,-7 665.099,-13 665.099,-13 665.099,-341 665.099,-341 665.099,-347 659.099,-353 653.099,-353 653.099,-353 502.901,-353 502.901,-353 496.901,-353 490.901,-347 490.901,-341 490.901,-341 490.901,-13 490.901,-13 490.901,-7 496.901,-1 502.901,-1"/>
<text text-anchor="middle" x="578" y="-335" font-family="Times,serif" font-size="14.00">Document</text>
<polyline fill="none" stroke="black" points="490.901,-328.2 665.099,-328.2 "/>
<text text-anchor="start" x="498.901" y="-310.2" font-family="Times,serif" font-size="14.00">id :integer</text>
<text text-anchor="start" x="498.901" y="-293.4" font-family="Times,serif" font-size="14.00">title :string</text>
<text text-anchor="start" x="498.901" y="-276.6" font-family="Times,serif" font-size="14.00">author :string</text>
<text text-anchor="start" x="498.901" y="-259.8" font-family="Times,serif" font-size="14.00">description :string</text>
<text text-anchor="start" x="498.901" y="-243" font-family="Times,serif" font-size="14.00">language :string</text>
<text text-anchor="start" x="498.901" y="-226.2" font-family="Times,serif" font-size="14.00">geographical_coverage :text</text>
<text text-anchor="start" x="498.901" y="-209.4" font-family="Times,serif" font-size="14.00">biographical_region :text</text>
<text text-anchor="start" x="498.901" y="-192.6" font-family="Times,serif" font-size="14.00">source_url :string</text>
<text text-anchor="start" x="498.901" y="-175.8" font-family="Times,serif" font-size="14.00">published_on :date</text>
<text text-anchor="start" x="498.901" y="-159" font-family="Times,serif" font-size="14.00">published :boolean</text>
<text text-anchor="start" x="498.901" y="-142.2" font-family="Times,serif" font-size="14.00">downloads :integer</text>
<text text-anchor="start" x="498.901" y="-125.4" font-family="Times,serif" font-size="14.00">file :string</text>
<text text-anchor="start" x="498.901" y="-108.6" font-family="Times,serif" font-size="14.00">content_type :string</text>
<text text-anchor="start" x="498.901" y="-91.8" font-family="Times,serif" font-size="14.00">file_size :float</text>
<text text-anchor="start" x="498.901" y="-75" font-family="Times,serif" font-size="14.00">md5hash :string</text>
<text text-anchor="start" x="498.901" y="-58.2" font-family="Times,serif" font-size="14.00">site_id :integer</text>
<text text-anchor="start" x="498.901" y="-41.4" font-family="Times,serif" font-size="14.00">theme_id :integer</text>
<text text-anchor="start" x="498.901" y="-24.6" font-family="Times,serif" font-size="14.00">created_at :datetime</text>
<text text-anchor="start" x="498.901" y="-7.8" font-family="Times,serif" font-size="14.00">updated_at :datetime</text>
</g>
<!-- Concept&#45;&gt;Document -->
<g id="edge3" class="edge"><title>Concept&#45;&gt;Document</title>
<path fill="none" stroke="#c347ac" d="M499.046,-380.534C501.318,-374.706 503.642,-368.744 506.001,-362.693"/>
<polygon fill="#c347ac" stroke="#c347ac" points="498.972,-380.724 491.147,-388.407 497.156,-385.382 495.34,-390.041 495.34,-390.041 495.34,-390.041 497.156,-385.382 499.533,-391.675 498.972,-380.724 498.972,-380.724"/>
<polygon fill="#c347ac" stroke="#c347ac" points="506.102,-362.434 513.927,-354.751 507.918,-357.775 509.734,-353.117 509.734,-353.117 509.734,-353.117 507.918,-357.775 505.541,-351.482 506.102,-362.434 506.102,-362.434"/>
</g>
<!-- Site -->
<g id="node6" class="node"><title>Site</title>
<path fill="none" stroke="black" d="M466.495,-984.8C466.495,-984.8 575.505,-984.8 575.505,-984.8 581.505,-984.8 587.505,-990.8 587.505,-996.8 587.505,-996.8 587.505,-1123.2 587.505,-1123.2 587.505,-1129.2 581.505,-1135.2 575.505,-1135.2 575.505,-1135.2 466.495,-1135.2 466.495,-1135.2 460.495,-1135.2 454.495,-1129.2 454.495,-1123.2 454.495,-1123.2 454.495,-996.8 454.495,-996.8 454.495,-990.8 460.495,-984.8 466.495,-984.8"/>
<text text-anchor="middle" x="521" y="-1117.2" font-family="Times,serif" font-size="14.00">Site</text>
<polyline fill="none" stroke="black" points="454.495,-1110.4 587.505,-1110.4 "/>
<text text-anchor="start" x="462.495" y="-1092.4" font-family="Times,serif" font-size="14.00">id :integer</text>
<text text-anchor="start" x="462.495" y="-1075.6" font-family="Times,serif" font-size="14.00">name :string</text>
<text text-anchor="start" x="462.495" y="-1058.8" font-family="Times,serif" font-size="14.00">origin_url :string</text>
<text text-anchor="start" x="462.495" y="-1042" font-family="Times,serif" font-size="14.00">description :string</text>
<text text-anchor="start" x="462.495" y="-1025.2" font-family="Times,serif" font-size="14.00">articles_id :integer</text>
<text text-anchor="start" x="462.495" y="-1008.4" font-family="Times,serif" font-size="14.00">created_at :datetime</text>
<text text-anchor="start" x="462.495" y="-991.6" font-family="Times,serif" font-size="14.00">updated_at :datetime</text>
</g>
<!-- Site&#45;&gt;Article -->
<g id="edge4" class="edge"><title>Site&#45;&gt;Article</title>
<path fill="none" stroke="#0c91c4" d="M506.478,-976.626C500.945,-945.242 494.467,-908.494 488.226,-873.091"/>
<ellipse fill="none" stroke="#0c91c4" cx="507.217" cy="-980.816" rx="4.00001" ry="4.00001"/>
<polygon fill="#0c91c4" stroke="#0c91c4" points="488.209,-872.995 490.904,-862.365 487.341,-868.071 486.473,-863.147 486.473,-863.147 486.473,-863.147 487.341,-868.071 482.041,-863.928 488.209,-872.995 488.209,-872.995"/>
</g>
<!-- Site&#45;&gt;Document -->
<g id="edge5" class="edge"><title>Site&#45;&gt;Document</title>
<path fill="none" stroke="#b429b7" d="M540.251,-976.261C547.462,-941.753 554.896,-901.133 559,-864 577.658,-695.181 581.428,-501.653 581.105,-363.286"/>
<ellipse fill="none" stroke="#b429b7" cx="539.35" cy="-980.524" rx="4.00001" ry="4.00001"/>
<polygon fill="#b429b7" stroke="#b429b7" points="581.105,-363.003 585.574,-352.989 581.089,-358.003 581.074,-353.003 581.074,-353.003 581.074,-353.003 581.089,-358.003 576.574,-353.017 581.105,-363.003 581.105,-363.003"/>
</g>
<!-- Species -->
<g id="node7" class="node"><title>Species</title>
<path fill="none" stroke="black" d="M617.377,-900.8C617.377,-900.8 802.623,-900.8 802.623,-900.8 808.623,-900.8 814.623,-906.8 814.623,-912.8 814.623,-912.8 814.623,-1207.2 814.623,-1207.2 814.623,-1213.2 808.623,-1219.2 802.623,-1219.2 802.623,-1219.2 617.377,-1219.2 617.377,-1219.2 611.377,-1219.2 605.377,-1213.2 605.377,-1207.2 605.377,-1207.2 605.377,-912.8 605.377,-912.8 605.377,-906.8 611.377,-900.8 617.377,-900.8"/>
<text text-anchor="middle" x="710" y="-1201.2" font-family="Times,serif" font-size="14.00">Species</text>
<polyline fill="none" stroke="black" points="605.377,-1194.4 814.623,-1194.4 "/>
<text text-anchor="start" x="613.377" y="-1176.4" font-family="Times,serif" font-size="14.00">id :integer</text>
<text text-anchor="start" x="613.377" y="-1159.6" font-family="Times,serif" font-size="14.00">species_code :integer</text>
<text text-anchor="start" x="613.377" y="-1142.8" font-family="Times,serif" font-size="14.00">binomial_name :string</text>
<text text-anchor="start" x="613.377" y="-1126" font-family="Times,serif" font-size="14.00">valid_name :string</text>
<text text-anchor="start" x="613.377" y="-1109.2" font-family="Times,serif" font-size="14.00">eunis_primary_name :string</text>
<text text-anchor="start" x="613.377" y="-1092.4" font-family="Times,serif" font-size="14.00">synonym_for :string</text>
<text text-anchor="start" x="613.377" y="-1075.6" font-family="Times,serif" font-size="14.00">taxonomic_rank :string</text>
<text text-anchor="start" x="613.377" y="-1058.8" font-family="Times,serif" font-size="14.00">taxonomy :string</text>
<text text-anchor="start" x="613.377" y="-1042" font-family="Times,serif" font-size="14.00">scientific_name_authorship :string</text>
<text text-anchor="start" x="613.377" y="-1025.2" font-family="Times,serif" font-size="14.00">scientific_name :string</text>
<text text-anchor="start" x="613.377" y="-1008.4" font-family="Times,serif" font-size="14.00">label :string</text>
<text text-anchor="start" x="613.377" y="-991.6" font-family="Times,serif" font-size="14.00">genus :string</text>
<text text-anchor="start" x="613.377" y="-974.8" font-family="Times,serif" font-size="14.00">species_group :string</text>
<text text-anchor="start" x="613.377" y="-958" font-family="Times,serif" font-size="14.00">name_according_to_ID :string</text>
<text text-anchor="start" x="613.377" y="-941.2" font-family="Times,serif" font-size="14.00">ignore_on_match :boolean</text>
<text text-anchor="start" x="613.377" y="-924.4" font-family="Times,serif" font-size="14.00">created_at :datetime</text>
<text text-anchor="start" x="613.377" y="-907.6" font-family="Times,serif" font-size="14.00">updated_at :datetime</text>
</g>
<!-- Target -->
<g id="node8" class="node"><title>Target</title>
<path fill="none" stroke="black" d="M236.495,-1001.6C236.495,-1001.6 345.505,-1001.6 345.505,-1001.6 351.505,-1001.6 357.505,-1007.6 357.505,-1013.6 357.505,-1013.6 357.505,-1106.4 357.505,-1106.4 357.505,-1112.4 351.505,-1118.4 345.505,-1118.4 345.505,-1118.4 236.495,-1118.4 236.495,-1118.4 230.495,-1118.4 224.495,-1112.4 224.495,-1106.4 224.495,-1106.4 224.495,-1013.6 224.495,-1013.6 224.495,-1007.6 230.495,-1001.6 236.495,-1001.6"/>
<text text-anchor="middle" x="291" y="-1100.4" font-family="Times,serif" font-size="14.00">Target</text>
<polyline fill="none" stroke="black" points="224.495,-1093.6 357.505,-1093.6 "/>
<text text-anchor="start" x="232.495" y="-1075.6" font-family="Times,serif" font-size="14.00">id :integer</text>
<text text-anchor="start" x="232.495" y="-1058.8" font-family="Times,serif" font-size="14.00">title :string</text>
<text text-anchor="start" x="232.495" y="-1042" font-family="Times,serif" font-size="14.00">short_desc :string</text>
<text text-anchor="start" x="232.495" y="-1025.2" font-family="Times,serif" font-size="14.00">created_at :datetime</text>
<text text-anchor="start" x="232.495" y="-1008.4" font-family="Times,serif" font-size="14.00">updated_at :datetime</text>
</g>
<!-- Target&#45;&gt;Action -->
<g id="edge6" class="edge"><title>Target&#45;&gt;Action</title>
<path fill="none" stroke="#8a814f" d="M291,-993.048C291,-939.082 291,-862.705 291,-806.145"/>
<ellipse fill="none" stroke="#8a814f" cx="291" cy="-997.316" rx="4" ry="4"/>
<polygon fill="#8a814f" stroke="#8a814f" points="291,-805.824 295.5,-795.824 291,-800.824 291,-795.824 291,-795.824 291,-795.824 291,-800.824 286.5,-795.824 291,-805.824 291,-805.824"/>
</g>
</g>
</svg>
