<?xml version="1.0" encoding="UTF-8" standalone="no"?>
<!DOCTYPE svg PUBLIC "-//W3C//DTD SVG 1.1//EN"
 "http://www.w3.org/Graphics/SVG/1.1/DTD/svg11.dtd">
<!-- Generated by graphviz version 2.30.1 (20130311.0712)
 -->
<!-- Title: models_diagram Pages: 1 -->
<svg width="737pt" height="310pt"
 viewBox="0.00 0.00 737.00 310.00" xmlns="http://www.w3.org/2000/svg" xmlns:xlink="http://www.w3.org/1999/xlink">
<g id="graph0" class="graph" transform="scale(1 1) rotate(0) translate(4 306)">
<title>models_diagram</title>
<polygon fill="white" stroke="white" points="-4,5 -4,-306 734,-306 734,5 -4,5"/>
<!-- _diagram_info -->
<g id="node1" class="node"><title>_diagram_info</title>
<text text-anchor="start" x="7.31226" y="-285" font-family="Times,serif" font-size="13.00">Models diagram</text>
<text text-anchor="start" x="7.31226" y="-269.4" font-family="Times,serif" font-size="13.00">Date: Apr 29 2013 &#45; 08:38</text>
<text text-anchor="start" x="7.31226" y="-253.8" font-family="Times,serif" font-size="13.00">Migration version: 20130424142215</text>
<text text-anchor="start" x="7.31226" y="-238.2" font-family="Times,serif" font-size="13.00">Generated by RailRoady 1.1.0</text>
<text text-anchor="start" x="7.31226" y="-222.6" font-family="Times,serif" font-size="13.00">http://railroady.prestonlee.com</text>
</g>
<!-- Action -->
<g id="node2" class="node"><title>Action</title>
<ellipse fill="none" stroke="black" cx="260" cy="-162" rx="36.9811" ry="18"/>
<text text-anchor="middle" x="260" y="-156.4" font-family="Times,serif" font-size="14.00">Action</text>
</g>
<!-- Article -->
<g id="node3" class="node"><title>Article</title>
<ellipse fill="none" stroke="black" cx="353" cy="-162" rx="37.2739" ry="18"/>
<text text-anchor="middle" x="353" y="-156.4" font-family="Times,serif" font-size="14.00">Article</text>
</g>
<!-- Country -->
<g id="node5" class="node"><title>Country</title>
<ellipse fill="none" stroke="black" cx="353" cy="-90" rx="42.5348" ry="18"/>
<text text-anchor="middle" x="353" y="-84.4" font-family="Times,serif" font-size="14.00">Country</text>
</g>
<!-- Article&#45;&gt;Country -->
<g id="edge1" class="edge"><title>Article&#45;&gt;Country</title>
<path fill="none" stroke="#bb1363" d="M353,-133.665C353,-128.687 353,-123.491 353,-118.507"/>
<polygon fill="#bb1363" stroke="#bb1363" points="353,-133.697 348.5,-143.697 353,-138.697 353,-143.697 353,-143.697 353,-143.697 353,-138.697 357.5,-143.697 353,-133.697 353,-133.697"/>
<polygon fill="#bb1363" stroke="#bb1363" points="353,-118.104 357.5,-108.104 353,-113.104 353,-108.104 353,-108.104 353,-108.104 353,-113.104 348.5,-108.104 353,-118.104 353,-118.104"/>
</g>
<!-- Concept -->
<g id="node4" class="node"><title>Concept</title>
<ellipse fill="none" stroke="black" cx="249" cy="-90" rx="43.3283" ry="18"/>
<text text-anchor="middle" x="249" y="-84.4" font-family="Times,serif" font-size="14.00">Concept</text>
</g>
<!-- Article&#45;&gt;Concept -->
<g id="edge2" class="edge"><title>Article&#45;&gt;Concept</title>
<path fill="none" stroke="#059998" d="M323.571,-141.192C309.653,-131.824 293.06,-120.656 279.063,-111.235"/>
<polygon fill="#059998" stroke="#059998" points="323.658,-141.251 329.441,-150.568 327.806,-144.043 331.954,-146.834 331.954,-146.834 331.954,-146.834 327.806,-144.043 334.467,-143.101 323.658,-141.251 323.658,-141.251"/>
<polygon fill="#059998" stroke="#059998" points="279.026,-111.21 273.243,-101.893 274.879,-108.418 270.731,-105.626 270.731,-105.626 270.731,-105.626 274.879,-108.418 268.218,-109.359 279.026,-111.21 279.026,-111.21"/>
</g>
<!-- Theme -->
<g id="node11" class="node"><title>Theme</title>
<ellipse fill="none" stroke="black" cx="248" cy="-18" rx="37.2739" ry="18"/>
<text text-anchor="middle" x="248" y="-12.4" font-family="Times,serif" font-size="14.00">Theme</text>
</g>
<!-- Concept&#45;&gt;Theme -->
<g id="edge3" class="edge"><title>Concept&#45;&gt;Theme</title>
<path fill="none" stroke="#665c1d" d="M248.61,-61.6651C248.536,-56.5521 248.46,-51.2096 248.387,-46.1036"/>
<polygon fill="#665c1d" stroke="#665c1d" points="248.61,-61.6976 244.253,-71.7609 248.681,-66.6971 248.753,-71.6966 248.753,-71.6966 248.753,-71.6966 248.681,-66.6971 253.252,-71.6323 248.61,-61.6976 248.61,-61.6976"/>
<polygon fill="#665c1d" stroke="#665c1d" points="248.387,-46.1033 252.744,-36.04 248.316,-41.1038 248.244,-36.1043 248.244,-36.1043 248.244,-36.1043 248.316,-41.1038 243.745,-36.1687 248.387,-46.1033 248.387,-46.1033"/>
</g>
<!-- Document -->
<g id="node6" class="node"><title>Document</title>
<ellipse fill="none" stroke="black" cx="355" cy="-18" rx="50.8959" ry="18"/>
<text text-anchor="middle" x="355" y="-12.4" font-family="Times,serif" font-size="14.00">Document</text>
</g>
<!-- Concept&#45;&gt;Document -->
<g id="edge4" class="edge"><title>Concept&#45;&gt;Document</title>
<path fill="none" stroke="#4c8c40" d="M279.334,-68.9679C293.201,-59.8107 309.618,-48.9691 323.61,-39.7289"/>
<polygon fill="#4c8c40" stroke="#4c8c40" points="279.308,-68.9853 268.483,-70.7409 275.136,-71.7406 270.963,-74.496 270.963,-74.496 270.963,-74.496 275.136,-71.7406 273.443,-78.2511 279.308,-68.9853 279.308,-68.9853"/>
<polygon fill="#4c8c40" stroke="#4c8c40" points="323.62,-39.7225 334.445,-37.967 327.793,-36.9672 331.965,-34.2119 331.965,-34.2119 331.965,-34.2119 327.793,-36.9672 329.485,-30.4568 323.62,-39.7225 323.62,-39.7225"/>
</g>
<!-- Country&#45;&gt;Document -->
<g id="edge5" class="edge"><title>Country&#45;&gt;Document</title>
<path fill="none" stroke="#eada77" d="M353.781,-61.6651C353.927,-56.5521 354.08,-51.2096 354.226,-46.1036"/>
<polygon fill="#eada77" stroke="#eada77" points="353.78,-61.7007 348.996,-71.5681 353.637,-66.6987 353.494,-71.6966 353.494,-71.6966 353.494,-71.6966 353.637,-66.6987 357.993,-71.8252 353.78,-61.7007 353.78,-61.7007"/>
<polygon fill="#eada77" stroke="#eada77" points="354.226,-46.1003 359.009,-36.2329 354.368,-41.1023 354.511,-36.1043 354.511,-36.1043 354.511,-36.1043 354.368,-41.1023 350.013,-35.9758 354.226,-46.1003 354.226,-46.1003"/>
</g>
<!-- EcosystemAssessment -->
<g id="node7" class="node"><title>EcosystemAssessment</title>
<ellipse fill="none" stroke="black" cx="532" cy="-259" rx="98.2157" ry="18"/>
<text text-anchor="middle" x="532" y="-253.4" font-family="Times,serif" font-size="14.00">EcosystemAssessment</text>
</g>
<!-- Site -->
<g id="node8" class="node"><title>Site</title>
<ellipse fill="none" stroke="black" cx="389" cy="-259" rx="27" ry="18"/>
<text text-anchor="middle" x="389" y="-253.4" font-family="Times,serif" font-size="14.00">Site</text>
</g>
<!-- Site&#45;&gt;Article -->
<g id="edge6" class="edge"><title>Site&#45;&gt;Article</title>
<path fill="none" stroke="#07def8" d="M379.78,-233.668C374.656,-220.148 368.276,-203.311 363.028,-189.463"/>
<ellipse fill="none" stroke="#07def8" cx="381.312" cy="-237.712" rx="4.00001" ry="4.00001"/>
<polygon fill="#07def8" stroke="#07def8" points="362.985,-189.349 363.649,-178.403 361.213,-184.673 359.441,-179.998 359.441,-179.998 359.441,-179.998 361.213,-184.673 355.233,-181.592 362.985,-189.349 362.985,-189.349"/>
</g>
<!-- Site&#45;&gt;Document -->
<g id="edge7" class="edge"><title>Site&#45;&gt;Document</title>
<path fill="none" stroke="#29b1e6" d="M397.557,-233.695C408.973,-197.199 425.408,-126.691 404,-72 399.513,-60.5378 391.256,-50.0687 382.782,-41.5182"/>
<ellipse fill="none" stroke="#29b1e6" cx="396.304" cy="-237.566" rx="4.00001" ry="4.00001"/>
<polygon fill="#29b1e6" stroke="#29b1e6" points="382.641,-41.3852 378.457,-31.2487 379.004,-37.9532 375.368,-34.5213 375.368,-34.5213 375.368,-34.5213 379.004,-37.9532 372.279,-37.7939 382.641,-41.3852 382.641,-41.3852"/>
</g>
<!-- Species -->
<g id="node9" class="node"><title>Species</title>
<ellipse fill="none" stroke="black" cx="689" cy="-259" rx="40.303" ry="18"/>
<text text-anchor="middle" x="689" y="-253.4" font-family="Times,serif" font-size="14.00">Species</text>
</g>
<!-- Target -->
<g id="node10" class="node"><title>Target</title>
<ellipse fill="none" stroke="black" cx="260" cy="-259" rx="35.0875" ry="18"/>
<text text-anchor="middle" x="260" y="-253.4" font-family="Times,serif" font-size="14.00">Target</text>
</g>
<!-- Target&#45;&gt;Action -->
<g id="edge8" class="edge"><title>Target&#45;&gt;Action</title>
<path fill="none" stroke="#dd96f2" d="M260,-232.414C260,-219.518 260,-203.862 260,-190.685"/>
<ellipse fill="none" stroke="#dd96f2" cx="260" cy="-236.576" rx="4" ry="4"/>
<polygon fill="#dd96f2" stroke="#dd96f2" points="260,-190.314 264.5,-180.314 260,-185.314 260,-180.314 260,-180.314 260,-180.314 260,-185.314 255.5,-180.314 260,-190.314 260,-190.314"/>
</g>
</g>
</svg>
