<?xml version="1.0" encoding="UTF-8" standalone="no"?>
<!DOCTYPE svg PUBLIC "-//W3C//DTD SVG 1.1//EN"
 "http://www.w3.org/Graphics/SVG/1.1/DTD/svg11.dtd">
<!-- Generated by graphviz version 2.30.1 (20130311.0712)
 -->
<!-- Title: models_diagram Pages: 1 -->
<svg width="975pt" height="1260pt"
 viewBox="0.00 0.00 975.00 1260.00" xmlns="http://www.w3.org/2000/svg" xmlns:xlink="http://www.w3.org/1999/xlink">
<g id="graph0" class="graph" transform="scale(1 1) rotate(0) translate(4 1256)">
<title>models_diagram</title>
<polygon fill="white" stroke="white" points="-4,5 -4,-1256 972,-1256 972,5 -4,5"/>
<!-- _diagram_info -->
<g id="node1" class="node"><title>_diagram_info</title>
<text text-anchor="start" x="7.31226" y="-1118" font-family="Times,serif" font-size="13.00">Models diagram</text>
<text text-anchor="start" x="7.31226" y="-1102.4" font-family="Times,serif" font-size="13.00">Date: Apr 29 2013 &#45; 08:37</text>
<text text-anchor="start" x="7.31226" y="-1086.8" font-family="Times,serif" font-size="13.00">Migration version: 20130424142215</text>
<text text-anchor="start" x="7.31226" y="-1071.2" font-family="Times,serif" font-size="13.00">Generated by RailRoady 1.1.0</text>
<text text-anchor="start" x="7.31226" y="-1055.6" font-family="Times,serif" font-size="13.00">http://railroady.prestonlee.com</text>
</g>
<!-- Action -->
<g id="node2" class="node"><title>Action</title>
<path fill="none" stroke="black" d="M236.495,-703.2C236.495,-703.2 345.505,-703.2 345.505,-703.2 351.505,-703.2 357.505,-709.2 357.505,-715.2 357.505,-715.2 357.505,-824.8 357.505,-824.8 357.505,-830.8 351.505,-836.8 345.505,-836.8 345.505,-836.8 236.495,-836.8 236.495,-836.8 230.495,-836.8 224.495,-830.8 224.495,-824.8 224.495,-824.8 224.495,-715.2 224.495,-715.2 224.495,-709.2 230.495,-703.2 236.495,-703.2"/>
<text text-anchor="middle" x="291" y="-818.8" font-family="Times,serif" font-size="14.00">Action</text>
<polyline fill="none" stroke="black" points="224.495,-812 357.505,-812 "/>
<text text-anchor="start" x="232.495" y="-794" font-family="Times,serif" font-size="14.00">id :integer</text>
<text text-anchor="start" x="232.495" y="-777.2" font-family="Times,serif" font-size="14.00">title :string</text>
<text text-anchor="start" x="232.495" y="-760.4" font-family="Times,serif" font-size="14.00">short_desc :string</text>
<text text-anchor="start" x="232.495" y="-743.6" font-family="Times,serif" font-size="14.00">target_id :integer</text>
<text text-anchor="start" x="232.495" y="-726.8" font-family="Times,serif" font-size="14.00">created_at :datetime</text>
<text text-anchor="start" x="232.495" y="-710" font-family="Times,serif" font-size="14.00">updated_at :datetime</text>
</g>
<!-- Article -->
<g id="node3" class="node"><title>Article</title>
<path fill="none" stroke="black" d="M387.439,-644.4C387.439,-644.4 520.561,-644.4 520.561,-644.4 526.561,-644.4 532.561,-650.4 532.561,-656.4 532.561,-656.4 532.561,-883.6 532.561,-883.6 532.561,-889.6 526.561,-895.6 520.561,-895.6 520.561,-895.6 387.439,-895.6 387.439,-895.6 381.439,-895.6 375.439,-889.6 375.439,-883.6 375.439,-883.6 375.439,-656.4 375.439,-656.4 375.439,-650.4 381.439,-644.4 387.439,-644.4"/>
<text text-anchor="middle" x="454" y="-877.6" font-family="Times,serif" font-size="14.00">Article</text>
<polyline fill="none" stroke="black" points="375.439,-870.8 532.561,-870.8 "/>
<text text-anchor="start" x="383.439" y="-852.8" font-family="Times,serif" font-size="14.00">id :integer</text>
<text text-anchor="start" x="383.439" y="-836" font-family="Times,serif" font-size="14.00">title :string</text>
<text text-anchor="start" x="383.439" y="-819.2" font-family="Times,serif" font-size="14.00">author :text</text>
<text text-anchor="start" x="383.439" y="-802.4" font-family="Times,serif" font-size="14.00">content :text</text>
<text text-anchor="start" x="383.439" y="-785.6" font-family="Times,serif" font-size="14.00">language :string</text>
<text text-anchor="start" x="383.439" y="-768.8" font-family="Times,serif" font-size="14.00">biographical_region :text</text>
<text text-anchor="start" x="383.439" y="-752" font-family="Times,serif" font-size="14.00">source_url :text</text>
<text text-anchor="start" x="383.439" y="-735.2" font-family="Times,serif" font-size="14.00">published_on :date</text>
<text text-anchor="start" x="383.439" y="-718.4" font-family="Times,serif" font-size="14.00">published :boolean</text>
<text text-anchor="start" x="383.439" y="-701.6" font-family="Times,serif" font-size="14.00">site_id :integer</text>
<text text-anchor="start" x="383.439" y="-684.8" font-family="Times,serif" font-size="14.00">concepts_id :integer</text>
<text text-anchor="start" x="383.439" y="-668" font-family="Times,serif" font-size="14.00">created_at :datetime</text>
<text text-anchor="start" x="383.439" y="-651.2" font-family="Times,serif" font-size="14.00">updated_at :datetime</text>
</g>
<!-- Country -->
<g id="node5" class="node"><title>Country</title>
<path fill="none" stroke="black" d="M411.495,-406.6C411.495,-406.6 520.505,-406.6 520.505,-406.6 526.505,-406.6 532.505,-412.6 532.505,-418.6 532.505,-418.6 532.505,-595.4 532.505,-595.4 532.505,-601.4 526.505,-607.4 520.505,-607.4 520.505,-607.4 411.495,-607.4 411.495,-607.4 405.495,-607.4 399.495,-601.4 399.495,-595.4 399.495,-595.4 399.495,-418.6 399.495,-418.6 399.495,-412.6 405.495,-406.6 411.495,-406.6"/>
<text text-anchor="middle" x="466" y="-589.4" font-family="Times,serif" font-size="14.00">Country</text>
<polyline fill="none" stroke="black" points="399.495,-582.6 532.505,-582.6 "/>
<text text-anchor="start" x="407.495" y="-564.6" font-family="Times,serif" font-size="14.00">id :integer</text>
<text text-anchor="start" x="407.495" y="-547.8" font-family="Times,serif" font-size="14.00">name :string</text>
<text text-anchor="start" x="407.495" y="-531" font-family="Times,serif" font-size="14.00">code :string</text>
<text text-anchor="start" x="407.495" y="-514.2" font-family="Times,serif" font-size="14.00">eu15 :boolean</text>
<text text-anchor="start" x="407.495" y="-497.4" font-family="Times,serif" font-size="14.00">eu25 :boolean</text>
<text text-anchor="start" x="407.495" y="-480.6" font-family="Times,serif" font-size="14.00">eu27 :boolean</text>
<text text-anchor="start" x="407.495" y="-463.8" font-family="Times,serif" font-size="14.00">eu28 :boolean</text>
<text text-anchor="start" x="407.495" y="-447" font-family="Times,serif" font-size="14.00">eea :boolean</text>
<text text-anchor="start" x="407.495" y="-430.2" font-family="Times,serif" font-size="14.00">created_at :datetime</text>
<text text-anchor="start" x="407.495" y="-413.4" font-family="Times,serif" font-size="14.00">updated_at :datetime</text>
</g>
<!-- Article&#45;&gt;Country -->
<g id="edge1" class="edge"><title>Article&#45;&gt;Country</title>
<path fill="none" stroke="#6c0b55" d="M460.201,-634.121C460.452,-628.664 460.703,-623.218 460.951,-617.82"/>
<polygon fill="#6c0b55" stroke="#6c0b55" points="460.196,-634.244 455.241,-644.027 459.966,-639.238 459.736,-644.233 459.736,-644.233 459.736,-644.233 459.966,-639.238 464.232,-644.44 460.196,-634.244 460.196,-634.244"/>
<polygon fill="#6c0b55" stroke="#6c0b55" points="460.965,-617.499 465.92,-607.716 461.195,-612.504 461.425,-607.509 461.425,-607.509 461.425,-607.509 461.195,-612.504 456.93,-607.302 460.965,-617.499 460.965,-617.499"/>
</g>
<!-- Concept -->
<g id="node4" class="node"><title>Concept</title>
<path fill="none" stroke="black" d="M260.495,-423.4C260.495,-423.4 369.505,-423.4 369.505,-423.4 375.505,-423.4 381.505,-429.4 381.505,-435.4 381.505,-435.4 381.505,-578.6 381.505,-578.6 381.505,-584.6 375.505,-590.6 369.505,-590.6 369.505,-590.6 260.495,-590.6 260.495,-590.6 254.495,-590.6 248.495,-584.6 248.495,-578.6 248.495,-578.6 248.495,-435.4 248.495,-435.4 248.495,-429.4 254.495,-423.4 260.495,-423.4"/>
<text text-anchor="middle" x="315" y="-572.6" font-family="Times,serif" font-size="14.00">Concept</text>
<polyline fill="none" stroke="black" points="248.495,-565.8 381.505,-565.8 "/>
<text text-anchor="start" x="256.495" y="-547.8" font-family="Times,serif" font-size="14.00">id :integer</text>
<text text-anchor="start" x="256.495" y="-531" font-family="Times,serif" font-size="14.00">title :string</text>
<text text-anchor="start" x="256.495" y="-514.2" font-family="Times,serif" font-size="14.00">parent :integer</text>
<text text-anchor="start" x="256.495" y="-497.4" font-family="Times,serif" font-size="14.00">definition :text</text>
<text text-anchor="start" x="256.495" y="-480.6" font-family="Times,serif" font-size="14.00">themes_id :integer</text>
<text text-anchor="start" x="256.495" y="-463.8" font-family="Times,serif" font-size="14.00">articles_id :integer</text>
<text text-anchor="start" x="256.495" y="-447" font-family="Times,serif" font-size="14.00">created_at :datetime</text>
<text text-anchor="start" x="256.495" y="-430.2" font-family="Times,serif" font-size="14.00">updated_at :datetime</text>
</g>
<!-- Article&#45;&gt;Concept -->
<g id="edge2" class="edge"><title>Article&#45;&gt;Concept</title>
<path fill="none" stroke="#e02982" d="M382.809,-635.325C376.452,-623.388 370.114,-611.487 364.007,-600.02"/>
<polygon fill="#e02982" stroke="#e02982" points="382.853,-635.407 383.581,-646.349 385.203,-639.82 387.553,-644.233 387.553,-644.233 387.553,-644.233 385.203,-639.82 391.525,-642.118 382.853,-635.407 382.853,-635.407"/>
<polygon fill="#e02982" stroke="#e02982" points="363.864,-599.752 363.135,-588.81 361.514,-595.338 359.163,-590.925 359.163,-590.925 359.163,-590.925 361.514,-595.338 355.191,-593.041 363.864,-599.752 363.864,-599.752"/>
</g>
<!-- Theme -->
<g id="node11" class="node"><title>Theme</title>
<path fill="none" stroke="black" d="M254.495,-126.6C254.495,-126.6 363.505,-126.6 363.505,-126.6 369.505,-126.6 375.505,-132.6 375.505,-138.6 375.505,-138.6 375.505,-231.4 375.505,-231.4 375.505,-237.4 369.505,-243.4 363.505,-243.4 363.505,-243.4 254.495,-243.4 254.495,-243.4 248.495,-243.4 242.495,-237.4 242.495,-231.4 242.495,-231.4 242.495,-138.6 242.495,-138.6 242.495,-132.6 248.495,-126.6 254.495,-126.6"/>
<text text-anchor="middle" x="309" y="-225.4" font-family="Times,serif" font-size="14.00">Theme</text>
<polyline fill="none" stroke="black" points="242.495,-218.6 375.505,-218.6 "/>
<text text-anchor="start" x="250.495" y="-200.6" font-family="Times,serif" font-size="14.00">id :integer</text>
<text text-anchor="start" x="250.495" y="-183.8" font-family="Times,serif" font-size="14.00">title :string</text>
<text text-anchor="start" x="250.495" y="-167" font-family="Times,serif" font-size="14.00">concepts_id :integer</text>
<text text-anchor="start" x="250.495" y="-150.2" font-family="Times,serif" font-size="14.00">created_at :datetime</text>
<text text-anchor="start" x="250.495" y="-133.4" font-family="Times,serif" font-size="14.00">updated_at :datetime</text>
</g>
<!-- Concept&#45;&gt;Theme -->
<g id="edge3" class="edge"><title>Concept&#45;&gt;Theme</title>
<path fill="none" stroke="#2a8658" d="M313.258,-413.115C312.305,-362.244 311.143,-300.318 310.275,-253.986"/>
<polygon fill="#2a8658" stroke="#2a8658" points="313.259,-413.178 308.948,-423.26 313.353,-418.177 313.447,-423.176 313.447,-423.176 313.447,-423.176 313.353,-418.177 317.946,-423.091 313.259,-413.178 313.259,-413.178"/>
<polygon fill="#2a8658" stroke="#2a8658" points="310.27,-253.751 314.582,-243.668 310.177,-248.752 310.083,-243.753 310.083,-243.753 310.083,-243.753 310.177,-248.752 305.584,-243.837 310.27,-253.751 310.27,-253.751"/>
</g>
<!-- Document -->
<g id="node6" class="node"><title>Document</title>
<path fill="none" stroke="black" d="M405.439,-0.6C405.439,-0.6 538.561,-0.6 538.561,-0.6 544.561,-0.6 550.561,-6.6 550.561,-12.6 550.561,-12.6 550.561,-357.4 550.561,-357.4 550.561,-363.4 544.561,-369.4 538.561,-369.4 538.561,-369.4 405.439,-369.4 405.439,-369.4 399.439,-369.4 393.439,-363.4 393.439,-357.4 393.439,-357.4 393.439,-12.6 393.439,-12.6 393.439,-6.6 399.439,-0.6 405.439,-0.6"/>
<text text-anchor="middle" x="472" y="-351.4" font-family="Times,serif" font-size="14.00">Document</text>
<polyline fill="none" stroke="black" points="393.439,-344.6 550.561,-344.6 "/>
<text text-anchor="start" x="401.439" y="-326.6" font-family="Times,serif" font-size="14.00">id :integer</text>
<text text-anchor="start" x="401.439" y="-309.8" font-family="Times,serif" font-size="14.00">title :string</text>
<text text-anchor="start" x="401.439" y="-293" font-family="Times,serif" font-size="14.00">english_title :string</text>
<text text-anchor="start" x="401.439" y="-276.2" font-family="Times,serif" font-size="14.00">author :string</text>
<text text-anchor="start" x="401.439" y="-259.4" font-family="Times,serif" font-size="14.00">description :string</text>
<text text-anchor="start" x="401.439" y="-242.6" font-family="Times,serif" font-size="14.00">language :string</text>
<text text-anchor="start" x="401.439" y="-225.8" font-family="Times,serif" font-size="14.00">biographical_region :text</text>
<text text-anchor="start" x="401.439" y="-209" font-family="Times,serif" font-size="14.00">source_url :string</text>
<text text-anchor="start" x="401.439" y="-192.2" font-family="Times,serif" font-size="14.00">published_on :date</text>
<text text-anchor="start" x="401.439" y="-175.4" font-family="Times,serif" font-size="14.00">published :boolean</text>
<text text-anchor="start" x="401.439" y="-158.6" font-family="Times,serif" font-size="14.00">approved :boolean</text>
<text text-anchor="start" x="401.439" y="-141.8" font-family="Times,serif" font-size="14.00">downloads :integer</text>
<text text-anchor="start" x="401.439" y="-125" font-family="Times,serif" font-size="14.00">file :string</text>
<text text-anchor="start" x="401.439" y="-108.2" font-family="Times,serif" font-size="14.00">content_type :string</text>
<text text-anchor="start" x="401.439" y="-91.4" font-family="Times,serif" font-size="14.00">file_size :float</text>
<text text-anchor="start" x="401.439" y="-74.6" font-family="Times,serif" font-size="14.00">md5hash :string</text>
<text text-anchor="start" x="401.439" y="-57.8" font-family="Times,serif" font-size="14.00">site_id :integer</text>
<text text-anchor="start" x="401.439" y="-41" font-family="Times,serif" font-size="14.00">theme_id :integer</text>
<text text-anchor="start" x="401.439" y="-24.2" font-family="Times,serif" font-size="14.00">created_at :datetime</text>
<text text-anchor="start" x="401.439" y="-7.4" font-family="Times,serif" font-size="14.00">updated_at :datetime</text>
</g>
<!-- Concept&#45;&gt;Document -->
<g id="edge4" class="edge"><title>Concept&#45;&gt;Document</title>
<path fill="none" stroke="#436e95" d="M362.044,-413.998C369.449,-399.31 376.974,-384.259 384,-370 385.574,-366.806 387.159,-363.58 388.754,-360.327"/>
<polygon fill="#436e95" stroke="#436e95" points="361.963,-414.159 353.438,-421.057 359.709,-418.622 357.455,-423.086 357.455,-423.086 357.455,-423.086 359.709,-418.622 361.472,-425.114 361.963,-414.159 361.963,-414.159"/>
<polygon fill="#436e95" stroke="#436e95" points="388.873,-360.084 397.31,-353.079 391.07,-355.592 393.268,-351.101 393.268,-351.101 393.268,-351.101 391.07,-355.592 389.226,-349.124 388.873,-360.084 388.873,-360.084"/>
</g>
<!-- Country&#45;&gt;Document -->
<g id="edge5" class="edge"><title>Country&#45;&gt;Document</title>
<path fill="none" stroke="#b18835" d="M468.056,-396.324C468.159,-390.846 468.264,-385.28 468.369,-379.655"/>
<polygon fill="#b18835" stroke="#b18835" points="468.053,-396.506 463.366,-406.42 467.959,-401.505 467.866,-406.504 467.866,-406.504 467.866,-406.504 467.959,-401.505 472.365,-406.589 468.053,-396.506 468.053,-396.506"/>
<polygon fill="#b18835" stroke="#b18835" points="468.372,-379.474 473.059,-369.56 468.466,-374.475 468.56,-369.475 468.56,-369.475 468.56,-369.475 468.466,-374.475 464.061,-369.391 468.372,-379.474 468.372,-379.474"/>
</g>
<!-- EcosystemAssessment -->
<g id="node7" class="node"><title>EcosystemAssessment</title>
<path fill="none" stroke="black" d="M604.105,-974.8C604.105,-974.8 727.895,-974.8 727.895,-974.8 733.895,-974.8 739.895,-980.8 739.895,-986.8 739.895,-986.8 739.895,-1197.2 739.895,-1197.2 739.895,-1203.2 733.895,-1209.2 727.895,-1209.2 727.895,-1209.2 604.105,-1209.2 604.105,-1209.2 598.105,-1209.2 592.105,-1203.2 592.105,-1197.2 592.105,-1197.2 592.105,-986.8 592.105,-986.8 592.105,-980.8 598.105,-974.8 604.105,-974.8"/>
<text text-anchor="middle" x="666" y="-1191.2" font-family="Times,serif" font-size="14.00">EcosystemAssessment</text>
<polyline fill="none" stroke="black" points="592.105,-1184.4 739.895,-1184.4 "/>
<text text-anchor="start" x="600.105" y="-1166.4" font-family="Times,serif" font-size="14.00">id :integer</text>
<text text-anchor="start" x="600.105" y="-1149.6" font-family="Times,serif" font-size="14.00">document_type :string</text>
<text text-anchor="start" x="600.105" y="-1132.8" font-family="Times,serif" font-size="14.00">title :string</text>
<text text-anchor="start" x="600.105" y="-1116" font-family="Times,serif" font-size="14.00">language :string</text>
<text text-anchor="start" x="600.105" y="-1099.2" font-family="Times,serif" font-size="14.00">english_title :string</text>
<text text-anchor="start" x="600.105" y="-1082.4" font-family="Times,serif" font-size="14.00">published_year :integer</text>
<text text-anchor="start" x="600.105" y="-1065.6" font-family="Times,serif" font-size="14.00">origin :string</text>
<text text-anchor="start" x="600.105" y="-1048.8" font-family="Times,serif" font-size="14.00">url :string</text>
<text text-anchor="start" x="600.105" y="-1032" font-family="Times,serif" font-size="14.00">is_final :boolean</text>
<text text-anchor="start" x="600.105" y="-1015.2" font-family="Times,serif" font-size="14.00">license :string</text>
<text text-anchor="start" x="600.105" y="-998.4" font-family="Times,serif" font-size="14.00">created_at :datetime</text>
<text text-anchor="start" x="600.105" y="-981.6" font-family="Times,serif" font-size="14.00">updated_at :datetime</text>
</g>
<!-- Site -->
<g id="node8" class="node"><title>Site</title>
<path fill="none" stroke="black" d="M453.495,-1016.8C453.495,-1016.8 562.505,-1016.8 562.505,-1016.8 568.505,-1016.8 574.505,-1022.8 574.505,-1028.8 574.505,-1028.8 574.505,-1155.2 574.505,-1155.2 574.505,-1161.2 568.505,-1167.2 562.505,-1167.2 562.505,-1167.2 453.495,-1167.2 453.495,-1167.2 447.495,-1167.2 441.495,-1161.2 441.495,-1155.2 441.495,-1155.2 441.495,-1028.8 441.495,-1028.8 441.495,-1022.8 447.495,-1016.8 453.495,-1016.8"/>
<text text-anchor="middle" x="508" y="-1149.2" font-family="Times,serif" font-size="14.00">Site</text>
<polyline fill="none" stroke="black" points="441.495,-1142.4 574.505,-1142.4 "/>
<text text-anchor="start" x="449.495" y="-1124.4" font-family="Times,serif" font-size="14.00">id :integer</text>
<text text-anchor="start" x="449.495" y="-1107.6" font-family="Times,serif" font-size="14.00">name :string</text>
<text text-anchor="start" x="449.495" y="-1090.8" font-family="Times,serif" font-size="14.00">origin_url :string</text>
<text text-anchor="start" x="449.495" y="-1074" font-family="Times,serif" font-size="14.00">description :string</text>
<text text-anchor="start" x="449.495" y="-1057.2" font-family="Times,serif" font-size="14.00">articles_id :integer</text>
<text text-anchor="start" x="449.495" y="-1040.4" font-family="Times,serif" font-size="14.00">created_at :datetime</text>
<text text-anchor="start" x="449.495" y="-1023.6" font-family="Times,serif" font-size="14.00">updated_at :datetime</text>
</g>
<!-- Site&#45;&gt;Article -->
<g id="edge6" class="edge"><title>Site&#45;&gt;Article</title>
<path fill="none" stroke="#c3e713" d="M494.104,-1008.65C488.834,-977.425 482.685,-940.985 476.807,-906.155"/>
<ellipse fill="none" stroke="#c3e713" cx="494.81" cy="-1012.84" rx="4.00001" ry="4.00001"/>
<polygon fill="#c3e713" stroke="#c3e713" points="476.74,-905.755 479.513,-895.146 475.908,-900.825 475.076,-895.895 475.076,-895.895 475.076,-895.895 475.908,-900.825 470.639,-896.643 476.74,-905.755 476.74,-905.755"/>
</g>
<!-- Site&#45;&gt;Document -->
<g id="edge7" class="edge"><title>Site&#45;&gt;Document</title>
<path fill="none" stroke="#2a8fab" d="M525.167,-1008.19C531.5,-973.669 537.886,-933.06 541,-896 559.233,-678.987 573.966,-621.268 541,-406 539.668,-397.304 538.057,-388.479 536.223,-379.612"/>
<ellipse fill="none" stroke="#2a8fab" cx="524.378" cy="-1012.44" rx="4.00001" ry="4.00001"/>
<polygon fill="#2a8fab" stroke="#2a8fab" points="536.169,-379.363 538.46,-368.639 535.115,-374.475 534.061,-369.588 534.061,-369.588 534.061,-369.588 535.115,-374.475 529.662,-370.536 536.169,-379.363 536.169,-379.363"/>
</g>
<!-- Species -->
<g id="node9" class="node"><title>Species</title>
<path fill="none" stroke="black" d="M770.377,-932.8C770.377,-932.8 955.623,-932.8 955.623,-932.8 961.623,-932.8 967.623,-938.8 967.623,-944.8 967.623,-944.8 967.623,-1239.2 967.623,-1239.2 967.623,-1245.2 961.623,-1251.2 955.623,-1251.2 955.623,-1251.2 770.377,-1251.2 770.377,-1251.2 764.377,-1251.2 758.377,-1245.2 758.377,-1239.2 758.377,-1239.2 758.377,-944.8 758.377,-944.8 758.377,-938.8 764.377,-932.8 770.377,-932.8"/>
<text text-anchor="middle" x="863" y="-1233.2" font-family="Times,serif" font-size="14.00">Species</text>
<polyline fill="none" stroke="black" points="758.377,-1226.4 967.623,-1226.4 "/>
<text text-anchor="start" x="766.377" y="-1208.4" font-family="Times,serif" font-size="14.00">id :integer</text>
<text text-anchor="start" x="766.377" y="-1191.6" font-family="Times,serif" font-size="14.00">species_code :integer</text>
<text text-anchor="start" x="766.377" y="-1174.8" font-family="Times,serif" font-size="14.00">binomial_name :string</text>
<text text-anchor="start" x="766.377" y="-1158" font-family="Times,serif" font-size="14.00">valid_name :string</text>
<text text-anchor="start" x="766.377" y="-1141.2" font-family="Times,serif" font-size="14.00">eunis_primary_name :string</text>
<text text-anchor="start" x="766.377" y="-1124.4" font-family="Times,serif" font-size="14.00">synonym_for :string</text>
<text text-anchor="start" x="766.377" y="-1107.6" font-family="Times,serif" font-size="14.00">taxonomic_rank :string</text>
<text text-anchor="start" x="766.377" y="-1090.8" font-family="Times,serif" font-size="14.00">taxonomy :string</text>
<text text-anchor="start" x="766.377" y="-1074" font-family="Times,serif" font-size="14.00">scientific_name_authorship :string</text>
<text text-anchor="start" x="766.377" y="-1057.2" font-family="Times,serif" font-size="14.00">scientific_name :string</text>
<text text-anchor="start" x="766.377" y="-1040.4" font-family="Times,serif" font-size="14.00">label :string</text>
<text text-anchor="start" x="766.377" y="-1023.6" font-family="Times,serif" font-size="14.00">genus :string</text>
<text text-anchor="start" x="766.377" y="-1006.8" font-family="Times,serif" font-size="14.00">species_group :string</text>
<text text-anchor="start" x="766.377" y="-990" font-family="Times,serif" font-size="14.00">name_according_to_ID :string</text>
<text text-anchor="start" x="766.377" y="-973.2" font-family="Times,serif" font-size="14.00">ignore_on_match :boolean</text>
<text text-anchor="start" x="766.377" y="-956.4" font-family="Times,serif" font-size="14.00">created_at :datetime</text>
<text text-anchor="start" x="766.377" y="-939.6" font-family="Times,serif" font-size="14.00">updated_at :datetime</text>
</g>
<!-- Target -->
<g id="node10" class="node"><title>Target</title>
<path fill="none" stroke="black" d="M236.495,-1033.6C236.495,-1033.6 345.505,-1033.6 345.505,-1033.6 351.505,-1033.6 357.505,-1039.6 357.505,-1045.6 357.505,-1045.6 357.505,-1138.4 357.505,-1138.4 357.505,-1144.4 351.505,-1150.4 345.505,-1150.4 345.505,-1150.4 236.495,-1150.4 236.495,-1150.4 230.495,-1150.4 224.495,-1144.4 224.495,-1138.4 224.495,-1138.4 224.495,-1045.6 224.495,-1045.6 224.495,-1039.6 230.495,-1033.6 236.495,-1033.6"/>
<text text-anchor="middle" x="291" y="-1132.4" font-family="Times,serif" font-size="14.00">Target</text>
<polyline fill="none" stroke="black" points="224.495,-1125.6 357.505,-1125.6 "/>
<text text-anchor="start" x="232.495" y="-1107.6" font-family="Times,serif" font-size="14.00">id :integer</text>
<text text-anchor="start" x="232.495" y="-1090.8" font-family="Times,serif" font-size="14.00">title :string</text>
<text text-anchor="start" x="232.495" y="-1074" font-family="Times,serif" font-size="14.00">short_desc :string</text>
<text text-anchor="start" x="232.495" y="-1057.2" font-family="Times,serif" font-size="14.00">created_at :datetime</text>
<text text-anchor="start" x="232.495" y="-1040.4" font-family="Times,serif" font-size="14.00">updated_at :datetime</text>
</g>
<!-- Target&#45;&gt;Action -->
<g id="edge8" class="edge"><title>Target&#45;&gt;Action</title>
<path fill="none" stroke="#707e0c" d="M291,-1025.13C291,-973.433 291,-901.381 291,-847.196"/>
<ellipse fill="none" stroke="#707e0c" cx="291" cy="-1029.42" rx="4" ry="4"/>
<polygon fill="#707e0c" stroke="#707e0c" points="291,-846.952 295.5,-836.952 291,-841.952 291,-836.952 291,-836.952 291,-836.952 291,-841.952 286.5,-836.952 291,-846.952 291,-846.952"/>
</g>
</g>
</svg>
