<?xml version="1.0" encoding="UTF-8" standalone="no"?>
<!DOCTYPE svg PUBLIC "-//W3C//DTD SVG 1.1//EN"
 "http://www.w3.org/Graphics/SVG/1.1/DTD/svg11.dtd">
<!-- Generated by graphviz version 2.30.1 (20130311.0712)
 -->
<!-- Title: models_diagram Pages: 1 -->
<svg width="592pt" height="1228pt"
 viewBox="0.00 0.00 592.00 1228.00" xmlns="http://www.w3.org/2000/svg" xmlns:xlink="http://www.w3.org/1999/xlink">
<g id="graph0" class="graph" transform="scale(1 1) rotate(0) translate(4 1224)">
<title>models_diagram</title>
<polygon fill="white" stroke="white" points="-4,5 -4,-1224 589,-1224 589,5 -4,5"/>
<!-- _diagram_info -->
<g id="node1" class="node"><title>_diagram_info</title>
<text text-anchor="start" x="7.31226" y="-1086" font-family="Times,serif" font-size="13.00">Models diagram</text>
<text text-anchor="start" x="7.31226" y="-1070.4" font-family="Times,serif" font-size="13.00">Date: Mar 15 2013 &#45; 09:26</text>
<text text-anchor="start" x="7.31226" y="-1054.8" font-family="Times,serif" font-size="13.00">Migration version: 20130315082446</text>
<text text-anchor="start" x="7.31226" y="-1039.2" font-family="Times,serif" font-size="13.00">Generated by RailRoady 1.1.0</text>
<text text-anchor="start" x="7.31226" y="-1023.6" font-family="Times,serif" font-size="13.00">http://railroady.prestonlee.com</text>
</g>
<!-- Article -->
<g id="node2" class="node"><title>Article</title>
<path fill="none" stroke="black" d="M81.9014,-595C81.9014,-595 232.099,-595 232.099,-595 238.099,-595 244.099,-601 244.099,-607 244.099,-607 244.099,-851 244.099,-851 244.099,-857 238.099,-863 232.099,-863 232.099,-863 81.9014,-863 81.9014,-863 75.9014,-863 69.9014,-857 69.9014,-851 69.9014,-851 69.9014,-607 69.9014,-607 69.9014,-601 75.9014,-595 81.9014,-595"/>
<text text-anchor="middle" x="157" y="-845" font-family="Times,serif" font-size="14.00">Article</text>
<polyline fill="none" stroke="black" points="69.9014,-838.2 244.099,-838.2 "/>
<text text-anchor="start" x="77.9014" y="-820.2" font-family="Times,serif" font-size="14.00">id :integer</text>
<text text-anchor="start" x="77.9014" y="-803.4" font-family="Times,serif" font-size="14.00">title :string</text>
<text text-anchor="start" x="77.9014" y="-786.6" font-family="Times,serif" font-size="14.00">author :text</text>
<text text-anchor="start" x="77.9014" y="-769.8" font-family="Times,serif" font-size="14.00">content :text</text>
<text text-anchor="start" x="77.9014" y="-753" font-family="Times,serif" font-size="14.00">language :string</text>
<text text-anchor="start" x="77.9014" y="-736.2" font-family="Times,serif" font-size="14.00">geographical_coverage :text</text>
<text text-anchor="start" x="77.9014" y="-719.4" font-family="Times,serif" font-size="14.00">biographical_region :text</text>
<text text-anchor="start" x="77.9014" y="-702.6" font-family="Times,serif" font-size="14.00">source_url :text</text>
<text text-anchor="start" x="77.9014" y="-685.8" font-family="Times,serif" font-size="14.00">published_on :date</text>
<text text-anchor="start" x="77.9014" y="-669" font-family="Times,serif" font-size="14.00">published :boolean</text>
<text text-anchor="start" x="77.9014" y="-652.2" font-family="Times,serif" font-size="14.00">site_id :integer</text>
<text text-anchor="start" x="77.9014" y="-635.4" font-family="Times,serif" font-size="14.00">concepts_id :integer</text>
<text text-anchor="start" x="77.9014" y="-618.6" font-family="Times,serif" font-size="14.00">created_at :datetime</text>
<text text-anchor="start" x="77.9014" y="-601.8" font-family="Times,serif" font-size="14.00">updated_at :datetime</text>
</g>
<!-- Concept -->
<g id="node3" class="node"><title>Concept</title>
<path fill="none" stroke="black" d="M274.495,-390.4C274.495,-390.4 383.505,-390.4 383.505,-390.4 389.505,-390.4 395.505,-396.4 395.505,-402.4 395.505,-402.4 395.505,-545.6 395.505,-545.6 395.505,-551.6 389.505,-557.6 383.505,-557.6 383.505,-557.6 274.495,-557.6 274.495,-557.6 268.495,-557.6 262.495,-551.6 262.495,-545.6 262.495,-545.6 262.495,-402.4 262.495,-402.4 262.495,-396.4 268.495,-390.4 274.495,-390.4"/>
<text text-anchor="middle" x="329" y="-539.6" font-family="Times,serif" font-size="14.00">Concept</text>
<polyline fill="none" stroke="black" points="262.495,-532.8 395.505,-532.8 "/>
<text text-anchor="start" x="270.495" y="-514.8" font-family="Times,serif" font-size="14.00">id :integer</text>
<text text-anchor="start" x="270.495" y="-498" font-family="Times,serif" font-size="14.00">title :string</text>
<text text-anchor="start" x="270.495" y="-481.2" font-family="Times,serif" font-size="14.00">parent :integer</text>
<text text-anchor="start" x="270.495" y="-464.4" font-family="Times,serif" font-size="14.00">definition :text</text>
<text text-anchor="start" x="270.495" y="-447.6" font-family="Times,serif" font-size="14.00">theme_id :integer</text>
<text text-anchor="start" x="270.495" y="-430.8" font-family="Times,serif" font-size="14.00">articles_id :integer</text>
<text text-anchor="start" x="270.495" y="-414" font-family="Times,serif" font-size="14.00">created_at :datetime</text>
<text text-anchor="start" x="270.495" y="-397.2" font-family="Times,serif" font-size="14.00">updated_at :datetime</text>
</g>
<!-- Article&#45;&gt;Concept -->
<g id="edge1" class="edge"><title>Article&#45;&gt;Concept</title>
<path fill="none" stroke="#91141c" d="M249.906,-591.342C255.651,-582.892 261.354,-574.502 266.913,-566.326"/>
<polygon fill="#91141c" stroke="#91141c" points="249.882,-591.377 240.538,-597.117 247.071,-595.512 244.26,-599.647 244.26,-599.647 244.26,-599.647 247.071,-595.512 247.981,-602.177 249.882,-591.377 249.882,-591.377"/>
<polygon fill="#91141c" stroke="#91141c" points="267.027,-566.158 276.371,-560.418 269.838,-562.023 272.649,-557.888 272.649,-557.888 272.649,-557.888 269.838,-562.023 268.928,-555.358 267.027,-566.158 267.027,-566.158"/>
</g>
<!-- Document -->
<g id="node4" class="node"><title>Document</title>
<path fill="none" stroke="black" d="M300.901,-1C300.901,-1 451.099,-1 451.099,-1 457.099,-1 463.099,-7 463.099,-13 463.099,-13 463.099,-341 463.099,-341 463.099,-347 457.099,-353 451.099,-353 451.099,-353 300.901,-353 300.901,-353 294.901,-353 288.901,-347 288.901,-341 288.901,-341 288.901,-13 288.901,-13 288.901,-7 294.901,-1 300.901,-1"/>
<text text-anchor="middle" x="376" y="-335" font-family="Times,serif" font-size="14.00">Document</text>
<polyline fill="none" stroke="black" points="288.901,-328.2 463.099,-328.2 "/>
<text text-anchor="start" x="296.901" y="-310.2" font-family="Times,serif" font-size="14.00">id :integer</text>
<text text-anchor="start" x="296.901" y="-293.4" font-family="Times,serif" font-size="14.00">title :string</text>
<text text-anchor="start" x="296.901" y="-276.6" font-family="Times,serif" font-size="14.00">author :string</text>
<text text-anchor="start" x="296.901" y="-259.8" font-family="Times,serif" font-size="14.00">description :string</text>
<text text-anchor="start" x="296.901" y="-243" font-family="Times,serif" font-size="14.00">language :string</text>
<text text-anchor="start" x="296.901" y="-226.2" font-family="Times,serif" font-size="14.00">geographical_coverage :text</text>
<text text-anchor="start" x="296.901" y="-209.4" font-family="Times,serif" font-size="14.00">biographical_region :text</text>
<text text-anchor="start" x="296.901" y="-192.6" font-family="Times,serif" font-size="14.00">source_url :string</text>
<text text-anchor="start" x="296.901" y="-175.8" font-family="Times,serif" font-size="14.00">published_on :date</text>
<text text-anchor="start" x="296.901" y="-159" font-family="Times,serif" font-size="14.00">published :boolean</text>
<text text-anchor="start" x="296.901" y="-142.2" font-family="Times,serif" font-size="14.00">downloads :integer</text>
<text text-anchor="start" x="296.901" y="-125.4" font-family="Times,serif" font-size="14.00">file :string</text>
<text text-anchor="start" x="296.901" y="-108.6" font-family="Times,serif" font-size="14.00">content_type :string</text>
<text text-anchor="start" x="296.901" y="-91.8" font-family="Times,serif" font-size="14.00">file_size :float</text>
<text text-anchor="start" x="296.901" y="-75" font-family="Times,serif" font-size="14.00">md5hash :string</text>
<text text-anchor="start" x="296.901" y="-58.2" font-family="Times,serif" font-size="14.00">site_id :integer</text>
<text text-anchor="start" x="296.901" y="-41.4" font-family="Times,serif" font-size="14.00">theme_id :integer</text>
<text text-anchor="start" x="296.901" y="-24.6" font-family="Times,serif" font-size="14.00">created_at :datetime</text>
<text text-anchor="start" x="296.901" y="-7.8" font-family="Times,serif" font-size="14.00">updated_at :datetime</text>
</g>
<!-- Concept&#45;&gt;Document -->
<g id="edge2" class="edge"><title>Concept&#45;&gt;Document</title>
<path fill="none" stroke="#dae64a" d="M343.822,-379.967C344.689,-374.526 345.574,-368.971 346.472,-363.336"/>
<polygon fill="#dae64a" stroke="#dae64a" points="343.791,-380.166 337.773,-389.333 343.004,-385.103 342.217,-390.041 342.217,-390.041 342.217,-390.041 343.004,-385.103 346.661,-390.749 343.791,-380.166 343.791,-380.166"/>
<polygon fill="#dae64a" stroke="#dae64a" points="346.527,-362.992 352.544,-353.825 347.313,-358.055 348.1,-353.117 348.1,-353.117 348.1,-353.117 347.313,-358.055 343.656,-352.409 346.527,-362.992 346.527,-362.992"/>
</g>
<!-- Site -->
<g id="node5" class="node"><title>Site</title>
<path fill="none" stroke="black" d="M236.495,-984.8C236.495,-984.8 345.505,-984.8 345.505,-984.8 351.505,-984.8 357.505,-990.8 357.505,-996.8 357.505,-996.8 357.505,-1123.2 357.505,-1123.2 357.505,-1129.2 351.505,-1135.2 345.505,-1135.2 345.505,-1135.2 236.495,-1135.2 236.495,-1135.2 230.495,-1135.2 224.495,-1129.2 224.495,-1123.2 224.495,-1123.2 224.495,-996.8 224.495,-996.8 224.495,-990.8 230.495,-984.8 236.495,-984.8"/>
<text text-anchor="middle" x="291" y="-1117.2" font-family="Times,serif" font-size="14.00">Site</text>
<polyline fill="none" stroke="black" points="224.495,-1110.4 357.505,-1110.4 "/>
<text text-anchor="start" x="232.495" y="-1092.4" font-family="Times,serif" font-size="14.00">id :integer</text>
<text text-anchor="start" x="232.495" y="-1075.6" font-family="Times,serif" font-size="14.00">name :string</text>
<text text-anchor="start" x="232.495" y="-1058.8" font-family="Times,serif" font-size="14.00">origin_url :string</text>
<text text-anchor="start" x="232.495" y="-1042" font-family="Times,serif" font-size="14.00">description :string</text>
<text text-anchor="start" x="232.495" y="-1025.2" font-family="Times,serif" font-size="14.00">articles_id :integer</text>
<text text-anchor="start" x="232.495" y="-1008.4" font-family="Times,serif" font-size="14.00">created_at :datetime</text>
<text text-anchor="start" x="232.495" y="-991.6" font-family="Times,serif" font-size="14.00">updated_at :datetime</text>
</g>
<!-- Site&#45;&gt;Article -->
<g id="edge3" class="edge"><title>Site&#45;&gt;Article</title>
<path fill="none" stroke="#b65be2" d="M257.627,-977.061C244.756,-945.459 229.649,-908.371 215.112,-872.677"/>
<ellipse fill="none" stroke="#b65be2" cx="259.252" cy="-981.051" rx="4.00001" ry="4.00001"/>
<polygon fill="#b65be2" stroke="#b65be2" points="215.002,-872.408 215.398,-861.449 213.116,-867.777 211.23,-863.147 211.23,-863.147 211.23,-863.147 213.116,-867.777 207.062,-864.844 215.002,-872.408 215.002,-872.408"/>
</g>
<!-- Site&#45;&gt;Document -->
<g id="edge4" class="edge"><title>Site&#45;&gt;Document</title>
<path fill="none" stroke="#3b8ae9" d="M322.634,-977.025C334.393,-951.236 349.059,-923.402 366,-900 379.642,-881.155 394.808,-885.371 404,-864 472.301,-705.208 454.234,-506.183 425.733,-363.464"/>
<ellipse fill="none" stroke="#3b8ae9" cx="320.875" cy="-980.947" rx="4.00002" ry="4.00002"/>
<polygon fill="#3b8ae9" stroke="#3b8ae9" points="425.657,-363.086 428.074,-352.39 424.66,-358.187 423.664,-353.287 423.664,-353.287 423.664,-353.287 424.66,-358.187 419.254,-354.183 425.657,-363.086 425.657,-363.086"/>
</g>
<!-- Species -->
<g id="node6" class="node"><title>Species</title>
<path fill="none" stroke="black" d="M387.377,-900.8C387.377,-900.8 572.623,-900.8 572.623,-900.8 578.623,-900.8 584.623,-906.8 584.623,-912.8 584.623,-912.8 584.623,-1207.2 584.623,-1207.2 584.623,-1213.2 578.623,-1219.2 572.623,-1219.2 572.623,-1219.2 387.377,-1219.2 387.377,-1219.2 381.377,-1219.2 375.377,-1213.2 375.377,-1207.2 375.377,-1207.2 375.377,-912.8 375.377,-912.8 375.377,-906.8 381.377,-900.8 387.377,-900.8"/>
<text text-anchor="middle" x="480" y="-1201.2" font-family="Times,serif" font-size="14.00">Species</text>
<polyline fill="none" stroke="black" points="375.377,-1194.4 584.623,-1194.4 "/>
<text text-anchor="start" x="383.377" y="-1176.4" font-family="Times,serif" font-size="14.00">id :integer</text>
<text text-anchor="start" x="383.377" y="-1159.6" font-family="Times,serif" font-size="14.00">species_code :integer</text>
<text text-anchor="start" x="383.377" y="-1142.8" font-family="Times,serif" font-size="14.00">binomial_name :string</text>
<text text-anchor="start" x="383.377" y="-1126" font-family="Times,serif" font-size="14.00">valid_name :string</text>
<text text-anchor="start" x="383.377" y="-1109.2" font-family="Times,serif" font-size="14.00">eunis_primary_name :string</text>
<text text-anchor="start" x="383.377" y="-1092.4" font-family="Times,serif" font-size="14.00">synonym_for :string</text>
<text text-anchor="start" x="383.377" y="-1075.6" font-family="Times,serif" font-size="14.00">taxonomic_rank :string</text>
<text text-anchor="start" x="383.377" y="-1058.8" font-family="Times,serif" font-size="14.00">taxonomy :string</text>
<text text-anchor="start" x="383.377" y="-1042" font-family="Times,serif" font-size="14.00">scientific_name_authorship :string</text>
<text text-anchor="start" x="383.377" y="-1025.2" font-family="Times,serif" font-size="14.00">scientific_name :string</text>
<text text-anchor="start" x="383.377" y="-1008.4" font-family="Times,serif" font-size="14.00">label :string</text>
<text text-anchor="start" x="383.377" y="-991.6" font-family="Times,serif" font-size="14.00">genus :string</text>
<text text-anchor="start" x="383.377" y="-974.8" font-family="Times,serif" font-size="14.00">species_group :string</text>
<text text-anchor="start" x="383.377" y="-958" font-family="Times,serif" font-size="14.00">name_according_to_ID :string</text>
<text text-anchor="start" x="383.377" y="-941.2" font-family="Times,serif" font-size="14.00">ignore_on_match :boolean</text>
<text text-anchor="start" x="383.377" y="-924.4" font-family="Times,serif" font-size="14.00">created_at :datetime</text>
<text text-anchor="start" x="383.377" y="-907.6" font-family="Times,serif" font-size="14.00">updated_at :datetime</text>
</g>
<!-- Theme -->
<g id="node7" class="node"><title>Theme</title>
<path fill="none" stroke="black" d="M274.495,-662.2C274.495,-662.2 383.505,-662.2 383.505,-662.2 389.505,-662.2 395.505,-668.2 395.505,-674.2 395.505,-674.2 395.505,-783.8 395.505,-783.8 395.505,-789.8 389.505,-795.8 383.505,-795.8 383.505,-795.8 274.495,-795.8 274.495,-795.8 268.495,-795.8 262.495,-789.8 262.495,-783.8 262.495,-783.8 262.495,-674.2 262.495,-674.2 262.495,-668.2 268.495,-662.2 274.495,-662.2"/>
<text text-anchor="middle" x="329" y="-777.8" font-family="Times,serif" font-size="14.00">Theme</text>
<polyline fill="none" stroke="black" points="262.495,-771 395.505,-771 "/>
<text text-anchor="start" x="270.495" y="-753" font-family="Times,serif" font-size="14.00">id :integer</text>
<text text-anchor="start" x="270.495" y="-736.2" font-family="Times,serif" font-size="14.00">title :string</text>
<text text-anchor="start" x="270.495" y="-719.4" font-family="Times,serif" font-size="14.00">concepts_id :integer</text>
<text text-anchor="start" x="270.495" y="-702.6" font-family="Times,serif" font-size="14.00">articles_id :integer</text>
<text text-anchor="start" x="270.495" y="-685.8" font-family="Times,serif" font-size="14.00">created_at :datetime</text>
<text text-anchor="start" x="270.495" y="-669" font-family="Times,serif" font-size="14.00">updated_at :datetime</text>
</g>
<!-- Theme&#45;&gt;Concept -->
<g id="edge5" class="edge"><title>Theme&#45;&gt;Concept</title>
<path fill="none" stroke="#d8a2eb" d="M329,-653.817C329,-626.957 329,-596.278 329,-568.004"/>
<ellipse fill="none" stroke="#d8a2eb" cx="329" cy="-658.188" rx="4" ry="4"/>
<polygon fill="#d8a2eb" stroke="#d8a2eb" points="329,-567.708 333.5,-557.708 329,-562.708 329,-557.708 329,-557.708 329,-557.708 329,-562.708 324.5,-557.708 329,-567.708 329,-567.708"/>
</g>
</g>
</svg>
