<?xml version="1.0" encoding="UTF-8" standalone="no"?>
<!DOCTYPE svg PUBLIC "-//W3C//DTD SVG 1.1//EN"
 "http://www.w3.org/Graphics/SVG/1.1/DTD/svg11.dtd">
<!-- Generated by graphviz version 2.30.1 (20130311.0712)
 -->
<!-- Title: models_diagram Pages: 1 -->
<svg width="495pt" height="166pt"
 viewBox="0.00 0.00 495.00 166.00" xmlns="http://www.w3.org/2000/svg" xmlns:xlink="http://www.w3.org/1999/xlink">
<g id="graph0" class="graph" transform="scale(1 1) rotate(0) translate(4 162)">
<title>models_diagram</title>
<polygon fill="white" stroke="white" points="-4,5 -4,-162 492,-162 492,5 -4,5"/>
<!-- _diagram_info -->
<g id="node1" class="node"><title>_diagram_info</title>
<text text-anchor="start" x="7.31226" y="-141" font-family="Times,serif" font-size="13.00">Models diagram</text>
<text text-anchor="start" x="7.31226" y="-125.4" font-family="Times,serif" font-size="13.00">Date: Mar 11 2013 &#45; 08:28</text>
<text text-anchor="start" x="7.31226" y="-109.8" font-family="Times,serif" font-size="13.00">Migration version: 20130307104456</text>
<text text-anchor="start" x="7.31226" y="-94.2" font-family="Times,serif" font-size="13.00">Generated by RailRoady 1.1.0</text>
<text text-anchor="start" x="7.31226" y="-78.6" font-family="Times,serif" font-size="13.00">http://railroady.prestonlee.com</text>
</g>
<!-- Article -->
<g id="node2" class="node"><title>Article</title>
<ellipse fill="none" stroke="black" cx="252" cy="-18" rx="37.2739" ry="18"/>
<text text-anchor="middle" x="252" y="-12.4" font-family="Times,serif" font-size="14.00">Article</text>
</g>
<!-- Concept -->
<g id="node3" class="node"><title>Concept</title>
<ellipse fill="none" stroke="black" cx="351" cy="-18" rx="43.3283" ry="18"/>
<text text-anchor="middle" x="351" y="-12.4" font-family="Times,serif" font-size="14.00">Concept</text>
</g>
<!-- Site -->
<g id="node4" class="node"><title>Site</title>
<ellipse fill="none" stroke="black" cx="252" cy="-115" rx="27" ry="18"/>
<text text-anchor="middle" x="252" y="-109.4" font-family="Times,serif" font-size="14.00">Site</text>
</g>
<!-- Site&#45;&gt;Article -->
<g id="edge1" class="edge"><title>Site&#45;&gt;Article</title>
<path fill="none" stroke="#53e360" d="M252,-88.4138C252,-75.5178 252,-59.8618 252,-46.6847"/>
<ellipse fill="none" stroke="#53e360" cx="252" cy="-92.5755" rx="4" ry="4"/>
<polygon fill="#53e360" stroke="#53e360" points="252,-46.314 256.5,-36.314 252,-41.314 252,-36.314 252,-36.314 252,-36.314 252,-41.314 247.5,-36.314 252,-46.314 252,-46.314"/>
</g>
<!-- Species -->
<g id="node5" class="node"><title>Species</title>
<ellipse fill="none" stroke="black" cx="447" cy="-115" rx="40.303" ry="18"/>
<text text-anchor="middle" x="447" y="-109.4" font-family="Times,serif" font-size="14.00">Species</text>
</g>
<!-- Theme -->
<g id="node6" class="node"><title>Theme</title>
<ellipse fill="none" stroke="black" cx="351" cy="-115" rx="37.2739" ry="18"/>
<text text-anchor="middle" x="351" y="-109.4" font-family="Times,serif" font-size="14.00">Theme</text>
</g>
<!-- Theme&#45;&gt;Concept -->
<g id="edge2" class="edge"><title>Theme&#45;&gt;Concept</title>
<path fill="none" stroke="#bf6063" d="M351,-88.4138C351,-75.5178 351,-59.8618 351,-46.6847"/>
<ellipse fill="none" stroke="#bf6063" cx="351" cy="-92.5755" rx="4" ry="4"/>
<polygon fill="#bf6063" stroke="#bf6063" points="351,-46.314 355.5,-36.314 351,-41.314 351,-36.314 351,-36.314 351,-36.314 351,-41.314 346.5,-36.314 351,-46.314 351,-46.314"/>
</g>
</g>
</svg>
