<?xml version="1.0" encoding="UTF-8" standalone="no"?>
<!DOCTYPE svg PUBLIC "-//W3C//DTD SVG 1.1//EN"
 "http://www.w3.org/Graphics/SVG/1.1/DTD/svg11.dtd">
<!-- Generated by graphviz version 2.30.1 (20130311.0712)
 -->
<!-- Title: models_diagram Pages: 1 -->
<svg width="897pt" height="1228pt"
 viewBox="0.00 0.00 897.00 1228.00" xmlns="http://www.w3.org/2000/svg" xmlns:xlink="http://www.w3.org/1999/xlink">
<g id="graph0" class="graph" transform="scale(1 1) rotate(0) translate(4 1224)">
<title>models_diagram</title>
<polygon fill="white" stroke="white" points="-4,5 -4,-1224 894,-1224 894,5 -4,5"/>
<!-- _diagram_info -->
<g id="node1" class="node"><title>_diagram_info</title>
<text text-anchor="start" x="7.55029" y="-1086" font-family="Times,serif" font-size="13.00">Models diagram</text>
<text text-anchor="start" x="7.55029" y="-1070.4" font-family="Times,serif" font-size="13.00">Date: Mar 20 2013 &#45; 13:20</text>
<text text-anchor="start" x="7.55029" y="-1054.8" font-family="Times,serif" font-size="13.00">Migration version: 20130320114215</text>
<text text-anchor="start" x="7.55029" y="-1039.2" font-family="Times,serif" font-size="13.00">Generated by RailRoady 1.1.0</text>
<text text-anchor="start" x="7.55029" y="-1023.6" font-family="Times,serif" font-size="13.00">http://railroady.prestonlee.com</text>
</g>
<!-- Action -->
<g id="node2" class="node"><title>Action</title>
<path fill="none" stroke="black" d="M236.495,-662.2C236.495,-662.2 345.505,-662.2 345.505,-662.2 351.505,-662.2 357.505,-668.2 357.505,-674.2 357.505,-674.2 357.505,-783.8 357.505,-783.8 357.505,-789.8 351.505,-795.8 345.505,-795.8 345.505,-795.8 236.495,-795.8 236.495,-795.8 230.495,-795.8 224.495,-789.8 224.495,-783.8 224.495,-783.8 224.495,-674.2 224.495,-674.2 224.495,-668.2 230.495,-662.2 236.495,-662.2"/>
<text text-anchor="middle" x="291" y="-777.8" font-family="Times,serif" font-size="14.00">Action</text>
<polyline fill="none" stroke="black" points="224.495,-771 357.505,-771 "/>
<text text-anchor="start" x="232.495" y="-753" font-family="Times,serif" font-size="14.00">id :integer</text>
<text text-anchor="start" x="232.495" y="-736.2" font-family="Times,serif" font-size="14.00">title :string</text>
<text text-anchor="start" x="232.495" y="-719.4" font-family="Times,serif" font-size="14.00">short_desc :string</text>
<text text-anchor="start" x="232.495" y="-702.6" font-family="Times,serif" font-size="14.00">target_id :integer</text>
<text text-anchor="start" x="232.495" y="-685.8" font-family="Times,serif" font-size="14.00">created_at :datetime</text>
<text text-anchor="start" x="232.495" y="-669" font-family="Times,serif" font-size="14.00">updated_at :datetime</text>
</g>
<!-- Article -->
<g id="node3" class="node"><title>Article</title>
<path fill="none" stroke="black" d="M387.901,-595C387.901,-595 538.099,-595 538.099,-595 544.099,-595 550.099,-601 550.099,-607 550.099,-607 550.099,-851 550.099,-851 550.099,-857 544.099,-863 538.099,-863 538.099,-863 387.901,-863 387.901,-863 381.901,-863 375.901,-857 375.901,-851 375.901,-851 375.901,-607 375.901,-607 375.901,-601 381.901,-595 387.901,-595"/>
<text text-anchor="middle" x="463" y="-845" font-family="Times,serif" font-size="14.00">Article</text>
<polyline fill="none" stroke="black" points="375.901,-838.2 550.099,-838.2 "/>
<text text-anchor="start" x="383.901" y="-820.2" font-family="Times,serif" font-size="14.00">id :integer</text>
<text text-anchor="start" x="383.901" y="-803.4" font-family="Times,serif" font-size="14.00">title :string</text>
<text text-anchor="start" x="383.901" y="-786.6" font-family="Times,serif" font-size="14.00">author :text</text>
<text text-anchor="start" x="383.901" y="-769.8" font-family="Times,serif" font-size="14.00">content :text</text>
<text text-anchor="start" x="383.901" y="-753" font-family="Times,serif" font-size="14.00">language :string</text>
<text text-anchor="start" x="383.901" y="-736.2" font-family="Times,serif" font-size="14.00">geographical_coverage :text</text>
<text text-anchor="start" x="383.901" y="-719.4" font-family="Times,serif" font-size="14.00">biographical_region :text</text>
<text text-anchor="start" x="383.901" y="-702.6" font-family="Times,serif" font-size="14.00">source_url :text</text>
<text text-anchor="start" x="383.901" y="-685.8" font-family="Times,serif" font-size="14.00">published_on :date</text>
<text text-anchor="start" x="383.901" y="-669" font-family="Times,serif" font-size="14.00">published :boolean</text>
<text text-anchor="start" x="383.901" y="-652.2" font-family="Times,serif" font-size="14.00">site_id :integer</text>
<text text-anchor="start" x="383.901" y="-635.4" font-family="Times,serif" font-size="14.00">concepts_id :integer</text>
<text text-anchor="start" x="383.901" y="-618.6" font-family="Times,serif" font-size="14.00">created_at :datetime</text>
<text text-anchor="start" x="383.901" y="-601.8" font-family="Times,serif" font-size="14.00">updated_at :datetime</text>
</g>
<!-- Concept -->
<g id="node4" class="node"><title>Concept</title>
<path fill="none" stroke="black" d="M580.495,-390.4C580.495,-390.4 689.505,-390.4 689.505,-390.4 695.505,-390.4 701.505,-396.4 701.505,-402.4 701.505,-402.4 701.505,-545.6 701.505,-545.6 701.505,-551.6 695.505,-557.6 689.505,-557.6 689.505,-557.6 580.495,-557.6 580.495,-557.6 574.495,-557.6 568.495,-551.6 568.495,-545.6 568.495,-545.6 568.495,-402.4 568.495,-402.4 568.495,-396.4 574.495,-390.4 580.495,-390.4"/>
<text text-anchor="middle" x="635" y="-539.6" font-family="Times,serif" font-size="14.00">Concept</text>
<polyline fill="none" stroke="black" points="568.495,-532.8 701.505,-532.8 "/>
<text text-anchor="start" x="576.495" y="-514.8" font-family="Times,serif" font-size="14.00">id :integer</text>
<text text-anchor="start" x="576.495" y="-498" font-family="Times,serif" font-size="14.00">title :string</text>
<text text-anchor="start" x="576.495" y="-481.2" font-family="Times,serif" font-size="14.00">parent :integer</text>
<text text-anchor="start" x="576.495" y="-464.4" font-family="Times,serif" font-size="14.00">definition :text</text>
<text text-anchor="start" x="576.495" y="-447.6" font-family="Times,serif" font-size="14.00">theme_id :integer</text>
<text text-anchor="start" x="576.495" y="-430.8" font-family="Times,serif" font-size="14.00">articles_id :integer</text>
<text text-anchor="start" x="576.495" y="-414" font-family="Times,serif" font-size="14.00">created_at :datetime</text>
<text text-anchor="start" x="576.495" y="-397.2" font-family="Times,serif" font-size="14.00">updated_at :datetime</text>
</g>
<!-- Article&#45;&gt;Concept -->
<g id="edge1" class="edge"><title>Article&#45;&gt;Concept</title>
<path fill="none" stroke="#2c354e" d="M555.906,-591.342C561.651,-582.892 567.354,-574.502 572.913,-566.326"/>
<polygon fill="#2c354e" stroke="#2c354e" points="555.882,-591.377 546.538,-597.117 553.071,-595.512 550.26,-599.647 550.26,-599.647 550.26,-599.647 553.071,-595.512 553.981,-602.177 555.882,-591.377 555.882,-591.377"/>
<polygon fill="#2c354e" stroke="#2c354e" points="573.027,-566.158 582.371,-560.418 575.838,-562.023 578.649,-557.888 578.649,-557.888 578.649,-557.888 575.838,-562.023 574.928,-555.358 573.027,-566.158 573.027,-566.158"/>
</g>
<!-- Document -->
<g id="node5" class="node"><title>Document</title>
<path fill="none" stroke="black" d="M606.901,-1C606.901,-1 757.099,-1 757.099,-1 763.099,-1 769.099,-7 769.099,-13 769.099,-13 769.099,-341 769.099,-341 769.099,-347 763.099,-353 757.099,-353 757.099,-353 606.901,-353 606.901,-353 600.901,-353 594.901,-347 594.901,-341 594.901,-341 594.901,-13 594.901,-13 594.901,-7 600.901,-1 606.901,-1"/>
<text text-anchor="middle" x="682" y="-335" font-family="Times,serif" font-size="14.00">Document</text>
<polyline fill="none" stroke="black" points="594.901,-328.2 769.099,-328.2 "/>
<text text-anchor="start" x="602.901" y="-310.2" font-family="Times,serif" font-size="14.00">id :integer</text>
<text text-anchor="start" x="602.901" y="-293.4" font-family="Times,serif" font-size="14.00">title :string</text>
<text text-anchor="start" x="602.901" y="-276.6" font-family="Times,serif" font-size="14.00">author :string</text>
<text text-anchor="start" x="602.901" y="-259.8" font-family="Times,serif" font-size="14.00">description :string</text>
<text text-anchor="start" x="602.901" y="-243" font-family="Times,serif" font-size="14.00">language :string</text>
<text text-anchor="start" x="602.901" y="-226.2" font-family="Times,serif" font-size="14.00">geographical_coverage :text</text>
<text text-anchor="start" x="602.901" y="-209.4" font-family="Times,serif" font-size="14.00">biographical_region :text</text>
<text text-anchor="start" x="602.901" y="-192.6" font-family="Times,serif" font-size="14.00">source_url :string</text>
<text text-anchor="start" x="602.901" y="-175.8" font-family="Times,serif" font-size="14.00">published_on :date</text>
<text text-anchor="start" x="602.901" y="-159" font-family="Times,serif" font-size="14.00">published :boolean</text>
<text text-anchor="start" x="602.901" y="-142.2" font-family="Times,serif" font-size="14.00">downloads :integer</text>
<text text-anchor="start" x="602.901" y="-125.4" font-family="Times,serif" font-size="14.00">file :string</text>
<text text-anchor="start" x="602.901" y="-108.6" font-family="Times,serif" font-size="14.00">content_type :string</text>
<text text-anchor="start" x="602.901" y="-91.8" font-family="Times,serif" font-size="14.00">file_size :float</text>
<text text-anchor="start" x="602.901" y="-75" font-family="Times,serif" font-size="14.00">md5hash :string</text>
<text text-anchor="start" x="602.901" y="-58.2" font-family="Times,serif" font-size="14.00">site_id :integer</text>
<text text-anchor="start" x="602.901" y="-41.4" font-family="Times,serif" font-size="14.00">theme_id :integer</text>
<text text-anchor="start" x="602.901" y="-24.6" font-family="Times,serif" font-size="14.00">created_at :datetime</text>
<text text-anchor="start" x="602.901" y="-7.8" font-family="Times,serif" font-size="14.00">updated_at :datetime</text>
</g>
<!-- Concept&#45;&gt;Document -->
<g id="edge2" class="edge"><title>Concept&#45;&gt;Document</title>
<path fill="none" stroke="#ba6244" d="M649.822,-379.967C650.689,-374.526 651.574,-368.971 652.472,-363.336"/>
<polygon fill="#ba6244" stroke="#ba6244" points="649.791,-380.166 643.773,-389.333 649.004,-385.103 648.217,-390.041 648.217,-390.041 648.217,-390.041 649.004,-385.103 652.661,-390.749 649.791,-380.166 649.791,-380.166"/>
<polygon fill="#ba6244" stroke="#ba6244" points="652.527,-362.992 658.544,-353.825 653.313,-358.055 654.1,-353.117 654.1,-353.117 654.1,-353.117 653.313,-358.055 649.656,-352.409 652.527,-362.992 652.527,-362.992"/>
</g>
<!-- Site -->
<g id="node6" class="node"><title>Site</title>
<path fill="none" stroke="black" d="M541.495,-984.8C541.495,-984.8 650.505,-984.8 650.505,-984.8 656.505,-984.8 662.505,-990.8 662.505,-996.8 662.505,-996.8 662.505,-1123.2 662.505,-1123.2 662.505,-1129.2 656.505,-1135.2 650.505,-1135.2 650.505,-1135.2 541.495,-1135.2 541.495,-1135.2 535.495,-1135.2 529.495,-1129.2 529.495,-1123.2 529.495,-1123.2 529.495,-996.8 529.495,-996.8 529.495,-990.8 535.495,-984.8 541.495,-984.8"/>
<text text-anchor="middle" x="596" y="-1117.2" font-family="Times,serif" font-size="14.00">Site</text>
<polyline fill="none" stroke="black" points="529.495,-1110.4 662.505,-1110.4 "/>
<text text-anchor="start" x="537.495" y="-1092.4" font-family="Times,serif" font-size="14.00">id :integer</text>
<text text-anchor="start" x="537.495" y="-1075.6" font-family="Times,serif" font-size="14.00">name :string</text>
<text text-anchor="start" x="537.495" y="-1058.8" font-family="Times,serif" font-size="14.00">origin_url :string</text>
<text text-anchor="start" x="537.495" y="-1042" font-family="Times,serif" font-size="14.00">description :string</text>
<text text-anchor="start" x="537.495" y="-1025.2" font-family="Times,serif" font-size="14.00">articles_id :integer</text>
<text text-anchor="start" x="537.495" y="-1008.4" font-family="Times,serif" font-size="14.00">created_at :datetime</text>
<text text-anchor="start" x="537.495" y="-991.6" font-family="Times,serif" font-size="14.00">updated_at :datetime</text>
</g>
<!-- Site&#45;&gt;Article -->
<g id="edge3" class="edge"><title>Site&#45;&gt;Article</title>
<path fill="none" stroke="#fa8c2f" d="M562.876,-977.061C550.101,-945.459 535.107,-908.371 520.678,-872.677"/>
<ellipse fill="none" stroke="#fa8c2f" cx="564.487" cy="-981.047" rx="4.00001" ry="4.00001"/>
<polygon fill="#fa8c2f" stroke="#fa8c2f" points="520.573,-872.418 520.997,-861.46 518.699,-867.782 516.825,-863.147 516.825,-863.147 516.825,-863.147 518.699,-867.782 512.653,-864.833 520.573,-872.418 520.573,-872.418"/>
</g>
<!-- Site&#45;&gt;Document -->
<g id="edge4" class="edge"><title>Site&#45;&gt;Document</title>
<path fill="none" stroke="#710464" d="M627.454,-976.894C639.202,-951.097 653.908,-923.292 671,-900 684.956,-880.982 700.539,-885.609 710,-864 779.387,-705.521 761.094,-506.234 732.24,-363.355"/>
<ellipse fill="none" stroke="#710464" cx="625.697" cy="-980.817" rx="4.00002" ry="4.00002"/>
<polygon fill="#710464" stroke="#710464" points="732.159,-362.961 734.553,-352.26 731.152,-358.064 730.145,-353.166 730.145,-353.166 730.145,-353.166 731.152,-358.064 725.737,-354.072 732.159,-362.961 732.159,-362.961"/>
</g>
<!-- Species -->
<g id="node7" class="node"><title>Species</title>
<path fill="none" stroke="black" d="M692.377,-900.8C692.377,-900.8 877.623,-900.8 877.623,-900.8 883.623,-900.8 889.623,-906.8 889.623,-912.8 889.623,-912.8 889.623,-1207.2 889.623,-1207.2 889.623,-1213.2 883.623,-1219.2 877.623,-1219.2 877.623,-1219.2 692.377,-1219.2 692.377,-1219.2 686.377,-1219.2 680.377,-1213.2 680.377,-1207.2 680.377,-1207.2 680.377,-912.8 680.377,-912.8 680.377,-906.8 686.377,-900.8 692.377,-900.8"/>
<text text-anchor="middle" x="785" y="-1201.2" font-family="Times,serif" font-size="14.00">Species</text>
<polyline fill="none" stroke="black" points="680.377,-1194.4 889.623,-1194.4 "/>
<text text-anchor="start" x="688.377" y="-1176.4" font-family="Times,serif" font-size="14.00">id :integer</text>
<text text-anchor="start" x="688.377" y="-1159.6" font-family="Times,serif" font-size="14.00">species_code :integer</text>
<text text-anchor="start" x="688.377" y="-1142.8" font-family="Times,serif" font-size="14.00">binomial_name :string</text>
<text text-anchor="start" x="688.377" y="-1126" font-family="Times,serif" font-size="14.00">valid_name :string</text>
<text text-anchor="start" x="688.377" y="-1109.2" font-family="Times,serif" font-size="14.00">eunis_primary_name :string</text>
<text text-anchor="start" x="688.377" y="-1092.4" font-family="Times,serif" font-size="14.00">synonym_for :string</text>
<text text-anchor="start" x="688.377" y="-1075.6" font-family="Times,serif" font-size="14.00">taxonomic_rank :string</text>
<text text-anchor="start" x="688.377" y="-1058.8" font-family="Times,serif" font-size="14.00">taxonomy :string</text>
<text text-anchor="start" x="688.377" y="-1042" font-family="Times,serif" font-size="14.00">scientific_name_authorship :string</text>
<text text-anchor="start" x="688.377" y="-1025.2" font-family="Times,serif" font-size="14.00">scientific_name :string</text>
<text text-anchor="start" x="688.377" y="-1008.4" font-family="Times,serif" font-size="14.00">label :string</text>
<text text-anchor="start" x="688.377" y="-991.6" font-family="Times,serif" font-size="14.00">genus :string</text>
<text text-anchor="start" x="688.377" y="-974.8" font-family="Times,serif" font-size="14.00">species_group :string</text>
<text text-anchor="start" x="688.377" y="-958" font-family="Times,serif" font-size="14.00">name_according_to_ID :string</text>
<text text-anchor="start" x="688.377" y="-941.2" font-family="Times,serif" font-size="14.00">ignore_on_match :boolean</text>
<text text-anchor="start" x="688.377" y="-924.4" font-family="Times,serif" font-size="14.00">created_at :datetime</text>
<text text-anchor="start" x="688.377" y="-907.6" font-family="Times,serif" font-size="14.00">updated_at :datetime</text>
</g>
<!-- Target -->
<g id="node8" class="node"><title>Target</title>
<path fill="none" stroke="black" d="M236.495,-1001.6C236.495,-1001.6 345.505,-1001.6 345.505,-1001.6 351.505,-1001.6 357.505,-1007.6 357.505,-1013.6 357.505,-1013.6 357.505,-1106.4 357.505,-1106.4 357.505,-1112.4 351.505,-1118.4 345.505,-1118.4 345.505,-1118.4 236.495,-1118.4 236.495,-1118.4 230.495,-1118.4 224.495,-1112.4 224.495,-1106.4 224.495,-1106.4 224.495,-1013.6 224.495,-1013.6 224.495,-1007.6 230.495,-1001.6 236.495,-1001.6"/>
<text text-anchor="middle" x="291" y="-1100.4" font-family="Times,serif" font-size="14.00">Target</text>
<polyline fill="none" stroke="black" points="224.495,-1093.6 357.505,-1093.6 "/>
<text text-anchor="start" x="232.495" y="-1075.6" font-family="Times,serif" font-size="14.00">id :integer</text>
<text text-anchor="start" x="232.495" y="-1058.8" font-family="Times,serif" font-size="14.00">title :string</text>
<text text-anchor="start" x="232.495" y="-1042" font-family="Times,serif" font-size="14.00">short_desc :string</text>
<text text-anchor="start" x="232.495" y="-1025.2" font-family="Times,serif" font-size="14.00">created_at :datetime</text>
<text text-anchor="start" x="232.495" y="-1008.4" font-family="Times,serif" font-size="14.00">updated_at :datetime</text>
</g>
<!-- Target&#45;&gt;Action -->
<g id="edge5" class="edge"><title>Target&#45;&gt;Action</title>
<path fill="none" stroke="#bd2bcd" d="M291,-993.048C291,-939.082 291,-862.705 291,-806.145"/>
<ellipse fill="none" stroke="#bd2bcd" cx="291" cy="-997.316" rx="4" ry="4"/>
<polygon fill="#bd2bcd" stroke="#bd2bcd" points="291,-805.824 295.5,-795.824 291,-800.824 291,-795.824 291,-795.824 291,-795.824 291,-800.824 286.5,-795.824 291,-805.824 291,-805.824"/>
</g>
<!-- Theme -->
<g id="node9" class="node"><title>Theme</title>
<path fill="none" stroke="black" d="M580.495,-662.2C580.495,-662.2 689.505,-662.2 689.505,-662.2 695.505,-662.2 701.505,-668.2 701.505,-674.2 701.505,-674.2 701.505,-783.8 701.505,-783.8 701.505,-789.8 695.505,-795.8 689.505,-795.8 689.505,-795.8 580.495,-795.8 580.495,-795.8 574.495,-795.8 568.495,-789.8 568.495,-783.8 568.495,-783.8 568.495,-674.2 568.495,-674.2 568.495,-668.2 574.495,-662.2 580.495,-662.2"/>
<text text-anchor="middle" x="635" y="-777.8" font-family="Times,serif" font-size="14.00">Theme</text>
<polyline fill="none" stroke="black" points="568.495,-771 701.505,-771 "/>
<text text-anchor="start" x="576.495" y="-753" font-family="Times,serif" font-size="14.00">id :integer</text>
<text text-anchor="start" x="576.495" y="-736.2" font-family="Times,serif" font-size="14.00">title :string</text>
<text text-anchor="start" x="576.495" y="-719.4" font-family="Times,serif" font-size="14.00">concepts_id :integer</text>
<text text-anchor="start" x="576.495" y="-702.6" font-family="Times,serif" font-size="14.00">articles_id :integer</text>
<text text-anchor="start" x="576.495" y="-685.8" font-family="Times,serif" font-size="14.00">created_at :datetime</text>
<text text-anchor="start" x="576.495" y="-669" font-family="Times,serif" font-size="14.00">updated_at :datetime</text>
</g>
<!-- Theme&#45;&gt;Concept -->
<g id="edge6" class="edge"><title>Theme&#45;&gt;Concept</title>
<path fill="none" stroke="#cd6822" d="M635,-653.817C635,-626.957 635,-596.278 635,-568.004"/>
<ellipse fill="none" stroke="#cd6822" cx="635" cy="-658.188" rx="4" ry="4"/>
<polygon fill="#cd6822" stroke="#cd6822" points="635,-567.708 639.5,-557.708 635,-562.708 635,-557.708 635,-557.708 635,-557.708 635,-562.708 630.5,-557.708 635,-567.708 635,-567.708"/>
</g>
</g>
</svg>
