<?xml version="1.0" encoding="UTF-8" standalone="no"?>
<!DOCTYPE svg PUBLIC "-//W3C//DTD SVG 1.1//EN"
 "http://www.w3.org/Graphics/SVG/1.1/DTD/svg11.dtd">
<!-- Generated by graphviz version 2.30.1 (20130311.0712)
 -->
<!-- Title: models_diagram Pages: 1 -->
<svg width="764pt" height="616pt"
 viewBox="0.00 0.00 764.00 616.00" xmlns="http://www.w3.org/2000/svg" xmlns:xlink="http://www.w3.org/1999/xlink">
<g id="graph0" class="graph" transform="scale(1 1) rotate(0) translate(4 612)">
<title>models_diagram</title>
<polygon fill="white" stroke="white" points="-4,5 -4,-612 761,-612 761,5 -4,5"/>
<!-- _diagram_info -->
<g id="node1" class="node"><title>_diagram_info</title>
<text text-anchor="start" x="7.31226" y="-474" font-family="Times,serif" font-size="13.00">Models diagram</text>
<text text-anchor="start" x="7.31226" y="-458.4" font-family="Times,serif" font-size="13.00">Date: Mar 11 2013 &#45; 08:28</text>
<text text-anchor="start" x="7.31226" y="-442.8" font-family="Times,serif" font-size="13.00">Migration version: 20130307104456</text>
<text text-anchor="start" x="7.31226" y="-427.2" font-family="Times,serif" font-size="13.00">Generated by RailRoady 1.1.0</text>
<text text-anchor="start" x="7.31226" y="-411.6" font-family="Times,serif" font-size="13.00">http://railroady.prestonlee.com</text>
</g>
<!-- Article -->
<g id="node2" class="node"><title>Article</title>
<path fill="none" stroke="black" d="M215.901,-0.4C215.901,-0.4 366.099,-0.4 366.099,-0.4 372.099,-0.4 378.099,-6.4 378.099,-12.4 378.099,-12.4 378.099,-239.6 378.099,-239.6 378.099,-245.6 372.099,-251.6 366.099,-251.6 366.099,-251.6 215.901,-251.6 215.901,-251.6 209.901,-251.6 203.901,-245.6 203.901,-239.6 203.901,-239.6 203.901,-12.4 203.901,-12.4 203.901,-6.4 209.901,-0.4 215.901,-0.4"/>
<text text-anchor="middle" x="291" y="-233.6" font-family="Times,serif" font-size="14.00">Article</text>
<polyline fill="none" stroke="black" points="203.901,-226.8 378.099,-226.8 "/>
<text text-anchor="start" x="211.901" y="-208.8" font-family="Times,serif" font-size="14.00">id :integer</text>
<text text-anchor="start" x="211.901" y="-192" font-family="Times,serif" font-size="14.00">title :string</text>
<text text-anchor="start" x="211.901" y="-175.2" font-family="Times,serif" font-size="14.00">author :text</text>
<text text-anchor="start" x="211.901" y="-158.4" font-family="Times,serif" font-size="14.00">content :text</text>
<text text-anchor="start" x="211.901" y="-141.6" font-family="Times,serif" font-size="14.00">language :string</text>
<text text-anchor="start" x="211.901" y="-124.8" font-family="Times,serif" font-size="14.00">geographical_coverage :text</text>
<text text-anchor="start" x="211.901" y="-108" font-family="Times,serif" font-size="14.00">biographical_region :text</text>
<text text-anchor="start" x="211.901" y="-91.2" font-family="Times,serif" font-size="14.00">source_url :text</text>
<text text-anchor="start" x="211.901" y="-74.4" font-family="Times,serif" font-size="14.00">published_on :date</text>
<text text-anchor="start" x="211.901" y="-57.6" font-family="Times,serif" font-size="14.00">published :boolean</text>
<text text-anchor="start" x="211.901" y="-40.8" font-family="Times,serif" font-size="14.00">site_id :integer</text>
<text text-anchor="start" x="211.901" y="-24" font-family="Times,serif" font-size="14.00">created_at :datetime</text>
<text text-anchor="start" x="211.901" y="-7.2" font-family="Times,serif" font-size="14.00">updated_at :datetime</text>
</g>
<!-- Concept -->
<g id="node3" class="node"><title>Concept</title>
<path fill="none" stroke="black" d="M408.495,-50.8C408.495,-50.8 517.505,-50.8 517.505,-50.8 523.505,-50.8 529.505,-56.8 529.505,-62.8 529.505,-62.8 529.505,-189.2 529.505,-189.2 529.505,-195.2 523.505,-201.2 517.505,-201.2 517.505,-201.2 408.495,-201.2 408.495,-201.2 402.495,-201.2 396.495,-195.2 396.495,-189.2 396.495,-189.2 396.495,-62.8 396.495,-62.8 396.495,-56.8 402.495,-50.8 408.495,-50.8"/>
<text text-anchor="middle" x="463" y="-183.2" font-family="Times,serif" font-size="14.00">Concept</text>
<polyline fill="none" stroke="black" points="396.495,-176.4 529.505,-176.4 "/>
<text text-anchor="start" x="404.495" y="-158.4" font-family="Times,serif" font-size="14.00">id :integer</text>
<text text-anchor="start" x="404.495" y="-141.6" font-family="Times,serif" font-size="14.00">title :string</text>
<text text-anchor="start" x="404.495" y="-124.8" font-family="Times,serif" font-size="14.00">parent :integer</text>
<text text-anchor="start" x="404.495" y="-108" font-family="Times,serif" font-size="14.00">definition :text</text>
<text text-anchor="start" x="404.495" y="-91.2" font-family="Times,serif" font-size="14.00">theme_id :integer</text>
<text text-anchor="start" x="404.495" y="-74.4" font-family="Times,serif" font-size="14.00">created_at :datetime</text>
<text text-anchor="start" x="404.495" y="-57.6" font-family="Times,serif" font-size="14.00">updated_at :datetime</text>
</g>
<!-- Site -->
<g id="node4" class="node"><title>Site</title>
<path fill="none" stroke="black" d="M236.495,-372.8C236.495,-372.8 345.505,-372.8 345.505,-372.8 351.505,-372.8 357.505,-378.8 357.505,-384.8 357.505,-384.8 357.505,-511.2 357.505,-511.2 357.505,-517.2 351.505,-523.2 345.505,-523.2 345.505,-523.2 236.495,-523.2 236.495,-523.2 230.495,-523.2 224.495,-517.2 224.495,-511.2 224.495,-511.2 224.495,-384.8 224.495,-384.8 224.495,-378.8 230.495,-372.8 236.495,-372.8"/>
<text text-anchor="middle" x="291" y="-505.2" font-family="Times,serif" font-size="14.00">Site</text>
<polyline fill="none" stroke="black" points="224.495,-498.4 357.505,-498.4 "/>
<text text-anchor="start" x="232.495" y="-480.4" font-family="Times,serif" font-size="14.00">id :integer</text>
<text text-anchor="start" x="232.495" y="-463.6" font-family="Times,serif" font-size="14.00">name :string</text>
<text text-anchor="start" x="232.495" y="-446.8" font-family="Times,serif" font-size="14.00">origin_url :string</text>
<text text-anchor="start" x="232.495" y="-430" font-family="Times,serif" font-size="14.00">description :string</text>
<text text-anchor="start" x="232.495" y="-413.2" font-family="Times,serif" font-size="14.00">articles_id :integer</text>
<text text-anchor="start" x="232.495" y="-396.4" font-family="Times,serif" font-size="14.00">created_at :datetime</text>
<text text-anchor="start" x="232.495" y="-379.6" font-family="Times,serif" font-size="14.00">updated_at :datetime</text>
</g>
<!-- Site&#45;&gt;Article -->
<g id="edge1" class="edge"><title>Site&#45;&gt;Article</title>
<path fill="none" stroke="#f64c9e" d="M291,-364.655C291,-333.425 291,-296.985 291,-262.155"/>
<ellipse fill="none" stroke="#f64c9e" cx="291" cy="-368.781" rx="4" ry="4"/>
<polygon fill="#f64c9e" stroke="#f64c9e" points="291,-261.895 295.5,-251.895 291,-256.895 291,-251.895 291,-251.895 291,-251.895 291,-256.895 286.5,-251.895 291,-261.895 291,-261.895"/>
</g>
<!-- Species -->
<g id="node5" class="node"><title>Species</title>
<path fill="none" stroke="black" d="M559.377,-288.8C559.377,-288.8 744.623,-288.8 744.623,-288.8 750.623,-288.8 756.623,-294.8 756.623,-300.8 756.623,-300.8 756.623,-595.2 756.623,-595.2 756.623,-601.2 750.623,-607.2 744.623,-607.2 744.623,-607.2 559.377,-607.2 559.377,-607.2 553.377,-607.2 547.377,-601.2 547.377,-595.2 547.377,-595.2 547.377,-300.8 547.377,-300.8 547.377,-294.8 553.377,-288.8 559.377,-288.8"/>
<text text-anchor="middle" x="652" y="-589.2" font-family="Times,serif" font-size="14.00">Species</text>
<polyline fill="none" stroke="black" points="547.377,-582.4 756.623,-582.4 "/>
<text text-anchor="start" x="555.377" y="-564.4" font-family="Times,serif" font-size="14.00">id :integer</text>
<text text-anchor="start" x="555.377" y="-547.6" font-family="Times,serif" font-size="14.00">species_code :integer</text>
<text text-anchor="start" x="555.377" y="-530.8" font-family="Times,serif" font-size="14.00">binomial_name :string</text>
<text text-anchor="start" x="555.377" y="-514" font-family="Times,serif" font-size="14.00">valid_name :string</text>
<text text-anchor="start" x="555.377" y="-497.2" font-family="Times,serif" font-size="14.00">eunis_primary_name :string</text>
<text text-anchor="start" x="555.377" y="-480.4" font-family="Times,serif" font-size="14.00">synonym_for :string</text>
<text text-anchor="start" x="555.377" y="-463.6" font-family="Times,serif" font-size="14.00">taxonomic_rank :string</text>
<text text-anchor="start" x="555.377" y="-446.8" font-family="Times,serif" font-size="14.00">taxonomy :string</text>
<text text-anchor="start" x="555.377" y="-430" font-family="Times,serif" font-size="14.00">scientific_name_authorship :string</text>
<text text-anchor="start" x="555.377" y="-413.2" font-family="Times,serif" font-size="14.00">scientific_name :string</text>
<text text-anchor="start" x="555.377" y="-396.4" font-family="Times,serif" font-size="14.00">label :string</text>
<text text-anchor="start" x="555.377" y="-379.6" font-family="Times,serif" font-size="14.00">genus :string</text>
<text text-anchor="start" x="555.377" y="-362.8" font-family="Times,serif" font-size="14.00">species_group :string</text>
<text text-anchor="start" x="555.377" y="-346" font-family="Times,serif" font-size="14.00">name_according_to_ID :string</text>
<text text-anchor="start" x="555.377" y="-329.2" font-family="Times,serif" font-size="14.00">ignore_on_match :boolean</text>
<text text-anchor="start" x="555.377" y="-312.4" font-family="Times,serif" font-size="14.00">created_at :datetime</text>
<text text-anchor="start" x="555.377" y="-295.6" font-family="Times,serif" font-size="14.00">updated_at :datetime</text>
</g>
<!-- Theme -->
<g id="node6" class="node"><title>Theme</title>
<path fill="none" stroke="black" d="M408.495,-389.6C408.495,-389.6 517.505,-389.6 517.505,-389.6 523.505,-389.6 529.505,-395.6 529.505,-401.6 529.505,-401.6 529.505,-494.4 529.505,-494.4 529.505,-500.4 523.505,-506.4 517.505,-506.4 517.505,-506.4 408.495,-506.4 408.495,-506.4 402.495,-506.4 396.495,-500.4 396.495,-494.4 396.495,-494.4 396.495,-401.6 396.495,-401.6 396.495,-395.6 402.495,-389.6 408.495,-389.6"/>
<text text-anchor="middle" x="463" y="-488.4" font-family="Times,serif" font-size="14.00">Theme</text>
<polyline fill="none" stroke="black" points="396.495,-481.6 529.505,-481.6 "/>
<text text-anchor="start" x="404.495" y="-463.6" font-family="Times,serif" font-size="14.00">id :integer</text>
<text text-anchor="start" x="404.495" y="-446.8" font-family="Times,serif" font-size="14.00">title :string</text>
<text text-anchor="start" x="404.495" y="-430" font-family="Times,serif" font-size="14.00">concepts_id :integer</text>
<text text-anchor="start" x="404.495" y="-413.2" font-family="Times,serif" font-size="14.00">created_at :datetime</text>
<text text-anchor="start" x="404.495" y="-396.4" font-family="Times,serif" font-size="14.00">updated_at :datetime</text>
</g>
<!-- Theme&#45;&gt;Concept -->
<g id="edge2" class="edge"><title>Theme&#45;&gt;Concept</title>
<path fill="none" stroke="#2b8533" d="M463,-381.211C463,-332.072 463,-264.519 463,-211.4"/>
<ellipse fill="none" stroke="#2b8533" cx="463" cy="-385.421" rx="4" ry="4"/>
<polygon fill="#2b8533" stroke="#2b8533" points="463,-211.318 467.5,-201.318 463,-206.318 463,-201.318 463,-201.318 463,-201.318 463,-206.318 458.5,-201.318 463,-211.318 463,-211.318"/>
</g>
</g>
</svg>
